<svg xmlns="http://www.w3.org/2000/svg" width="227" height="62" viewBox="0 0 227 62">
    <g fill="none" fill-rule="evenodd">
        <path fill="#000" fill-rule="nonzero" d="M12.302 46.953h6.253l3.317-8.4H37.11l3.826 8.507 6.065.107L29.195 9.665 12.302 46.953zM34.98 31.781h-5.828v-2.204l-4.964 2.204 5.05-11.874 5.742 11.874z"/>
        <path fill="#FFF" d="M12.302 46.953h6.253l3.317-8.4H37.11l3.826 8.507 6.065.107L29.195 9.665 12.302 46.953zM34.98 31.781h-5.828v-2.204l-4.964 2.204 5.05-11.874 5.742 11.874z"/>
        <path fill="#1296B3" fill-rule="nonzero" d="M22.436 33.213v.567h-1.023v2.964h-.661V33.78h-1.023v-.567h2.707zm.367 3.53h-.679l1.515-3.53h.711l1.548 3.53h-.712l-.406-.962h-1.186l.227-.568h.72l-.562-1.326-1.176 2.857zm4.193-3.53v3.53h-.662v-3.53h.662zm.461 0h.672l.382 2.536.928-2.536h.636l.869 2.437.404-2.437H32l-.67 3.53h-.63l-.98-2.77-1.054 2.77h-.621l-.587-3.53zm5.37 3.53h-.678l1.515-3.53h.711l1.547 3.53h-.71l-.408-.962H33.62l.227-.568h.719l-.562-1.326-1.175 2.857zm3.532 0v-3.53h.662l1.884 2.573v-2.573h.636v3.53h-.661l-1.884-2.627v2.628h-.637z"/>
        <path fill="#FFF" fill-rule="nonzero" d="M181.903 1v1.448h-2.608v7.555h-1.686V2.448H175V1h6.903zm.935 9.003h-1.73L184.97 1h1.813l3.945 9.003h-1.814l-1.037-2.456h-3.022l.58-1.448h1.832l-1.432-3.38-2.997 7.284zM193.528 1v9.003h-1.687V1h1.686zm1.176 0h1.712l.973 6.465L199.756 1h1.622l2.214 6.214L204.623 1h1.66l-1.71 9.003h-1.604l-2.5-7.064-2.685 7.064h-1.585L194.704 1zm13.692 9.003h-1.73L210.526 1h1.814l3.944 9.003h-1.813l-1.037-2.456h-3.022l.579-1.448h1.832l-1.431-3.38-2.997 7.284zm9.003 0V1h1.686l4.803 6.56V1h1.623v9.003h-1.686l-4.804-6.699v6.699H217.4z"/>
        <g fill="#FFF" font-family="Helvetica" font-size="40">
            <text transform="translate(61.575 8.717)">
                <tspan x="0" y="39">NGULAR</tspan>
            </text>
        </g>
        <g stroke="#FFF" stroke-width="3.2">
            <path d="M2 11.61L29.26 2l27.993 9.44-4.532 35.686L29.26 59.982 6.166 47.297z"/>
        </g>
    </g>
</svg>
