<svg xmlns="http://www.w3.org/2000/svg" xmlns:xlink="http://www.w3.org/1999/xlink" width="1288" height="519" viewBox="0 0 1288 519">
  <defs>
    <rect id="bg-new-com2-a" width="1288" height="640"/>
  </defs>
  <g fill="none" fill-rule="evenodd" transform="translate(0 -121)">
    <mask id="bg-new-com2-b" fill="#fff">
      <use xlink:href="#bg-new-com2-a"/>
    </mask>
    <path fill="#5161BC" fill-rule="nonzero" d="M1224.23353,692 L1118.48275,692 L1012.73196,692 L717,692 L611.249215,692 L466.668063,692 L389.833508,692 L284.082723,692 L178.331937,692 L72.5811518,692 L-47.2146597,692 L-47.2146597,307.794824 L46.9696335,307.794824 L46.9696335,368.937153 L72.5811518,368.937153 L72.5811518,552.36414 L105.628272,552.36414 L105.628272,492.874307 L145.284817,492.874307 L145.284817,552.36414 L178.331937,552.36414 L179.984293,450.735675 L179.984293,397.855823 L211.379058,397.855823 L211.379058,450.735675 L284.082723,450.735675 L284.082723,530.055453 L324.565445,530.055453 L324.565445,505.268022 L349.350785,505.268022 L349.350785,530.055453 L389.833508,530.055453 L389.833508,295.401109 L442.708901,295.401109 L442.708901,258.219963 L451.796859,258.219963 L451.796859,295.401109 L466.668063,295.401109 L466.668063,368.937153 L493.105759,368.937153 L493.105759,307.794824 L515.412565,307.794824 L515.412565,245 L561.678534,245 L561.678534,307.794824 L583.98534,307.794824 L583.98534,368.937153 L611.249215,368.937153 L611.249215,450.735675 L648.427225,450.735675 L648.427225,397.855823 L679.82199,397.855823 L679.82199,450.735675 L717,450.735675 L717,552.36414 L749.028297,552.36414 L749.028297,492.874307 L788.684841,492.874307 L788.684841,552.36414 L845.789528,552.36414 L845.789528,623 L867,545 L867.238965,545.014913 L850.789528,486.171679 L872.320279,486.171679 L850.789528,409.151472 L871.480973,409.151472 L850.789528,335.126377 L872.320279,335.126377 L850.789528,254.491619 L907.468711,253.955775 L907.468711,231.423973 L899.760651,207.477437 L909.281602,207.477437 L909.281602,188.85517 L912.568687,188.85517 L912.568687,183.197077 L904.722967,173.833969 L912.568687,173.833969 L920.825047,173.833969 L925,121 L928.666399,173.833969 L933.628546,173.833969 L945.472322,173.833969 L937.628546,183.197077 L937.628546,188.85517 L940.805098,188.85517 L940.805098,207.477437 L949.514208,207.477437 L942.61858,231.423973 L942.61858,253.95662 L1002.61392,254.491619 L981.084519,335.128912 L1002.61392,335.128912 L981.922811,409.154007 L1002.61392,409.154007 L981.084519,486.174215 L1002.61392,486.174215 L984.127127,552.309666 L985,552.36414 L1012.38432,650 L1012.73196,552.36414 L1014.38432,450.735675 L1014.38432,397.855823 L1045.77908,397.855823 L1045.77908,450.735675 L1118.48275,450.735675 L1118.48275,530.055453 L1158.96547,530.055453 L1158.96547,505.268022 L1183.75081,505.268022 L1183.75081,530.055453 L1224,530.055453 L1224,368.937153 L1248.78534,368.937153 L1248.78534,307.794824 L1296,307.794824 L1296,692 L1224.23353,692 Z" mask="url(#bg-new-com2-b)"/>
    <path fill="#7380C9" fill-rule="nonzero" d="M56,408 L22,408 L22,388 L56,388 L56,408 Z M56,446 L22,446 L22,426 L56,426 L56,446 Z M56,486 L22,486 L22,466 L56,466 L56,486 Z M56,524 L22,524 L22,504 L56,504 L56,524 Z M56,563 L22,563 L22,543 L56,543 L56,563 Z M56,602 L22,602 L22,582 L56,582 L56,602 Z M56,640 L22,640 L22,620 L56,620 L56,640 Z M85,572 L166,572 L166,582 L85,582 L85,572 Z M85,587 L166,587 L166,597 L85,597 L85,587 Z M85,601 L166,601 L166,611 L85,611 L85,601 Z M297,576 L378,576 L378,586 L297,586 L297,576 Z M297,592 L378,592 L378,602 L297,602 L297,592 Z M297,607 L378,607 L378,617 L297,617 L297,607 Z M85,617 L166,617 L166,627 L85,627 L85,617 Z M85,632 L166,632 L166,642 L85,642 L85,632 Z M85,646 L166,646 L166,656 L85,656 L85,646 Z M196,469 L218,469 L218,498 L196,498 L196,469 Z M267,498 L245,498 L245,469 L267,469 L267,498 Z M196,516 L218,516 L218,545 L196,545 L196,516 Z M267,545 L245,545 L245,516 L267,516 L267,545 Z M196,562 L218,562 L218,591 L196,591 L196,562 Z M267,591 L245,591 L245,562 L267,562 L267,591 Z M196,609 L218,609 L218,638 L196,638 L196,609 Z M267,638 L245,638 L245,609 L267,609 L267,638 Z M390,315 L420,315 L420,353 L390,353 L390,315 Z M390,369 L420,369 L420,407 L390,407 L390,369 Z M390,423 L420,423 L420,461 L390,461 L390,423 Z M390,477 L420,477 L420,515 L390,515 L390,477 Z M390,533 L420,533 L420,571 L390,571 L390,533 Z M390,587 L420,587 L420,625 L390,625 L390,587 Z M484,392 L594,392 L594,424 L484,424 L484,392 Z M484,462 L594,462 L594,494 L484,494 L484,462 Z M485,530 L595,530 L595,562 L485,562 L485,530 Z M485,600 L595,600 L595,632 L485,632 L485,600 Z M644,469 L682,469 L682,517 L644,517 L644,469 Z M644,539 L682,539 L682,587 L644,587 L644,539 Z M644,609 L682,609 L682,657 L644,657 L644,609 Z M1030.40002,469 L1052.40002,469 L1052.40002,498 L1030.40002,498 L1030.40002,469 Z M1101.40002,498 L1079.40002,498 L1079.40002,469 L1101.40002,469 L1101.40002,498 Z M926,577 C919.924868,577 915,572.075132 915,566 C915,559.924868 919.924868,555 926,555 C932.075132,555 937,559.924868 937,566 C937,572.075132 932.075132,577 926,577 Z M1240,388 L1274,388 L1274,408 L1240,408 L1240,388 Z M1240,426 L1274,426 L1274,446 L1240,446 L1240,426 Z M1240,466 L1274,466 L1274,486 L1240,486 L1240,466 Z M1240,504 L1274,504 L1274,524 L1240,524 L1240,504 Z M1240,543 L1274,543 L1274,563 L1240,563 L1240,543 Z M1240,582 L1274,582 L1274,602 L1240,602 L1240,582 Z M1240,620 L1274,620 L1274,640 L1240,640 L1240,620 Z M729.400024,572 L810.400024,572 L810.400024,582 L729.400024,582 L729.400024,572 Z M729.400024,587 L810.400024,587 L810.400024,597 L729.400024,597 L729.400024,587 Z M729.400024,601 L810.400024,601 L810.400024,611 L729.400024,611 L729.400024,601 Z M885.400024,591 L966.400024,591 L966.400024,599 L885.400024,599 L885.400024,591 Z M885.400024,607 L966.400024,607 L966.400024,615 L885.400024,615 L885.400024,607 Z M885.400024,623 L966.400024,623 L966.400024,631 L885.400024,631 L885.400024,623 Z M885.400024,639 L966.400024,639 L966.400024,647 L885.400024,647 L885.400024,639 Z M1131.40002,576 L1209.40002,576 L1209.40002,586 L1131.40002,586 L1131.40002,576 Z M1131.40002,592 L1209.40002,592 L1209.40002,602 L1131.40002,602 L1131.40002,592 Z M1131.40002,607 L1209.40002,607 L1209.40002,617 L1131.40002,617 L1131.40002,607 Z M729.400024,617 L810.400024,617 L810.400024,627 L729.400024,627 L729.400024,617 Z M869.400024,503 L983.400024,503 L981.400024,511 L871.400024,511 L869.400024,503 Z M729.400024,632 L810.400024,632 L810.400024,642 L729.400024,642 L729.400024,632 Z M872.400024,519 L979.400024,519 L977.400024,527 L874.400024,527 L872.400024,519 Z M729.400024,646 L810.400024,646 L810.400024,656 L729.400024,656 L729.400024,646 Z M875.400024,535 L976.400024,535 L974.400024,543 L877.400024,543 L875.400024,535 Z M869.400024,428 L983.400024,428 L981.400024,436 L871.400024,436 L869.400024,428 Z M872.400024,444 L979.400024,444 L977.400024,452 L874.400024,452 L872.400024,444 Z M875.400024,460 L976.400024,460 L974.400024,468 L877.400024,468 L875.400024,460 Z M869.400024,354 L983.400024,354 L981.400024,362 L871.400024,362 L869.400024,354 Z M872.400024,370 L979.400024,370 L977.400024,378 L874.400024,378 L872.400024,370 Z M875.400024,386 L976.400024,386 L974.400024,394 L877.400024,394 L875.400024,386 Z M869.400024,276 L983.400024,276 L981.400024,284 L871.400024,284 L869.400024,276 Z M872.400024,292 L979.400024,292 L977.400024,300 L874.400024,300 L872.400024,292 Z M875.400024,308 L976.400024,308 L974.400024,316 L877.400024,316 L875.400024,308 Z M1030.40002,516 L1052.40002,516 L1052.40002,545 L1030.40002,545 L1030.40002,516 Z M1101.40002,545 L1079.40002,545 L1079.40002,516 L1101.40002,516 L1101.40002,545 Z M1030.40002,562 L1052.40002,562 L1052.40002,591 L1030.40002,591 L1030.40002,562 Z M1101.40002,591 L1079.40002,591 L1079.40002,562 L1101.40002,562 L1101.40002,591 Z M1030.40002,609 L1052.40002,609 L1052.40002,638 L1030.40002,638 L1030.40002,609 Z M1101.40002,638 L1079.40002,638 L1079.40002,609 L1101.40002,609 L1101.40002,638 Z M1469.40002,539 L1507.40002,539 L1507.40002,587 L1469.40002,587 L1469.40002,539 Z M1469.40002,609 L1507.40002,609 L1507.40002,657 L1469.40002,657 L1469.40002,609 Z" mask="url(#bg-new-com2-b)"/>
    <path fill="#252223" fill-rule="nonzero" d="M128.856232,261.001563 C130.665494,260.926074 132.373758,261.766578 133.303039,263.189492 C134.23232,264.612406 134.23232,266.387594 133.303039,267.810508 C132.373758,269.233422 130.665494,270.073926 128.856232,269.998437 L119.026963,269.998437 C120.836224,269.922947 122.544489,270.763452 123.47377,272.186366 C124.403051,273.60928 124.403051,275.384467 123.47377,276.807381 C122.544489,278.230295 120.836224,279.0708 119.026963,278.99531 L62.1437678,278.99531 C60.3345065,279.0708 58.626242,278.230295 57.6969609,276.807381 C56.7676797,275.384467 56.7676797,273.60928 57.6969609,272.186366 C58.626242,270.763452 60.3345065,269.922947 62.1437678,269.998437 L71.973037,269.998437 C70.1637756,270.073926 68.4555111,269.233422 67.52623,267.810508 C66.5969489,266.387594 66.5969489,264.612406 67.52623,263.189492 C68.4555111,261.766578 70.1637756,260.926074 71.973037,261.001563 L64.9506723,261.001563 C62.3234164,260.891944 60.2549641,258.910389 60.2549641,256.503126 C60.2549641,254.095864 62.3234164,252.114309 64.9506723,252.00469 L121.833867,252.00469 C123.643129,251.9292 125.351393,252.769705 126.280674,254.192619 C127.209956,255.615533 127.209956,257.39072 126.280674,258.813634 C125.351393,260.236548 123.643129,261.077053 121.833867,261.001563 L128.856232,261.001563 Z M360.856232,400.001563 C362.665494,399.926074 364.373758,400.766578 365.303039,402.189492 C366.23232,403.612406 366.23232,405.387594 365.303039,406.810508 C364.373758,408.233422 362.665494,409.073926 360.856232,408.998437 L351.026963,408.998437 C352.836224,408.922947 354.544489,409.763452 355.47377,411.186366 C356.403051,412.60928 356.403051,414.384467 355.47377,415.807381 C354.544489,417.230295 352.836224,418.0708 351.026963,417.99531 L294.143768,417.99531 C292.334506,418.0708 290.626242,417.230295 289.696961,415.807381 C288.76768,414.384467 288.76768,412.60928 289.696961,411.186366 C290.626242,409.763452 292.334506,408.922947 294.143768,408.998437 L303.973037,408.998437 C302.163776,409.073926 300.455511,408.233422 299.52623,406.810508 C298.596949,405.387594 298.596949,403.612406 299.52623,402.189492 C300.455511,400.766578 302.163776,399.926074 303.973037,400.001563 L296.950672,400.001563 C294.323416,399.891944 292.254964,397.910389 292.254964,395.503126 C292.254964,393.095864 294.323416,391.114309 296.950672,391.00469 L353.833867,391.00469 C355.643129,390.9292 357.351393,391.769705 358.280674,393.192619 C359.209956,394.615533 359.209956,396.39072 358.280674,397.813634 C357.351393,399.236548 355.643129,400.077053 353.833867,400.001563 L360.856232,400.001563 Z M728.257045,232.668519 C729.925325,232.57905 731.500478,233.575204 732.357348,235.26162 C733.214217,236.948037 733.214217,239.051963 732.357348,240.73838 C731.500478,242.424796 729.925325,243.42095 728.257045,243.331481 L719.193693,243.331481 C721.616228,243.4614 723.523502,245.809909 723.523502,248.662961 C723.523502,251.516014 721.616228,253.864523 719.193693,253.994442 L666.742955,253.994442 C665.074675,254.083911 663.499522,253.087757 662.642652,251.401341 C661.785783,249.714924 661.785783,247.610998 662.642652,245.924582 C663.499522,244.238165 665.074675,243.242012 666.742955,243.331481 L675.806307,243.331481 C674.138027,243.42095 672.562874,242.424796 671.706004,240.73838 C670.849135,239.051963 670.849135,236.948037 671.706004,235.26162 C672.562874,233.575204 674.138027,232.57905 675.806307,232.668519 L669.331139,232.668519 C666.908605,232.5386 665.001331,230.190091 665.001331,227.337039 C665.001331,224.483986 666.908605,222.135477 669.331139,222.005558 L721.781878,222.005558 C723.450158,221.916089 725.025311,222.912243 725.88218,224.598659 C726.73905,226.285076 726.73905,228.389002 725.88218,230.075418 C725.025311,231.761835 723.450158,232.757988 721.781878,232.668519 L728.257045,232.668519 Z M351.257045,182.00139 C352.925325,181.934288 354.500478,182.681403 355.357348,183.946215 C356.214217,185.211028 356.214217,186.788972 355.357348,188.053785 C354.500478,189.318597 352.925325,190.065712 351.257045,189.99861 L342.193693,189.99861 C344.616228,190.09605 346.523502,191.857432 346.523502,193.997221 C346.523502,196.13701 344.616228,197.898392 342.193693,197.995831 L289.742955,197.995831 C288.074675,198.062933 286.499522,197.315818 285.642652,196.051006 C284.785783,194.786193 284.785783,193.208249 285.642652,191.943436 C286.499522,190.678624 288.074675,189.931509 289.742955,189.99861 L298.806307,189.99861 C297.138027,190.065712 295.562874,189.318597 294.706004,188.053785 C293.849135,186.788972 293.849135,185.211028 294.706004,183.946215 C295.562874,182.681403 297.138027,181.934288 298.806307,182.00139 L292.331139,182.00139 C289.908605,181.90395 288.001331,180.142568 288.001331,178.002779 C288.001331,175.86299 289.908605,174.101608 292.331139,174.004169 L344.781878,174.004169 C346.450158,173.937067 348.025311,174.684182 348.88218,175.948994 C349.73905,177.213807 349.73905,178.791751 348.88218,180.056564 C348.025311,181.321376 346.450158,182.068491 344.781878,182.00139 L351.257045,182.00139 Z M1105.12265,214.668519 C1106.97891,214.57905 1108.73154,215.575204 1109.68496,217.26162 C1110.63838,218.948037 1110.63838,221.051963 1109.68496,222.73838 C1108.73154,224.424796 1106.97891,225.42095 1105.12265,225.331481 L1095.03808,225.331481 C1096.89433,225.242012 1098.64697,226.238165 1099.60039,227.924582 C1100.5538,229.610998 1100.5538,231.714924 1099.60039,233.401341 C1098.64697,235.087757 1096.89433,236.083911 1095.03808,235.994442 L1036.6774,235.994442 C1034.82114,236.083911 1033.06851,235.087757 1032.11509,233.401341 C1031.16167,231.714924 1031.16167,229.610998 1032.11509,227.924582 C1033.06851,226.238165 1034.82114,225.242012 1036.6774,225.331481 L1046.76197,225.331481 C1044.90572,225.42095 1043.15308,224.424796 1042.19966,222.73838 C1041.24624,221.051963 1041.24624,218.948037 1042.19966,217.26162 C1043.15308,215.575204 1044.90572,214.57905 1046.76197,214.668519 L1039.55721,214.668519 C1036.86171,214.5386 1034.73953,212.190091 1034.73953,209.337039 C1034.73953,206.483986 1036.86171,204.135477 1039.55721,204.005558 L1097.91789,204.005558 C1099.77414,203.916089 1101.52678,204.912243 1102.4802,206.598659 C1103.43362,208.285076 1103.43362,210.389002 1102.4802,212.075418 C1101.52678,213.761835 1099.77414,214.757988 1097.91789,214.668519 L1105.12265,214.668519 Z M1196.12265,386.668519 C1197.97891,386.57905 1199.73154,387.575204 1200.68496,389.26162 C1201.63838,390.948037 1201.63838,393.051963 1200.68496,394.73838 C1199.73154,396.424796 1197.97891,397.42095 1196.12265,397.331481 L1186.03808,397.331481 C1187.89433,397.242012 1189.64697,398.238165 1190.60039,399.924582 C1191.5538,401.610998 1191.5538,403.714924 1190.60039,405.401341 C1189.64697,407.087757 1187.89433,408.083911 1186.03808,407.994442 L1127.6774,407.994442 C1125.82114,408.083911 1124.06851,407.087757 1123.11509,405.401341 C1122.16167,403.714924 1122.16167,401.610998 1123.11509,399.924582 C1124.06851,398.238165 1125.82114,397.242012 1127.6774,397.331481 L1137.76197,397.331481 C1135.90572,397.42095 1134.15308,396.424796 1133.19966,394.73838 C1132.24624,393.051963 1132.24624,390.948037 1133.19966,389.26162 C1134.15308,387.575204 1135.90572,386.57905 1137.76197,386.668519 L1130.55721,386.668519 C1127.86171,386.5386 1125.73953,384.190091 1125.73953,381.337039 C1125.73953,378.483986 1127.86171,376.135477 1130.55721,376.005558 L1188.91789,376.005558 C1190.77414,375.916089 1192.52678,376.912243 1193.4802,378.598659 C1194.43362,380.285076 1194.43362,382.389002 1193.4802,384.075418 C1192.52678,385.761835 1190.77414,386.757988 1188.91789,386.668519 L1196.12265,386.668519 Z" mask="url(#bg-new-com2-b)" opacity=".1"/>
  </g>
</svg>
