<?xml version="1.0" encoding="UTF-8"?>
<svg width="1280px" height="519px" viewBox="0 0 1280 519" version="1.1" xmlns="http://www.w3.org/2000/svg" xmlns:xlink="http://www.w3.org/1999/xlink">
    <!-- Generator: Sketch 50.2 (55047) - http://www.bohemiancoding.com/sketch -->
    <title>bg</title>
    <desc>Created with Sketch.</desc>
    <defs>
        <rect id="path-1" x="0" y="0" width="1280" height="640"></rect>
    </defs>
    <g id="Page-1" stroke="none" stroke-width="1" fill="none" fill-rule="evenodd">
        <g id="spec---intro+speaker-copy-2" transform="translate(0.000000, -121.000000)">
            <g id="Intro">
                <g id="bg">
                    <mask id="mask-2" fill="white">
                        <use xlink:href="#path-1"></use>
                    </mask>
                    <g id="mask" opacity="0"></g>
                    <g id="left" opacity="0.911495536" mask="url(#mask-2)" fill-rule="nonzero">
                        <g transform="translate(-56.000000, 198.000000)">
                            <polygon id="Shape" fill="#3F51B5" points="751.82199 252.735675 751.82199 199.855823 720.427225 199.855823 720.427225 252.735675 683.249215 252.735675 683.249215 170.937153 655.98534 170.937153 655.98534 109.794824 633.678534 109.794824 633.678534 47 587.412565 47 587.412565 109.794824 565.105759 109.794824 565.105759 170.937153 538.668063 170.937153 538.668063 97.4011091 523.796859 97.4011091 523.796859 60.219963 514.708901 60.219963 514.708901 97.4011091 461.833508 97.4011091 461.833508 332.055453 421.350785 332.055453 421.350785 307.268022 396.565445 307.268022 396.565445 332.055453 356.082723 332.055453 356.082723 252.735675 283.379058 252.735675 283.379058 199.855823 251.984293 199.855823 251.984293 252.735675 250.331937 252.735675 250.331937 354.36414 217.284817 354.36414 217.284817 294.874307 177.628272 294.874307 177.628272 354.36414 144.581152 354.36414 144.581152 170.937153 118.969634 170.937153 118.969634 109.794824 24.7853403 109.794824 24.7853403 170.937153 0 170.937153 0 494 144.581152 494 250.331937 494 356.082723 494 461.833508 494 538.668063 494 683.249215 494 789 494 789 252.735675"></polygon>
                            <rect id="Rectangle-path" fill="#FFFFFF" opacity="0.200000003" transform="translate(111.000000, 200.000000) rotate(-180.000000) translate(-111.000000, -200.000000) " x="94" y="190" width="34" height="20"></rect>
                            <rect id="Rectangle-path" fill="#FFFFFF" opacity="0.200000003" transform="translate(111.000000, 238.000000) rotate(-180.000000) translate(-111.000000, -238.000000) " x="94" y="228" width="34" height="20"></rect>
                            <rect id="Rectangle-path" fill="#FFFFFF" opacity="0.200000003" transform="translate(111.000000, 278.000000) rotate(-180.000000) translate(-111.000000, -278.000000) " x="94" y="268" width="34" height="20"></rect>
                            <rect id="Rectangle-path" fill="#FFFFFF" opacity="0.200000003" transform="translate(111.000000, 316.000000) rotate(-180.000000) translate(-111.000000, -316.000000) " x="94" y="306" width="34" height="20"></rect>
                            <rect id="Rectangle-path" fill="#FFFFFF" opacity="0.200000003" transform="translate(111.000000, 355.000000) rotate(-180.000000) translate(-111.000000, -355.000000) " x="94" y="345" width="34" height="20"></rect>
                            <rect id="Rectangle-path" fill="#FFFFFF" opacity="0.200000003" transform="translate(111.000000, 394.000000) rotate(-180.000000) translate(-111.000000, -394.000000) " x="94" y="384" width="34" height="20"></rect>
                            <rect id="Rectangle-path" fill="#FFFFFF" opacity="0.200000003" transform="translate(111.000000, 432.000000) rotate(-180.000000) translate(-111.000000, -432.000000) " x="94" y="422" width="34" height="20"></rect>
                            <rect id="Rectangle-path" fill="#FFFFFF" opacity="0.200000003" x="157" y="374" width="81" height="10"></rect>
                            <rect id="Rectangle-path" fill="#FFFFFF" opacity="0.200000003" x="157" y="389" width="81" height="10"></rect>
                            <rect id="Rectangle-path" fill="#FFFFFF" opacity="0.200000003" x="157" y="403" width="81" height="10"></rect>
                            <rect id="Rectangle-path" fill="#FFFFFF" opacity="0.200000003" x="369" y="378" width="81" height="10"></rect>
                            <rect id="Rectangle-path" fill="#FFFFFF" opacity="0.200000003" x="369" y="394" width="81" height="10"></rect>
                            <rect id="Rectangle-path" fill="#FFFFFF" opacity="0.200000003" x="369" y="409" width="81" height="10"></rect>
                            <rect id="Rectangle-path" fill="#FFFFFF" opacity="0.200000003" x="157" y="419" width="81" height="10"></rect>
                            <rect id="Rectangle-path" fill="#FFFFFF" opacity="0.200000003" x="157" y="434" width="81" height="10"></rect>
                            <rect id="Rectangle-path" fill="#FFFFFF" opacity="0.200000003" x="268" y="271" width="22" height="29"></rect>
                            <rect id="Rectangle-path" fill="#FFFFFF" opacity="0.200000003" transform="translate(328.000000, 285.500000) rotate(-180.000000) translate(-328.000000, -285.500000) " x="317" y="271" width="22" height="29"></rect>
                            <rect id="Rectangle-path" fill="#FFFFFF" opacity="0.200000003" x="268" y="318" width="22" height="29"></rect>
                            <rect id="Rectangle-path" fill="#FFFFFF" opacity="0.200000003" transform="translate(328.000000, 332.500000) rotate(-180.000000) translate(-328.000000, -332.500000) " x="317" y="318" width="22" height="29"></rect>
                            <rect id="Rectangle-path" fill="#FFFFFF" opacity="0.200000003" x="268" y="364" width="22" height="29"></rect>
                            <rect id="Rectangle-path" fill="#FFFFFF" opacity="0.200000003" transform="translate(328.000000, 378.500000) rotate(-180.000000) translate(-328.000000, -378.500000) " x="317" y="364" width="22" height="29"></rect>
                            <rect id="Rectangle-path" fill="#FFFFFF" opacity="0.200000003" x="268" y="411" width="22" height="29"></rect>
                            <rect id="Rectangle-path" fill="#FFFFFF" opacity="0.200000003" transform="translate(328.000000, 425.500000) rotate(-180.000000) translate(-328.000000, -425.500000) " x="317" y="411" width="22" height="29"></rect>
                            <rect id="Rectangle-path" fill="#FFFFFF" opacity="0.200000003" x="462" y="117" width="30" height="38"></rect>
                            <rect id="Rectangle-path" fill="#FFFFFF" opacity="0.200000003" x="462" y="171" width="30" height="38"></rect>
                            <rect id="Rectangle-path" fill="#FFFFFF" opacity="0.200000003" x="462" y="225" width="30" height="38"></rect>
                            <rect id="Rectangle-path" fill="#FFFFFF" opacity="0.200000003" x="462" y="279" width="30" height="38"></rect>
                            <rect id="Rectangle-path" fill="#FFFFFF" opacity="0.200000003" x="462" y="335" width="30" height="38"></rect>
                            <rect id="Rectangle-path" fill="#FFFFFF" opacity="0.200000003" x="462" y="389" width="30" height="38"></rect>
                            <rect id="Rectangle-path" fill="#FFFFFF" opacity="0.200000003" x="556" y="194" width="110" height="32"></rect>
                            <rect id="Rectangle-path" fill="#FFFFFF" opacity="0.200000003" x="556" y="264" width="110" height="32"></rect>
                            <rect id="Rectangle-path" fill="#FFFFFF" opacity="0.200000003" x="557" y="332" width="110" height="32"></rect>
                            <rect id="Rectangle-path" fill="#FFFFFF" opacity="0.200000003" x="557" y="402" width="110" height="32"></rect>
                            <rect id="Rectangle-path" fill="#FFFFFF" opacity="0.200000003" x="716" y="271" width="38" height="48"></rect>
                            <rect id="Rectangle-path" fill="#FFFFFF" opacity="0.200000003" x="716" y="341" width="38" height="48"></rect>
                            <rect id="Rectangle-path" fill="#FFFFFF" opacity="0.200000003" x="716" y="411" width="38" height="48"></rect>
                            <path d="M200.856232,71.0015632 L193.833867,71.0015632 C195.643129,71.0770526 197.351393,70.2365481 198.280674,68.8136341 C199.209956,67.3907202 199.209956,65.6155326 198.280674,64.1926186 C197.351393,62.7697046 195.643129,61.9292001 193.833867,62.0046896 L136.950672,62.0046896 C134.323416,62.1143089 132.254964,64.0958635 132.254964,66.5031264 C132.254964,68.9103892 134.323416,70.8919438 136.950672,71.0015632 L143.973037,71.0015632 C142.163776,70.9260737 140.455511,71.7665783 139.52623,73.1894922 C138.596949,74.6124062 138.596949,76.3875938 139.52623,77.8105078 C140.455511,79.2334217 142.163776,80.0739263 143.973037,79.9984368 L134.143768,79.9984368 C132.334506,79.9229474 130.626242,80.7634519 129.696961,82.1863659 C128.76768,83.6092798 128.76768,85.3844674 129.696961,86.8073814 C130.626242,88.2302954 132.334506,89.0707999 134.143768,88.9953104 L191.026963,88.9953104 C192.836224,89.0707999 194.544489,88.2302954 195.47377,86.8073814 C196.403051,85.3844674 196.403051,83.6092798 195.47377,82.1863659 C194.544489,80.7634519 192.836224,79.9229474 191.026963,79.9984368 L200.856232,79.9984368 C202.665494,80.0739263 204.373758,79.2334217 205.303039,77.8105078 C206.23232,76.3875938 206.23232,74.6124062 205.303039,73.1894922 C204.373758,71.7665783 202.665494,70.9260737 200.856232,71.0015632 Z" id="Shape" fill="#252223" opacity="0.1"></path>
                            <path d="M448.856232,202.001563 L441.833867,202.001563 C443.643129,202.077053 445.351393,201.236548 446.280674,199.813634 C447.209956,198.39072 447.209956,196.615533 446.280674,195.192619 C445.351393,193.769705 443.643129,192.9292 441.833867,193.00469 L384.950672,193.00469 C382.323416,193.114309 380.254964,195.095864 380.254964,197.503126 C380.254964,199.910389 382.323416,201.891944 384.950672,202.001563 L391.973037,202.001563 C390.163776,201.926074 388.455511,202.766578 387.52623,204.189492 C386.596949,205.612406 386.596949,207.387594 387.52623,208.810508 C388.455511,210.233422 390.163776,211.073926 391.973037,210.998437 L382.143768,210.998437 C380.334506,210.922947 378.626242,211.763452 377.696961,213.186366 C376.76768,214.60928 376.76768,216.384467 377.696961,217.807381 C378.626242,219.230295 380.334506,220.0708 382.143768,219.99531 L439.026963,219.99531 C440.836224,220.0708 442.544489,219.230295 443.47377,217.807381 C444.403051,216.384467 444.403051,214.60928 443.47377,213.186366 C442.544489,211.763452 440.836224,210.922947 439.026963,210.998437 L448.856232,210.998437 C450.665494,211.073926 452.373758,210.233422 453.303039,208.810508 C454.23232,207.387594 454.23232,205.612406 453.303039,204.189492 C452.373758,202.766578 450.665494,201.926074 448.856232,202.001563 Z" id="Shape" fill="#252223" opacity="0.1"></path>
                            <path d="M792.257045,18.6685193 L785.781878,18.6685193 C787.450158,18.7579883 789.025311,17.7618348 789.88218,16.0754182 C790.73905,14.3890017 790.73905,12.2850757 789.88218,10.5986591 C789.025311,8.91224254 787.450158,7.91608903 785.781878,8.00555801 L733.331139,8.00555801 C730.908605,8.13547727 729.001331,10.4839864 729.001331,13.3370387 C729.001331,16.190091 730.908605,18.5386001 733.331139,18.6685193 L739.806307,18.6685193 C738.138027,18.5790504 736.562874,19.5752039 735.706004,21.2616204 C734.849135,22.948037 734.849135,25.051963 735.706004,26.7383796 C736.562874,28.4247961 738.138027,29.4209496 739.806307,29.3314807 L730.742955,29.3314807 C729.074675,29.2420117 727.499522,30.2381652 726.642652,31.9245818 C725.785783,33.6109983 725.785783,35.7149243 726.642652,37.4013409 C727.499522,39.0877575 729.074675,40.083911 730.742955,39.994442 L783.193693,39.994442 C785.616228,39.8645227 787.523502,37.5160136 787.523502,34.6629613 C787.523502,31.809909 785.616228,29.4613999 783.193693,29.3314807 L792.257045,29.3314807 C793.925325,29.4209496 795.500478,28.4247961 796.357348,26.7383796 C797.214217,25.051963 797.214217,22.948037 796.357348,21.2616204 C795.500478,19.5752039 793.925325,18.5790504 792.257045,18.6685193 Z" id="Shape" fill="#252223" opacity="0.1"></path>
                            <path d="M439.257045,8.0013895 L432.781878,8.0013895 C434.450158,8.06849124 436.025311,7.3213761 436.88218,6.05656368 C437.73905,4.79175127 437.73905,3.21380674 436.88218,1.94899433 C436.025311,0.684181908 434.450158,-0.0629332307 432.781878,0.00416850533 L380.331139,0.00416850533 C377.908605,0.101607954 376.001331,1.86298979 376.001331,4.002779 C376.001331,6.14256821 377.908605,7.90395005 380.331139,8.0013895 L386.806307,8.0013895 C385.138027,7.93428777 383.562874,8.6814029 382.706004,9.94621532 C381.849135,11.2110277 381.849135,12.7889723 382.706004,14.0537847 C383.562874,15.3185971 385.138027,16.0657122 386.806307,15.9986105 L377.742955,15.9986105 C376.074675,15.9315088 374.499522,16.6786239 373.642652,17.9434363 C372.785783,19.2082487 372.785783,20.7861933 373.642652,22.0510057 C374.499522,23.3158181 376.074675,24.0629332 377.742955,23.9958315 L430.193693,23.9958315 C432.616228,23.898392 434.523502,22.1370102 434.523502,19.997221 C434.523502,17.8574318 432.616228,16.0960499 430.193693,15.9986105 L439.257045,15.9986105 C440.925325,16.0657122 442.500478,15.3185971 443.357348,14.0537847 C444.214217,12.7889723 444.214217,11.2110277 443.357348,9.94621532 C442.500478,8.6814029 440.925325,7.93428777 439.257045,8.0013895 Z" id="Shape-Copy" fill="#252223" opacity="0.1"></path>
                        </g>
                    </g>
                    <g id="right" opacity="0.911495536" mask="url(#mask-2)">
                        <g transform="translate(732.400024, 121.000000)">
                            <path d="M268.727102,431.309666 L269.599976,431.36414 L296.984293,529 L297.331937,431.36414 L298.984293,329.735675 L298.984293,276.855823 L330.379058,276.855823 L330.379058,329.735675 L403.082723,329.735675 L403.082723,409.055453 L443.565445,409.055453 L443.565445,384.268022 L468.350785,384.268022 L468.350785,409.055453 L508.833508,409.055453 L508.833508,174.401109 L561.708901,174.401109 L561.708901,137.219963 L570.796859,137.219963 L570.796859,174.401109 L585.668063,174.401109 L585.668063,247.937153 L612.105759,247.937153 L612.105759,186.794824 L634.412565,186.794824 L634.412565,124 L680.678534,124 L680.678534,186.794824 L702.98534,186.794824 L702.98534,247.937153 L730.249215,247.937153 L730.249215,329.735675 L767.427225,329.735675 L767.427225,276.855823 L619.82199,276.855823 L798.82199,329.735675 L836,329.735675 L836,571 L730.249215,571 L585.668063,571 L508.833508,571 L403.082723,571 L297.331937,571 L0.581151832,571 L0.581151832,431.36414 L33.6282723,431.36414 L33.6282723,371.874307 L73.2848168,371.874307 L73.2848168,431.36414 L130.389503,431.36414 L130.389503,502 L151.599976,424 L151.83894,424.014913 L135.389503,365.171679 L156.920255,365.171679 L135.389503,288.151472 L156.080949,288.151472 L135.389503,214.126377 L156.920255,214.126377 L135.389503,133.491619 L192.068687,132.955775 L192.068687,110.423973 L184.360626,86.4774368 L193.881578,86.4774368 L193.881578,67.8551702 L197.168663,67.8551702 L197.168663,62.1970773 L189.322943,52.833969 L197.168663,52.833969 L205.425022,52.833969 L209.599976,0 L213.266374,52.833969 L218.228522,52.833969 L230.072298,52.833969 L222.228522,62.1970773 L222.228522,67.8551702 L225.405074,67.8551702 L225.405074,86.4774368 L234.114183,86.4774368 L227.218556,110.423973 L227.218556,132.95662 L287.213894,133.491619 L265.684495,214.128912 L287.213894,214.128912 L266.522787,288.154007 L287.213894,288.154007 L265.684495,365.174215 L287.213894,365.174215 L268.727102,431.309666 Z" id="Combined-Shape" fill="#3F51B5" fill-rule="evenodd"></path>
                            <rect id="Rectangle-path" fill="#FFFFFF" fill-rule="nonzero" opacity="0.200000018" x="14" y="451" width="81" height="10"></rect>
                            <rect id="Rectangle-path" fill="#FFFFFF" fill-rule="nonzero" opacity="0.200000018" x="14" y="466" width="81" height="10"></rect>
                            <rect id="Rectangle-path" fill="#FFFFFF" fill-rule="nonzero" opacity="0.200000018" x="14" y="480" width="81" height="10"></rect>
                            <rect id="Rectangle-path-Copy-3" fill="#FFFFFF" fill-rule="nonzero" opacity="0.200000018" x="170" y="470" width="81" height="8"></rect>
                            <rect id="Rectangle-path-Copy-2" fill="#FFFFFF" fill-rule="nonzero" opacity="0.200000018" x="170" y="486" width="81" height="8"></rect>
                            <rect id="Rectangle-path-Copy" fill="#FFFFFF" fill-rule="nonzero" opacity="0.200000018" x="170" y="502" width="81" height="8"></rect>
                            <rect id="Rectangle-path-Copy-17" fill="#FFFFFF" fill-rule="nonzero" opacity="0.200000018" x="170" y="518" width="81" height="8"></rect>
                            <rect id="Rectangle-path" fill="#FFFFFF" fill-rule="nonzero" opacity="0.200000018" x="416" y="455" width="78" height="10"></rect>
                            <rect id="Rectangle-path" fill="#FFFFFF" fill-rule="nonzero" opacity="0.200000018" x="416" y="471" width="78" height="10"></rect>
                            <rect id="Rectangle-path" fill="#FFFFFF" fill-rule="nonzero" opacity="0.200000018" x="416" y="486" width="78" height="10"></rect>
                            <rect id="Rectangle-path" fill="#FFFFFF" fill-rule="nonzero" opacity="0.200000018" x="14" y="496" width="81" height="10"></rect>
                            <polygon id="Rectangle-path-Copy-4" fill="#FFFFFF" fill-rule="nonzero" opacity="0.200000018" points="154 382 268 382 266 390 156 390"></polygon>
                            <rect id="Rectangle-path" fill="#FFFFFF" fill-rule="nonzero" opacity="0.200000018" x="14" y="511" width="81" height="10"></rect>
                            <polygon id="Rectangle-path-Copy-5" fill="#FFFFFF" fill-rule="nonzero" opacity="0.200000018" points="157 398 264 398 262 406 159 406"></polygon>
                            <polygon id="Rectangle-path-Copy-6" fill="#FFFFFF" fill-rule="nonzero" opacity="0.200000018" points="160 414 261 414 259 422 162 422"></polygon>
                            <polygon id="Rectangle-path-Copy-9" fill="#FFFFFF" fill-rule="nonzero" opacity="0.200000018" points="154 307 268 307 266 315 156 315"></polygon>
                            <polygon id="Rectangle-path-Copy-8" fill="#FFFFFF" fill-rule="nonzero" opacity="0.200000018" points="157 323 264 323 262 331 159 331"></polygon>
                            <polygon id="Rectangle-path-Copy-7" fill="#FFFFFF" fill-rule="nonzero" opacity="0.200000018" points="160 339 261 339 259 347 162 347"></polygon>
                            <polygon id="Rectangle-path-Copy-12" fill="#FFFFFF" fill-rule="nonzero" opacity="0.200000018" points="154 233 268 233 266 241 156 241"></polygon>
                            <polygon id="Rectangle-path-Copy-11" fill="#FFFFFF" fill-rule="nonzero" opacity="0.200000018" points="157 249 264 249 262 257 159 257"></polygon>
                            <polygon id="Rectangle-path-Copy-10" fill="#FFFFFF" fill-rule="nonzero" opacity="0.200000018" points="160 265 261 265 259 273 162 273"></polygon>
                            <polygon id="Rectangle-path-Copy-15" fill="#FFFFFF" fill-rule="nonzero" opacity="0.200000018" points="154 155 268 155 266 163 156 163"></polygon>
                            <polygon id="Rectangle-path-Copy-14" fill="#FFFFFF" fill-rule="nonzero" opacity="0.200000018" points="157 171 264 171 262 179 159 179"></polygon>
                            <polygon id="Rectangle-path-Copy-13" fill="#FFFFFF" fill-rule="nonzero" opacity="0.200000018" points="160 187 261 187 259 195 162 195"></polygon>
                            <rect id="Rectangle-path" fill="#FFFFFF" fill-rule="nonzero" opacity="0.200000018" x="315" y="395" width="22" height="29"></rect>
                            <rect id="Rectangle-path" fill="#FFFFFF" fill-rule="nonzero" opacity="0.200000018" transform="translate(375.000000, 409.500000) rotate(-180.000000) translate(-375.000000, -409.500000) " x="364" y="395" width="22" height="29"></rect>
                            <rect id="Rectangle-path" fill="#FFFFFF" fill-rule="nonzero" opacity="0.200000018" x="315" y="441" width="22" height="29"></rect>
                            <rect id="Rectangle-path" fill="#FFFFFF" fill-rule="nonzero" opacity="0.200000018" transform="translate(375.000000, 455.500000) rotate(-180.000000) translate(-375.000000, -455.500000) " x="364" y="441" width="22" height="29"></rect>
                            <rect id="Rectangle-path" fill="#FFFFFF" fill-rule="nonzero" opacity="0.200000018" x="315" y="488" width="22" height="29"></rect>
                            <rect id="Rectangle-path" fill="#FFFFFF" fill-rule="nonzero" opacity="0.200000018" transform="translate(375.000000, 502.500000) rotate(-180.000000) translate(-375.000000, -502.500000) " x="364" y="488" width="22" height="29"></rect>
                            <rect id="Rectangle-path" fill="#FFFFFF" fill-rule="nonzero" opacity="0.200000018" x="509" y="194" width="30" height="38"></rect>
                            <rect id="Rectangle-path" fill="#FFFFFF" fill-rule="nonzero" opacity="0.200000018" x="509" y="248" width="30" height="38"></rect>
                            <rect id="Rectangle-path" fill="#FFFFFF" fill-rule="nonzero" opacity="0.200000018" x="509" y="302" width="30" height="38"></rect>
                            <rect id="Rectangle-path" fill="#FFFFFF" fill-rule="nonzero" opacity="0.200000018" x="509" y="356" width="30" height="38"></rect>
                            <rect id="Rectangle-path" fill="#FFFFFF" fill-rule="nonzero" opacity="0.200000018" x="509" y="412" width="30" height="38"></rect>
                            <rect id="Rectangle-path" fill="#FFFFFF" fill-rule="nonzero" opacity="0.200000018" x="509" y="466" width="30" height="38"></rect>
                            <path d="M405.722628,109.668519 L398.517864,109.668519 C400.374119,109.757988 402.126754,108.761835 403.080173,107.075418 C404.033591,105.389002 404.033591,103.285076 403.080173,101.598659 C402.126754,99.9122425 400.374119,98.916089 398.517864,99.005558 L340.157183,99.005558 C337.461687,99.1354773 335.339509,101.483986 335.339509,104.337039 C335.339509,107.190091 337.461687,109.5386 340.157183,109.668519 L347.361947,109.668519 C345.505692,109.57905 343.753057,110.575204 342.799639,112.26162 C341.84622,113.948037 341.84622,116.051963 342.799639,117.73838 C343.753057,119.424796 345.505692,120.42095 347.361947,120.331481 L337.277372,120.331481 C335.421117,120.242012 333.668482,121.238165 332.715064,122.924582 C331.761645,124.610998 331.761645,126.714924 332.715064,128.401341 C333.668482,130.087757 335.421117,131.083911 337.277372,130.994442 L395.638053,130.994442 C397.494308,131.083911 399.246943,130.087757 400.200361,128.401341 C401.15378,126.714924 401.15378,124.610998 400.200361,122.924582 C399.246943,121.238165 397.494308,120.242012 395.638053,120.331481 L405.722628,120.331481 C407.578883,120.42095 409.331518,119.424796 410.284936,117.73838 C411.238355,116.051963 411.238355,113.948037 410.284936,112.26162 C409.331518,110.575204 407.578883,109.57905 405.722628,109.668519 Z" id="Shape" fill="#252223" fill-rule="nonzero" opacity="0.1"></path>
                            <path d="M496.722628,273.668519 L489.517864,273.668519 C491.374119,273.757988 493.126754,272.761835 494.080173,271.075418 C495.033591,269.389002 495.033591,267.285076 494.080173,265.598659 C493.126754,263.912243 491.374119,262.916089 489.517864,263.005558 L431.157183,263.005558 C428.461687,263.135477 426.339509,265.483986 426.339509,268.337039 C426.339509,271.190091 428.461687,273.5386 431.157183,273.668519 L438.361947,273.668519 C436.505692,273.57905 434.753057,274.575204 433.799639,276.26162 C432.84622,277.948037 432.84622,280.051963 433.799639,281.73838 C434.753057,283.424796 436.505692,284.42095 438.361947,284.331481 L428.277372,284.331481 C426.421117,284.242012 424.668482,285.238165 423.715064,286.924582 C422.761645,288.610998 422.761645,290.714924 423.715064,292.401341 C424.668482,294.087757 426.421117,295.083911 428.277372,294.994442 L486.638053,294.994442 C488.494308,295.083911 490.246943,294.087757 491.200361,292.401341 C492.15378,290.714924 492.15378,288.610998 491.200361,286.924582 C490.246943,285.238165 488.494308,284.242012 486.638053,284.331481 L496.722628,284.331481 C498.578883,284.42095 500.331518,283.424796 501.284936,281.73838 C502.238355,280.051963 502.238355,277.948037 501.284936,276.26162 C500.331518,274.575204 498.578883,273.57905 496.722628,273.668519 Z" id="Shape" fill="#252223" fill-rule="nonzero" opacity="0.1"></path>
                            <rect id="Rectangle-path" fill="#FFFFFF" fill-rule="nonzero" opacity="0.200000018" x="315" y="348" width="22" height="29"></rect>
                            <rect id="Rectangle-path" fill="#FFFFFF" fill-rule="nonzero" opacity="0.200000018" transform="translate(375.000000, 362.500000) rotate(-180.000000) translate(-375.000000, -362.500000) " x="364" y="348" width="22" height="29"></rect>
                            <circle id="Oval-3" fill="#FFFFFF" fill-rule="evenodd" opacity="0.200000018" cx="210.599976" cy="445" r="11"></circle>
                        </g>
                    </g>
                </g>
            </g>
        </g>
    </g>
</svg>