<?xml version="1.0" encoding="utf-8"?>
<!-- Generator: Adobe Illustrator 22.1.0, SVG Export Plug-In . SVG Version: 6.00 Build 0)  -->
<svg version="1.1" id="圖層_1" xmlns="http://www.w3.org/2000/svg" xmlns:xlink="http://www.w3.org/1999/xlink" x="0px" y="0px"
	 viewBox="0 0 530 760" style="enable-background:new 0 0 530 760;" xml:space="preserve">
<style type="text/css">
	.st0{fill:#E23237;}
</style>
<title>/&gt;</title>
<desc>Created with Sketch.</desc>
<g id="_x2F__x3E_">
	<g id="code-copy" transform="translate(41.000000, 115.000000)">
		<path id="Shape" class="st0" d="M175.3,6.7l-22.9-6.2c-2.9-1-5.8-0.7-8.7,0.9c-2.8,1.6-4.7,3.9-5.7,7.1L0.6,476.8
			c-1,3.1-0.7,6.1,0.9,8.9c1.6,2.8,4,4.7,7.2,5.6l22.9,6.2c2.9,1,5.8,0.7,8.7-0.9c2.8-1.6,4.7-3.9,5.7-7.1L183.4,21.2
			c1-3.1,0.7-6.1-0.9-8.9C180.9,9.6,178.5,7.7,175.3,6.7z"/>
		<path id="Shape_1_" class="st0" d="M445.1,255.6L265,75.9c-2.6-2.6-5.5-3.9-8.9-3.9c-3.4,0-6.3,1.3-8.9,3.9l-19.3,19.3
			c-2.6,2.6-3.9,5.5-3.9,8.9s1.3,6.3,3.9,8.9l151.9,151.6L227.9,416.1c-2.6,2.6-3.9,5.5-3.9,8.9c0,3.3,1.3,6.3,3.9,8.9l19.3,19.3
			c2.6,2.6,5.5,3.9,8.9,3.9c3.3,0,6.3-1.3,8.9-3.9l180.2-179.8c2.6-2.6,3.9-5.5,3.9-8.9C449,261.2,447.7,258.2,445.1,255.6z"/>
	</g>
</g>
</svg>
