<?xml version="1.0" encoding="UTF-8"?>
<svg width="307px" height="760px" viewBox="0 0 307 760" version="1.1" xmlns="http://www.w3.org/2000/svg" xmlns:xlink="http://www.w3.org/1999/xlink">
    <!-- Generator: Sketch 50.2 (55047) - http://www.bohemiancoding.com/sketch -->
    <title>&lt;</title>
    <desc>Created with Sketch.</desc>
    <defs></defs>
    <g id="&lt;" stroke="none" stroke-width="1" fill="none" fill-rule="evenodd">
        <g id="code" transform="translate(40.000000, 186.000000)" fill="#E23237" fill-rule="nonzero">
            <path d="M227,32.3561411 C227,28.9785422 225.698111,25.9873057 223.098431,23.390623 L203.594685,3.90048503 C200.995005,1.30243707 198.003256,0 194.623535,0 C191.243815,0 188.2507,1.30380231 185.652386,3.90048503 L3.9015689,185.537212 C1.29779078,188.13526 0,191.125132 0,194.50273 C0,197.880329 1.30188906,200.870201 3.9015689,203.466883 L185.65102,385.103611 C188.249334,387.705754 191.236984,389 194.622169,389 C198.007354,389 200.995005,387.701659 203.593319,385.103611 L223.097065,365.624395 C225.696745,363.027712 226.998634,360.036475 226.998634,356.654781 C226.998634,353.281278 225.696745,350.291406 223.097065,347.694724 L69.8170455,194.50273 L223.098431,41.3216592 C225.702209,38.7249765 227,35.73374 227,32.3561411 Z" id="Shape"></path>
        </g>
    </g>
</svg>