<?xml version="1.0" encoding="UTF-8"?>
<svg width="217px" height="551px" viewBox="0 0 217 551" version="1.1" xmlns="http://www.w3.org/2000/svg" xmlns:xlink="http://www.w3.org/1999/xlink">
    <!-- Generator: Sketch 50.2 (55047) - http://www.bohemiancoding.com/sketch -->
    <title>Artboard</title>
    <desc>Created with Sketch.</desc>
    <defs>
        <path d="M29.9636267,470.791008 C27.0807519,472.481596 27.0807519,475.166647 29.9636267,476.857234 L100.743175,518.12746 C103.626049,519.818047 108.298295,519.818047 111.18117,518.12746 L193.094579,470.791008 C195.977454,469.100421 195.977454,466.41537 193.094579,464.724782 L122.315031,423.454557 C119.432156,421.763969 114.759911,421.763969 111.877036,423.454557 L29.9636267,470.791008 Z" id="path-1"></path>
        <filter x="-28.7%" y="-49.4%" width="157.3%" height="198.8%" filterUnits="objectBoundingBox" id="filter-2">
            <feGaussianBlur stdDeviation="16" in="SourceGraphic"></feGaussianBlur>
        </filter>
        <ellipse id="path-3" cx="7.5" cy="48" rx="5.5" ry="4"></ellipse>
        <filter x="-28.6%" y="-35.6%" width="157.3%" height="178.8%" filterUnits="objectBoundingBox" id="filter-4">
            <feOffset dx="0" dy="0.3" in="SourceAlpha" result="shadowOffsetOuter1"></feOffset>
            <feGaussianBlur stdDeviation="1" in="shadowOffsetOuter1" result="shadowBlurOuter1"></feGaussianBlur>
            <feColorMatrix values="0 0 0 0 0   0 0 0 0 0   0 0 0 0 0  0 0 0 0.06 0" type="matrix" in="shadowBlurOuter1"></feColorMatrix>
        </filter>
    </defs>
    <g id="Artboard" stroke="none" stroke-width="1" fill="none" fill-rule="evenodd">
        <g id="svg/intro101">
            <g id="jeff-shadow" opacity="0.747265625" filter="url(#filter-2)" fill-rule="nonzero">
                <use fill-opacity="0.1" fill="#303F9F" fill-rule="evenodd" xlink:href="#path-1"></use>
                <use fill-opacity="0.199999988" fill="#000000" fill-rule="evenodd" xlink:href="#path-1"></use>
            </g>
            <g id="101">
                <g id="ground" transform="translate(0.000000, 368.000000)" fill-rule="nonzero">
                    <path d="M3.71017743,70.6472031 L94.981394,123.682347 C98.6989015,125.854871 104.723827,125.854871 108.441335,123.682347 L214.069821,62.851676 C215.99267,61.8293118 216.889999,60.2957654 216.889999,58.8900146 L216.889999,62.4682894 C216.889999,63.8740402 215.99267,65.279791 214.069821,66.4299508 L108.441335,127.260622 C104.723827,129.433146 98.6989015,129.433146 94.981394,127.260622 L3.71017743,74.2254779 C1.91551868,73.2031137 0.88999939,71.7973629 0.88999939,70.3916121 L0.88999939,66.8133373 C0.88999939,68.2190881 1.78732877,69.6248389 3.71017743,70.6472031 Z" id="XMLID_3617_" fill="#94B226"></path>
                    <g id="XMLID_3614_" fill="#9ECE4A">
                        <path d="M3.59058824,62.8848485 C-0.128235294,65.0656566 -0.128235294,68.5292929 3.59058824,70.710101 L94.8941176,123.947475 C98.6129412,126.128283 104.64,126.128283 108.358824,123.947475 L214.024706,62.8848485 C217.743529,60.7040404 217.743529,57.240404 214.024706,55.059596 L122.721176,1.82222222 C119.002353,-0.358585859 112.975294,-0.358585859 109.256471,1.82222222 L3.59058824,62.8848485 Z" id="XMLID_3615_"></path>
                    </g>
                </g>
                <g id="shadow" opacity="0.13" transform="translate(62.000000, 403.000000)" fill="#060606" fill-rule="nonzero">
                    <polygon id="XMLID_3611_" points="104.4 23 48.8 55.1 28.9 55.1 0.2 38.7 65.2 0.6"></polygon>
                </g>
                <g id="building" transform="translate(90.000000, 229.000000) scale(-1, 1) translate(-90.000000, -229.000000) translate(37.000000, 0.000000)">
                    <g id="bottom" transform="translate(0.000000, 303.000000)" fill-rule="nonzero">
                        <polygon id="XMLID_4985_-Copy-2" fill="#2984A7" points="53.5 48.9800034 12 24.1521739 0 125 52 155 106 125 92 25.345664"></polygon>
                        <polygon id="XMLID_4985_-Copy-7" fill="#53ADD0" points="53.5 48.9800034 52 155 106 125 92 25.345664"></polygon>
                        <g id="Group-6" transform="translate(60.000000, 29.000000)">
                            <polygon id="XMLID_4985_-Copy-8" fill="#70CAED" points="2 103 36 84 25.9976244 0.0303960061 0.517183504 15.6723022"></polygon>
                            <polygon id="XMLID_4985_-Copy-13" fill="#FFFFFF" opacity="0.200000003" points="31.6775181 48.7129108 31.4080766 46.4509586 1.26612296 60.7796877 1.31036077 63.3849901"></polygon>
                            <polygon id="XMLID_4985_-Copy-14" fill="#FFFFFF" opacity="0.200000003" points="32.6775181 55.7129108 32.4080766 53.4509586 1.5 69 1.5 71.6053024"></polygon>
                            <polygon id="XMLID_4985_-Copy-15" fill="#FFFFFF" opacity="0.200000003" points="33.6775181 63.7129108 33.4080766 61.4509586 1.54998779 77.3946976 1.65002441 80"></polygon>
                            <polygon id="XMLID_4985_-Copy-16" fill="#FFFFFF" opacity="0.200000003" points="34.4000244 70.7129108 34.1305829 68.4509586 1.70001221 85 1.76000977 87.6053024"></polygon>
                            <polygon id="XMLID_4985_-Copy-17" fill="#FFFFFF" opacity="0.200000003" points="35.4000244 78.7129108 35.1305829 76.4509586 1.79998779 93.2999878 1.86999512 95.9000244"></polygon>
                            <polygon id="XMLID_4985_-Copy-11" fill="#FFFFFF" opacity="0.199999988" points="29.9226754 32.9810664 29.6389152 30.5989091 1.01468118 44.9714953 1.06498334 47.9339467"></polygon>
                            <polygon id="XMLID_4985_-Copy-12" fill="#FFFFFF" opacity="0.199999988" points="30.9226754 40.9810664 30.6389152 38.5989091 1.20001221 53.0375486 1.25 56"></polygon>
                            <polygon id="XMLID_4985_-Copy-9" fill="#FFFFFF" opacity="0.200000003" points="28.1265024 18.9022546 27.8847332 16.872611 0.74091646 29.8486352 0.779288762 32.1085"></polygon>
                            <polygon id="XMLID_4985_-Copy-10" fill="#FFFFFF" opacity="0.200000003" points="29.1265024 25.9022546 28.8847332 23.872611 1 37 1.0383723 39.2598648"></polygon>
                        </g>
                        <g id="Group-6-Copy" transform="translate(26.500000, 79.500000) scale(-1, 1) translate(-26.500000, -79.500000) translate(8.000000, 28.000000)">
                            <polygon id="XMLID_4985_-Copy-8" fill="#3DA7D0" points="2 103 36 84 25.9976244 0.0303960061 0.517183504 15.6723022"></polygon>
                            <polygon id="XMLID_4985_-Copy-13" fill="#FFFFFF" opacity="0.200000003" points="31.6775181 48.7129108 31.4080766 46.4509586 1.26612296 60.7796877 1.31036077 63.3849901"></polygon>
                            <polygon id="XMLID_4985_-Copy-14" fill="#FFFFFF" opacity="0.200000003" points="32.6775181 55.7129108 32.4080766 53.4509586 1.5 69 1.5 71.6053024"></polygon>
                            <polygon id="XMLID_4985_-Copy-15" fill="#FFFFFF" opacity="0.200000003" points="33.6775181 63.7129108 33.4080766 61.4509586 1.54998779 77.3946976 1.65002441 80"></polygon>
                            <polygon id="XMLID_4985_-Copy-16" fill="#FFFFFF" opacity="0.200000003" points="34.4000244 70.7129108 34.1305829 68.4509586 1.70001221 85 1.76000977 87.6053024"></polygon>
                            <polygon id="XMLID_4985_-Copy-17" fill="#FFFFFF" opacity="0.200000003" points="35.4000244 78.7129108 35.1305829 76.4509586 1.79998779 93.2999878 1.86999512 95.9000244"></polygon>
                            <polygon id="XMLID_4985_-Copy-11" fill="#FFFFFF" opacity="0.199999988" points="29.9226754 32.9810664 29.6389152 30.5989091 1.01468118 44.9714953 1.06498334 47.9339467"></polygon>
                            <polygon id="XMLID_4985_-Copy-12" fill="#FFFFFF" opacity="0.199999988" points="30.9226754 40.9810664 30.6389152 38.5989091 1.20001221 53.0375486 1.25 56"></polygon>
                            <polygon id="XMLID_4985_-Copy-9" fill="#FFFFFF" opacity="0.200000003" points="28.1265024 18.9022546 27.8847332 16.872611 0.74091646 29.8486352 0.779288762 32.1085"></polygon>
                            <polygon id="XMLID_4985_-Copy-10" fill="#FFFFFF" opacity="0.200000003" points="29.1265024 25.9022546 28.8847332 23.872611 1 37 1.0383723 39.2598648"></polygon>
                        </g>
                        <polygon id="XMLID_4985_-Copy" fill="#4099BD" points="53.5454102 49.0793596 12 24.1299973 52 0 92 25.345664"></polygon>
                    </g>
                    <g id="5" transform="translate(12.000000, 256.000000)" fill-rule="nonzero">
                        <polygon id="XMLID_4985_-Copy-6" fill="#2984A7" points="74 69.6521739 78.9000244 23.0239012 77.1800537 24.1847826"></polygon>
                        <polygon id="XMLID_4985_-Copy-5" fill="#2984A7" points="4 23.2173913 0 21.2826087 7 69.6521739"></polygon>
                        <polygon id="XMLID_4985_-Copy" fill="#4099BD" points="40 48.0793596 38 46.4347826 36 46.4347826 2.41320099 28.0828577 4 27.0869565 0 25.1521739 4 23.2173913 0 21.2826087 39 0 78.9000244 23.0239012 77.1999512 24.1847826 80 25.345664 76.3000488 27.0869565 78 28.0543478 45 46.4347826 43 46.4347826"></polygon>
                        <polygon id="XMLID_4985_-Copy-2" fill="#2984A7" points="40 48.0793596 38 46.4347826 36 46.4347826 2.41320099 28.0828577 4 27.0869565 -2.27373675e-13 25.1521739 7 69.6521739 36 88.0326087 38 87.0652174 40 89 43 87.0652174 44.5 88.0326087 74 69.6521739 80 25.345664 76.3000488 27.0869565 78 28.0543478 44.5 46.4347826 43 46.4347826"></polygon>
                        <polygon id="XMLID_4985_-Copy-4" fill="#70CAED" opacity="0.257477679" points="38 46.4347826 36 46.4347826 36 88.0326087 38 87.0652174"></polygon>
                        <polygon id="XMLID_4985_-Copy-3" fill="#70CAED" opacity="0.598772321" points="40 48.0793596 40 89 43 87.0652174 43 46.4347826"></polygon>
                        <g id="Right" transform="translate(44.000000, 28.054348)">
                            <path d="M34,59.9782609 L5.09997559,42.5652174 L0.0999755859,0 C3.5213901,0.422963712 6.5213901,1.39035502 9.09997559,2.90217391 C11.6785611,4.41399281 14.1785611,6.34877542 16.5999756,8.70652174 C19.4607872,9.19363257 21.9607872,10.0642887 24.0999756,11.3184901 C26.239164,12.5726915 29.4058307,14.926673 33.5999756,18.3804348 L34,59.9782609 Z" id="right" fill="#70CAED" transform="translate(17.049988, 29.989130) scale(-1, 1) translate(-17.049988, -29.989130) "></path>
                            <polygon id="-" fill="#FFFFFF" opacity="0.200837054" transform="translate(14.884527, 47.079252) scale(-1, 1) translate(-14.884527, -47.079252) " points="0.320733664 39.5425546 0.15619636 38.0781726 29.5852938 54.1692341 29.612858 56.0803323"></polygon>
                            <polygon id="-" fill="#FFFFFF" opacity="0.200837054" transform="translate(15.239388, 41.536094) scale(-1, 1) translate(-15.239388, -41.536094) " points="0.432214713 34.2182217 0.235124092 32.4641151 30.218229 48.8455044 30.243651 50.6080729"></polygon>
                            <polygon id="-" fill="#FFFFFF" opacity="0.200837054" transform="translate(15.582245, 36.222580) scale(-1, 1) translate(-15.582245, -36.222580) " points="0.482102169 28.5593558 0.309987151 27.0275321 30.8282417 43.596868 30.854503 45.4176275"></polygon>
                            <polygon id="-" fill="#FFFFFF" opacity="0.200837054" transform="translate(15.940895, 30.732494) scale(-1, 1) translate(-15.940895, -30.732494) " points="0.565558577 22.9181553 0.386042361 21.320461 31.4663615 38.1071578 31.4957469 40.1445273"></polygon>
                            <polygon id="-" fill="#FFFFFF" opacity="0.200837054" transform="translate(16.300786, 24.979834) scale(-1, 1) translate(-16.300786, -24.979834) " points="0.617988343 16.9787113 0.470421618 15.6653674 32.1082507 32.7065825 32.1311507 34.2942998"></polygon>
                            <polygon id="-" fill="#FFFFFF" opacity="0.200837054" transform="translate(17.029543, 13.854171) scale(-1, 1) translate(-17.029543, -13.854171) " points="0.797643969 5.60576921 0.623972158 4.0600901 33.4142223 22.1997468 33.4351144 23.6482521"></polygon>
                            <polygon id="-" fill="#FFFFFF" opacity="0.200837054" transform="translate(16.715779, 19.099201) scale(-1, 1) translate(-16.715779, -19.099201) " points="0.811466336 11.3137873 0.542806247 8.92271249 32.8664944 27.7324854 32.8887524 29.2756902"></polygon>
                        </g>
                        <g id="Left" transform="translate(19.000000, 57.586957) scale(-1, 1) translate(-19.000000, -57.586957) translate(2.000000, 27.086957)">
                            <path d="M33.5200195,60.9456522 L4.61999512,42.5652174 L0.0300292969,0.996411863 C3.17808769,0.789549105 6.04140963,1.46641135 8.61999512,3.0269986 C11.1985806,4.58758585 13.6985806,6.5847808 16.1199951,9.01858345 C18.9808067,9.52140754 21.4808067,10.4201493 23.6199951,11.7148088 C25.7591835,13.0094683 29.0825071,15.5376882 33.5899658,19.2994683 L33.5200195,60.9456522 Z" id="right" fill="#3DA7D0" transform="translate(16.809998, 30.952874) scale(-1, 1) translate(-16.809998, -30.952874) "></path>
                            <polygon id="-" fill="#FFFFFF" opacity="0.199999988" transform="translate(14.781679, 47.079252) scale(-1, 1) translate(-14.781679, -47.079252) " points="0.217885436 39.5425546 0.0533481328 38.0781726 29.4824455 54.1692341 29.5100098 56.0803323"></polygon>
                            <polygon id="--copy-2" fill="#FFFFFF" opacity="0.199999988" transform="translate(15.031679, 41.853680) scale(-1, 1) translate(-15.031679, -41.853680) " points="0.213382312 34.3169824 0.0533481328 32.8526004 29.9824455 48.943662 30.0100098 50.8547602"></polygon>
                            <polygon id="-" fill="#FFFFFF" opacity="0.199999988" transform="translate(15.417683, 36.222580) scale(-1, 1) translate(-15.417683, -36.222580) " points="0.317540592 28.5593558 0.145425573 27.0275321 30.6636801 43.596868 30.6899414 45.4176275"></polygon>
                            <polygon id="-" fill="#FFFFFF" opacity="0.199999988" transform="translate(15.745197, 30.732494) scale(-1, 1) translate(-15.745197, -30.732494) " points="0.369860469 22.9181553 0.190344252 21.320461 31.2706634 38.1071578 31.3000488 40.1445273"></polygon>
                            <polygon id="-" fill="#FFFFFF" opacity="0.199999988" transform="translate(16.050049, 24.979834) scale(-1, 1) translate(-16.050049, -24.979834) " points="0.31761067 16.9787113 0.170043945 15.6653674 31.9101563 32.7065825 31.9300537 34.2942998"></polygon>
                            <polygon id="-" fill="#FFFFFF" opacity="0.199999988" transform="translate(16.635010, 13.854171) scale(-1, 1) translate(-16.635010, -13.854171) " points="0.203701107 5.60576921 0.0300292969 4.0600901 33.2199707 22.1997468 33.2399902 23.6482521"></polygon>
                            <polygon id="-" fill="#FFFFFF" opacity="0.199999988" transform="translate(16.375000, 19.099201) scale(-1, 1) translate(-16.375000, -19.099201) " points="0.328718683 11.3137873 0.0600585938 8.92271249 32.6899414 27.7324854 32.6500244 29.2756902"></polygon>
                        </g>
                    </g>
                    <g id="4" transform="translate(12.000000, 210.000000)" fill-rule="nonzero">
                        <polygon id="XMLID_4985_-Copy-6" fill="#2984A7" points="74 69.6521739 78.9000244 23.0239012 77.1800537 24.1847826"></polygon>
                        <polygon id="XMLID_4985_-Copy-5" fill="#2984A7" points="4 23.2173913 0 21.2826087 7 69.6521739"></polygon>
                        <polygon id="XMLID_4985_-Copy" fill="#4099BD" points="40 48.0793596 38 46.4347826 36 46.4347826 2.41320099 28.0828577 4 27.0869565 0 25.1521739 4 23.2173913 0 21.2826087 39 0 78.9000244 23.0239012 77.1999512 24.1847826 80 25.345664 76.3000488 27.0869565 78 28.0543478 45 46.4347826 43 46.4347826"></polygon>
                        <polygon id="XMLID_4985_-Copy-2" fill="#2984A7" points="40 48.0793596 38 46.4347826 36 46.4347826 2.41320099 28.0828577 4 27.0869565 -2.27373675e-13 25.1521739 7 69.6521739 36 88.0326087 38 87.0652174 40 89 43 87.0652174 44.5 88.0326087 74 69.6521739 80 25.345664 76.3000488 27.0869565 78 28.0543478 44.5 46.4347826 43 46.4347826"></polygon>
                        <polygon id="XMLID_4985_-Copy-4" fill="#70CAED" opacity="0.257477679" points="38 46.4347826 36 46.4347826 36 88.0326087 38 87.0652174"></polygon>
                        <polygon id="XMLID_4985_-Copy-3" fill="#70CAED" opacity="0.598772321" points="40 48.0793596 40 89 43 87.0652174 43 46.4347826"></polygon>
                        <g id="Right" transform="translate(44.000000, 28.054348)">
                            <path d="M34,59.9782609 L5.09997559,42.5652174 L0.0999755859,0 C3.5213901,0.422963712 6.5213901,1.39035502 9.09997559,2.90217391 C11.6785611,4.41399281 14.1785611,6.34877542 16.5999756,8.70652174 C19.4607872,9.19363257 21.9607872,10.0642887 24.0999756,11.3184901 C26.239164,12.5726915 29.4058307,14.926673 33.5999756,18.3804348 L34,59.9782609 Z" id="right" fill="#70CAED" transform="translate(17.049988, 29.989130) scale(-1, 1) translate(-17.049988, -29.989130) "></path>
                            <polygon id="-" fill="#FFFFFF" opacity="0.200837054" transform="translate(14.884527, 47.079252) scale(-1, 1) translate(-14.884527, -47.079252) " points="0.320733664 39.5425546 0.15619636 38.0781726 29.5852938 54.1692341 29.612858 56.0803323"></polygon>
                            <polygon id="-" fill="#FFFFFF" opacity="0.200837054" transform="translate(15.239388, 41.536094) scale(-1, 1) translate(-15.239388, -41.536094) " points="0.432214713 34.2182217 0.235124092 32.4641151 30.218229 48.8455044 30.243651 50.6080729"></polygon>
                            <polygon id="-" fill="#FFFFFF" opacity="0.200837054" transform="translate(15.582245, 36.222580) scale(-1, 1) translate(-15.582245, -36.222580) " points="0.482102169 28.5593558 0.309987151 27.0275321 30.8282417 43.596868 30.854503 45.4176275"></polygon>
                            <polygon id="-" fill="#FFFFFF" opacity="0.200837054" transform="translate(15.940895, 30.732494) scale(-1, 1) translate(-15.940895, -30.732494) " points="0.565558577 22.9181553 0.386042361 21.320461 31.4663615 38.1071578 31.4957469 40.1445273"></polygon>
                            <polygon id="-" fill="#FFFFFF" opacity="0.200837054" transform="translate(16.300786, 24.979834) scale(-1, 1) translate(-16.300786, -24.979834) " points="0.617988343 16.9787113 0.470421618 15.6653674 32.1082507 32.7065825 32.1311507 34.2942998"></polygon>
                            <polygon id="-" fill="#FFFFFF" opacity="0.200837054" transform="translate(17.029543, 13.854171) scale(-1, 1) translate(-17.029543, -13.854171) " points="0.797643969 5.60576921 0.623972158 4.0600901 33.4142223 22.1997468 33.4351144 23.6482521"></polygon>
                            <polygon id="-" fill="#FFFFFF" opacity="0.200837054" transform="translate(16.715779, 19.099201) scale(-1, 1) translate(-16.715779, -19.099201) " points="0.811466336 11.3137873 0.542806247 8.92271249 32.8664944 27.7324854 32.8887524 29.2756902"></polygon>
                        </g>
                        <g id="Left" transform="translate(19.000000, 57.559783) scale(-1, 1) translate(-19.000000, -57.559783) translate(2.000000, 27.086957)">
                            <path d="M33.5200195,60.9456522 L4.61999512,42.5652174 L0.0300292969,0.996411863 C3.17808769,0.789549105 6.04140963,1.46641135 8.61999512,3.0269986 C11.1985806,4.58758585 13.6985806,6.5847808 16.1199951,9.01858345 C18.9808067,9.52140754 21.4808067,10.4201493 23.6199951,11.7148088 C25.7591835,13.0094683 29.0825071,15.5376882 33.5899658,19.2994683 L33.5200195,60.9456522 Z" id="right" fill="#3DA7D0" transform="translate(16.809998, 30.952874) scale(-1, 1) translate(-16.809998, -30.952874) "></path>
                            <polygon id="-" fill="#FFFFFF" opacity="0.199999988" transform="translate(14.781679, 47.079252) scale(-1, 1) translate(-14.781679, -47.079252) " points="0.217885436 39.5425546 0.0533481328 38.0781726 29.4824455 54.1692341 29.5100098 56.0803323"></polygon>
                            <polygon id="--copy-2" fill="#FFFFFF" opacity="0.199999988" transform="translate(15.031679, 41.853680) scale(-1, 1) translate(-15.031679, -41.853680) " points="0.213382312 34.3169824 0.0533481328 32.8526004 29.9824455 48.943662 30.0100098 50.8547602"></polygon>
                            <polygon id="-" fill="#FFFFFF" opacity="0.199999988" transform="translate(15.417683, 36.222580) scale(-1, 1) translate(-15.417683, -36.222580) " points="0.317540592 28.5593558 0.145425573 27.0275321 30.6636801 43.596868 30.6899414 45.4176275"></polygon>
                            <polygon id="-" fill="#FFFFFF" opacity="0.199999988" transform="translate(15.745197, 30.732494) scale(-1, 1) translate(-15.745197, -30.732494) " points="0.369860469 22.9181553 0.190344252 21.320461 31.2706634 38.1071578 31.3000488 40.1445273"></polygon>
                            <polygon id="-" fill="#FFFFFF" opacity="0.199999988" transform="translate(16.050049, 24.979834) scale(-1, 1) translate(-16.050049, -24.979834) " points="0.31761067 16.9787113 0.170043945 15.6653674 31.9101563 32.7065825 31.9300537 34.2942998"></polygon>
                            <polygon id="-" fill="#FFFFFF" opacity="0.199999988" transform="translate(16.635010, 13.854171) scale(-1, 1) translate(-16.635010, -13.854171) " points="0.203701107 5.60576921 0.0300292969 4.0600901 33.2199707 22.1997468 33.2399902 23.6482521"></polygon>
                            <polygon id="-" fill="#FFFFFF" opacity="0.199999988" transform="translate(16.375000, 19.099201) scale(-1, 1) translate(-16.375000, -19.099201) " points="0.328718683 11.3137873 0.0600585938 8.92271249 32.6899414 27.7324854 32.6500244 29.2756902"></polygon>
                        </g>
                    </g>
                    <g id="3" transform="translate(12.000000, 163.000000)" fill-rule="nonzero">
                        <polygon id="XMLID_4985_-Copy-6" fill="#2984A7" points="74 71.2173913 78.9000244 23.5412923 77.1800537 24.7282609"></polygon>
                        <polygon id="XMLID_4985_-Copy-5" fill="#2984A7" points="4 23.7391304 0 21.7608696 7 71.2173913"></polygon>
                        <polygon id="XMLID_4985_-Copy" fill="#4099BD" points="40 49.1597947 38 47.4782609 36 47.4782609 2.41320099 28.7139331 4 27.6956522 0 25.7173913 4 23.7391304 0 21.7608696 39 0 78.9000244 23.5412923 77.1999512 24.7282609 80 25.9152295 76.3000488 27.6956522 78 28.6847826 45 47.4782609 43 47.4782609"></polygon>
                        <polygon id="XMLID_4985_-Copy-2" fill="#2984A7" points="40 49.1597947 38 47.4782609 36 47.4782609 2.41320099 28.7139331 4 27.6956522 -2.27373675e-13 25.7173913 7 71.2173913 36 90.0108696 38 89.0217391 40 91 43 89.0217391 44.5 90.0108696 74 71.2173913 80 25.9152295 76.3000488 27.6956522 78 28.6847826 44.5 47.4782609 43 47.4782609"></polygon>
                        <polygon id="XMLID_4985_-Copy-4" fill="#70CAED" opacity="0.257477679" points="38 47.4782609 36 47.4782609 36 90.0108696 38 89.0217391"></polygon>
                        <polygon id="XMLID_4985_-Copy-3" fill="#70CAED" opacity="0.598772321" points="40 49.1597947 40 91 43 89.0217391 43 47.4782609"></polygon>
                        <g id="Right" transform="translate(44.000000, 28.684783)">
                            <path d="M34,61.326087 L5.09997559,43.5217391 L0.0999755859,0 C3.5213901,0.432468515 6.5213901,1.42159895 9.09997559,2.9673913 C11.6785611,4.51318366 14.1785611,6.49144453 16.5999756,8.90217391 C19.4607872,9.40023106 21.9607872,10.2904525 24.0999756,11.5728382 C26.239164,12.8552238 29.4058307,15.2621039 33.5999756,18.7934783 L34,61.326087 Z" id="right" fill="#70CAED" transform="translate(17.049988, 30.663043) scale(-1, 1) translate(-17.049988, -30.663043) "></path>
                            <polygon id="-" fill="#FFFFFF" opacity="0.200837054" transform="translate(14.884527, 48.137213) scale(-1, 1) translate(-14.884527, -48.137213) " points="0.320733664 40.4311513 0.15619636 38.9338618 29.5852938 55.3865203 29.612858 57.3405645"></polygon>
                            <polygon id="-" fill="#FFFFFF" opacity="0.200837054" transform="translate(15.239388, 42.469489) scale(-1, 1) translate(-15.239388, -42.469489) " points="0.432214713 34.9871705 0.235124092 33.1936458 30.218229 49.9431562 30.243651 51.7453329"></polygon>
                            <polygon id="-" fill="#FFFFFF" opacity="0.200837054" transform="translate(15.582245, 37.036570) scale(-1, 1) translate(-15.582245, -37.036570) " points="0.482102169 29.2011391 0.309987151 27.6348924 30.8282417 44.5765729 30.854503 46.4382483"></polygon>
                            <polygon id="-" fill="#FFFFFF" opacity="0.200837054" transform="translate(15.940895, 31.423112) scale(-1, 1) translate(-15.940895, -31.423112) " points="0.565558577 23.43317 0.386042361 21.7995724 31.4663615 38.9634984 31.4957469 41.0466515"></polygon>
                            <polygon id="-" fill="#FFFFFF" opacity="0.200837054" transform="translate(16.300786, 25.541178) scale(-1, 1) translate(-16.300786, -25.541178) " points="0.617988343 17.3602554 0.470421618 16.0173982 32.1082507 33.4415619 32.1311507 35.0649582"></polygon>
                            <polygon id="-" fill="#FFFFFF" opacity="0.200837054" transform="translate(17.029543, 14.165501) scale(-1, 1) translate(-17.029543, -14.165501) " points="0.797643969 5.73174155 0.623972158 4.15132808 33.4142223 22.6986175 33.4351144 24.1796735"></polygon>
                            <polygon id="-" fill="#FFFFFF" opacity="0.200837054" transform="translate(16.715779, 19.528397) scale(-1, 1) translate(-16.715779, -19.528397) " points="0.811466336 11.5680297 0.542806247 9.12322288 32.8664944 28.3556873 32.8887524 29.9335709"></polygon>
                        </g>
                        <g id="Left" transform="translate(19.000000, 58.853261) scale(-1, 1) translate(-19.000000, -58.853261) translate(2.000000, 27.695652)">
                            <path d="M33.5200195,62.3152174 L4.61999512,43.5217391 L0.0300292969,1.01880314 C3.17808769,0.807291781 6.04140963,1.49936441 8.61999512,3.09502104 C11.1985806,4.69067766 13.6985806,6.7327534 16.1199951,9.22124825 C18.9808067,9.73537175 21.4808067,10.65431 23.6199951,11.978063 C25.7591835,13.3018159 29.0825071,15.8868497 33.5899658,19.7331642 L33.5200195,62.3152174 Z" id="right" fill="#3DA7D0" transform="translate(16.809998, 31.648444) scale(-1, 1) translate(-16.809998, -31.648444) "></path>
                            <polygon id="-" fill="#FFFFFF" opacity="0.199999988" transform="translate(14.781679, 48.137213) scale(-1, 1) translate(-14.781679, -48.137213) " points="0.217885436 40.4311513 0.0533481328 38.9338618 29.4824455 55.3865203 29.5100098 57.3405645"></polygon>
                            <polygon id="--copy-2" fill="#FFFFFF" opacity="0.199999988" transform="translate(15.031679, 42.794212) scale(-1, 1) translate(-15.031679, -42.794212) " points="0.213382312 35.0881506 0.0533481328 33.5908611 29.9824455 50.0435196 30.0100098 51.9975638"></polygon>
                            <polygon id="-" fill="#FFFFFF" opacity="0.199999988" transform="translate(15.417683, 37.036570) scale(-1, 1) translate(-15.417683, -37.036570) " points="0.317540592 29.2011391 0.145425573 27.6348924 30.6636801 44.5765729 30.6899414 46.4382483"></polygon>
                            <polygon id="-" fill="#FFFFFF" opacity="0.199999988" transform="translate(15.745197, 31.423112) scale(-1, 1) translate(-15.745197, -31.423112) " points="0.369860469 23.43317 0.190344252 21.7995724 31.2706634 38.9634984 31.3000488 41.0466515"></polygon>
                            <polygon id="-" fill="#FFFFFF" opacity="0.199999988" transform="translate(16.050049, 25.541178) scale(-1, 1) translate(-16.050049, -25.541178) " points="0.31761067 17.3602554 0.170043945 16.0173982 31.9101563 33.4415619 31.9300537 35.0649582"></polygon>
                            <polygon id="-" fill="#FFFFFF" opacity="0.199999988" transform="translate(16.635010, 14.165501) scale(-1, 1) translate(-16.635010, -14.165501) " points="0.203701107 5.73174155 0.0300292969 4.15132808 33.2199707 22.6986175 33.2399902 24.1796735"></polygon>
                            <polygon id="-" fill="#FFFFFF" opacity="0.199999988" transform="translate(16.375000, 19.528397) scale(-1, 1) translate(-16.375000, -19.528397) " points="0.328718683 11.5680297 0.0600585938 9.12322288 32.6899414 28.3556873 32.6500244 29.9335709"></polygon>
                        </g>
                    </g>
                    <g id="2" transform="translate(12.000000, 116.000000)" fill-rule="nonzero">
                        <polygon id="XMLID_4985_-Copy-6" fill="#2984A7" points="74 72 78.9000244 23.7999878 77.1800537 25"></polygon>
                        <polygon id="XMLID_4985_-Copy-5" fill="#2984A7" points="4 24 0 22 7 72"></polygon>
                        <polygon id="XMLID_4985_-Copy" fill="#4099BD" points="40 49.7000122 38 48 36 48 2.41320099 29.0294709 4 28 0 26 4 24 0 22 39 0 78.9000244 23.7999878 77.1999512 25 80 26.2000122 76.3000488 28 78 29 45 48 43 48"></polygon>
                        <polygon id="XMLID_4985_-Copy-2" fill="#2984A7" points="40 49.7000122 38 48 36 48 2.41320099 29.0294709 4 28 -2.27373675e-13 26 7 72 36 91 38 90 40 92 43 90 44.5 91 74 72 80 26.2000122 76.3000488 28 78 29 44.5 48 43 48"></polygon>
                        <polygon id="XMLID_4985_-Copy-4" fill="#70CAED" opacity="0.257477679" points="38 48 36 48 36 91 38 90"></polygon>
                        <polygon id="XMLID_4985_-Copy-3" fill="#70CAED" opacity="0.598772321" points="40 49.7000122 40 92 43 90 43 48"></polygon>
                        <g id="Right" transform="translate(44.000000, 29.000000)">
                            <path d="M34,62 L5.09997559,44 L0.0999755859,0 C3.5213901,0.437220916 6.5213901,1.43722092 9.09997559,3 C11.6785611,4.56277908 14.1785611,6.56277908 16.5999756,9 C19.4607872,9.5035303 21.9607872,10.4035344 24.0999756,11.7000122 C26.239164,12.99649 29.4058307,15.4298193 33.5999756,19 L34,62 Z" id="right" fill="#70CAED" transform="translate(17.049988, 31.000000) scale(-1, 1) translate(-17.049988, -31.000000) "></path>
                            <polygon id="-" fill="#FFFFFF" opacity="0.200837054" transform="translate(14.884527, 48.666194) scale(-1, 1) translate(-14.884527, -48.666194) " points="0.320733664 40.8754497 0.15619636 39.3617065 29.5852938 55.9951634 29.612858 57.9706806"></polygon>
                            <polygon id="-" fill="#FFFFFF" opacity="0.200837054" transform="translate(15.239388, 42.936187) scale(-1, 1) translate(-15.239388, -42.936187) " points="0.432214713 35.3716449 0.235124092 33.5584111 30.218229 50.4919821 30.243651 52.313963"></polygon>
                            <polygon id="-" fill="#FFFFFF" opacity="0.200837054" transform="translate(15.582245, 37.443566) scale(-1, 1) translate(-15.582245, -37.443566) " points="0.482102169 29.5220307 0.309987151 27.9385725 30.8282417 45.0664254 30.854503 46.9485587"></polygon>
                            <polygon id="-" fill="#FFFFFF" opacity="0.200837054" transform="translate(15.940895, 31.768421) scale(-1, 1) translate(-15.940895, -31.768421) " points="0.565558577 23.6906774 0.386042361 22.0391282 31.4663615 39.3916687 31.4957469 41.4977136"></polygon>
                            <polygon id="-" fill="#FFFFFF" opacity="0.200837054" transform="translate(16.300786, 25.821850) scale(-1, 1) translate(-16.300786, -25.821850) " points="0.617988343 17.5510274 0.470421618 16.1934135 32.1082507 33.8090516 32.1311507 35.4502874"></polygon>
                            <polygon id="-" fill="#FFFFFF" opacity="0.200837054" transform="translate(17.029543, 14.321166) scale(-1, 1) translate(-17.029543, -14.321166) " points="0.797643969 5.79472773 0.623972158 4.19694707 33.4142223 22.9480529 33.4351144 24.4453842"></polygon>
                            <polygon id="-" fill="#FFFFFF" opacity="0.200837054" transform="translate(16.715779, 19.742995) scale(-1, 1) translate(-16.715779, -19.742995) " points="0.811466336 11.6951509 0.542806247 9.22347807 32.8664944 28.6672883 32.8887524 30.2625112"></polygon>
                        </g>
                        <g id="Left" transform="translate(19.000000, 59.500000) scale(-1, 1) translate(-19.000000, -59.500000) translate(2.000000, 28.000000)">
                            <path d="M33.5200195,63 L4.61999512,44 L0.0300292969,1.02999878 C3.17808769,0.816163119 6.04140963,1.51584095 8.61999512,3.12903226 C11.1985806,4.74222357 13.6985806,6.8067397 16.1199951,9.32258065 C18.9808067,9.84235386 21.4808067,10.7713903 23.6199951,12.10969 C25.7591835,13.4479897 29.0825071,16.0614305 33.5899658,19.9500122 L33.5200195,63 Z" id="right" fill="#3DA7D0" transform="translate(16.809998, 31.996229) scale(-1, 1) translate(-16.809998, -31.996229) "></path>
                            <polygon id="-" fill="#FFFFFF" opacity="0.199999988" transform="translate(14.781679, 48.666194) scale(-1, 1) translate(-14.781679, -48.666194) " points="0.217885436 40.8754497 0.0533481328 39.3617065 29.4824455 55.9951634 29.5100098 57.9706806"></polygon>
                            <polygon id="--copy-2" fill="#FFFFFF" opacity="0.199999988" transform="translate(15.031679, 43.264479) scale(-1, 1) translate(-15.031679, -43.264479) " points="0.213382312 35.4737346 0.0533481328 33.9599915 29.9824455 50.5934484 30.0100098 52.5689655"></polygon>
                            <polygon id="-" fill="#FFFFFF" opacity="0.199999988" transform="translate(15.417683, 37.443566) scale(-1, 1) translate(-15.417683, -37.443566) " points="0.317540592 29.5220307 0.145425573 27.9385725 30.6636801 45.0664254 30.6899414 46.9485587"></polygon>
                            <polygon id="-" fill="#FFFFFF" opacity="0.199999988" transform="translate(15.745197, 31.768421) scale(-1, 1) translate(-15.745197, -31.768421) " points="0.369860469 23.6906774 0.190344252 22.0391282 31.2706634 39.3916687 31.3000488 41.4977136"></polygon>
                            <polygon id="-" fill="#FFFFFF" opacity="0.199999988" transform="translate(16.050049, 25.821850) scale(-1, 1) translate(-16.050049, -25.821850) " points="0.31761067 17.5510274 0.170043945 16.1934135 31.9101563 33.8090516 31.9300537 35.4502874"></polygon>
                            <polygon id="-" fill="#FFFFFF" opacity="0.199999988" transform="translate(16.635010, 14.321166) scale(-1, 1) translate(-16.635010, -14.321166) " points="0.203701107 5.79472773 0.0300292969 4.19694707 33.2199707 22.9480529 33.2399902 24.4453842"></polygon>
                            <polygon id="-" fill="#FFFFFF" opacity="0.199999988" transform="translate(16.375000, 19.742995) scale(-1, 1) translate(-16.375000, -19.742995) " points="0.328718683 11.6951509 0.0600585938 9.22347807 32.6899414 28.6672883 32.6500244 30.2625112"></polygon>
                        </g>
                    </g>
                    <g id="1" transform="translate(12.000000, 69.000000)" fill-rule="nonzero">
                        <polygon id="XMLID_4985_-Copy-6" fill="#2984A7" points="74 72 78.9000244 23.7999878 77.1800537 25"></polygon>
                        <polygon id="XMLID_4985_-Copy-5" fill="#2984A7" points="4 24 0 22 7 72"></polygon>
                        <polygon id="XMLID_4985_-Copy" fill="#4099BD" points="40 49.7000122 38 48 36 48 2.41320099 29.0294709 4 28 0 26 4 24 0 22 39 0 78.9000244 23.7999878 77.1999512 25 80 26.2000122 76.3000488 28 78 29 45 48 43 48"></polygon>
                        <polygon id="XMLID_4985_-Copy-2" fill="#2984A7" points="40 49.7000122 38 48 36 48 2.41320099 29.0294709 4 28 -2.27373675e-13 26 7 72 36 91 38 90 40 92 43 90 44.5 91 74 72 80 26.2000122 76.3000488 28 78 29 44.5 48 43 48"></polygon>
                        <polygon id="XMLID_4985_-Copy-4" fill="#70CAED" opacity="0.257477679" points="38 48 36 48 36 91 38 90"></polygon>
                        <polygon id="XMLID_4985_-Copy-3" fill="#70CAED" opacity="0.598772321" points="40 49.7000122 40 92 43 90 43 48"></polygon>
                        <g id="Right" transform="translate(44.000000, 29.000000)">
                            <path d="M34,62 L5.09997559,44 L0.0999755859,0 C3.5213901,0.437220916 6.5213901,1.43722092 9.09997559,3 C11.6785611,4.56277908 14.1785611,6.56277908 16.5999756,9 C19.4607872,9.5035303 21.9607872,10.4035344 24.0999756,11.7000122 C26.239164,12.99649 29.4058307,15.4298193 33.5999756,19 L34,62 Z" id="right" fill="#70CAED" transform="translate(17.049988, 31.000000) scale(-1, 1) translate(-17.049988, -31.000000) "></path>
                            <polygon id="-" fill="#FFFFFF" opacity="0.200837054" transform="translate(14.884527, 48.666194) scale(-1, 1) translate(-14.884527, -48.666194) " points="0.320733664 40.8754497 0.15619636 39.3617065 29.5852938 55.9951634 29.612858 57.9706806"></polygon>
                            <polygon id="-" fill="#FFFFFF" opacity="0.200837054" transform="translate(15.239388, 42.936187) scale(-1, 1) translate(-15.239388, -42.936187) " points="0.432214713 35.3716449 0.235124092 33.5584111 30.218229 50.4919821 30.243651 52.313963"></polygon>
                            <polygon id="-" fill="#FFFFFF" opacity="0.200837054" transform="translate(15.582245, 37.443566) scale(-1, 1) translate(-15.582245, -37.443566) " points="0.482102169 29.5220307 0.309987151 27.9385725 30.8282417 45.0664254 30.854503 46.9485587"></polygon>
                            <polygon id="-" fill="#FFFFFF" opacity="0.200837054" transform="translate(15.940895, 31.768421) scale(-1, 1) translate(-15.940895, -31.768421) " points="0.565558577 23.6906774 0.386042361 22.0391282 31.4663615 39.3916687 31.4957469 41.4977136"></polygon>
                            <polygon id="-" fill="#FFFFFF" opacity="0.200837054" transform="translate(16.300786, 25.821850) scale(-1, 1) translate(-16.300786, -25.821850) " points="0.617988343 17.5510274 0.470421618 16.1934135 32.1082507 33.8090516 32.1311507 35.4502874"></polygon>
                            <polygon id="-" fill="#FFFFFF" opacity="0.200837054" transform="translate(17.029543, 14.321166) scale(-1, 1) translate(-17.029543, -14.321166) " points="0.797643969 5.79472773 0.623972158 4.19694707 33.4142223 22.9480529 33.4351144 24.4453842"></polygon>
                            <polygon id="-" fill="#FFFFFF" opacity="0.200837054" transform="translate(16.715779, 19.742995) scale(-1, 1) translate(-16.715779, -19.742995) " points="0.811466336 11.6951509 0.542806247 9.22347807 32.8664944 28.6672883 32.8887524 30.2625112"></polygon>
                        </g>
                        <g id="Left" transform="translate(19.000000, 59.500000) scale(-1, 1) translate(-19.000000, -59.500000) translate(2.000000, 28.000000)">
                            <path d="M33.5200195,63 L4.61999512,44 L0.0300292969,1.02999878 C3.17808769,0.816163119 6.04140963,1.51584095 8.61999512,3.12903226 C11.1985806,4.74222357 13.6985806,6.8067397 16.1199951,9.32258065 C18.9808067,9.84235386 21.4808067,10.7713903 23.6199951,12.10969 C25.7591835,13.4479897 29.0825071,16.0614305 33.5899658,19.9500122 L33.5200195,63 Z" id="right" fill="#3DA7D0" transform="translate(16.809998, 31.996229) scale(-1, 1) translate(-16.809998, -31.996229) "></path>
                            <polygon id="-" fill="#FFFFFF" opacity="0.199999988" transform="translate(14.781679, 48.666194) scale(-1, 1) translate(-14.781679, -48.666194) " points="0.217885436 40.8754497 0.0533481328 39.3617065 29.4824455 55.9951634 29.5100098 57.9706806"></polygon>
                            <polygon id="--copy-2" fill="#FFFFFF" opacity="0.199999988" transform="translate(15.031679, 43.264479) scale(-1, 1) translate(-15.031679, -43.264479) " points="0.213382312 35.4737346 0.0533481328 33.9599915 29.9824455 50.5934484 30.0100098 52.5689655"></polygon>
                            <polygon id="-" fill="#FFFFFF" opacity="0.199999988" transform="translate(15.417683, 37.443566) scale(-1, 1) translate(-15.417683, -37.443566) " points="0.317540592 29.5220307 0.145425573 27.9385725 30.6636801 45.0664254 30.6899414 46.9485587"></polygon>
                            <polygon id="-" fill="#FFFFFF" opacity="0.199999988" transform="translate(15.745197, 31.768421) scale(-1, 1) translate(-15.745197, -31.768421) " points="0.369860469 23.6906774 0.190344252 22.0391282 31.2706634 39.3916687 31.3000488 41.4977136"></polygon>
                            <polygon id="-" fill="#FFFFFF" opacity="0.199999988" transform="translate(16.050049, 25.821850) scale(-1, 1) translate(-16.050049, -25.821850) " points="0.31761067 17.5510274 0.170043945 16.1934135 31.9101563 33.8090516 31.9300537 35.4502874"></polygon>
                            <polygon id="-" fill="#FFFFFF" opacity="0.199999988" transform="translate(16.635010, 14.321166) scale(-1, 1) translate(-16.635010, -14.321166) " points="0.203701107 5.79472773 0.0300292969 4.19694707 33.2199707 22.9480529 33.2399902 24.4453842"></polygon>
                            <polygon id="-" fill="#FFFFFF" opacity="0.199999988" transform="translate(16.375000, 19.742995) scale(-1, 1) translate(-16.375000, -19.742995) " points="0.328718683 11.6951509 0.0600585938 9.22347807 32.6899414 28.6672883 32.6500244 30.2625112"></polygon>
                        </g>
                    </g>
                    <g id="second" transform="translate(40.000000, 49.000000)">
                        <polygon id="Rectangle-6" fill="#3DA7D0" points="0.199951172 8 12.1999512 15 12.1999512 53 0.199951172 46"></polygon>
                        <polygon id="Rectangle-6-Copy-12" fill="#FFFFFF" opacity="0.200000018" points="12.1999512 18 12.1999512 19.5 0.199951172 12.5 0.199951172 11"></polygon>
                        <polygon id="Rectangle-6-Copy-13" fill="#FFFFFF" opacity="0.200000018" points="12.1999512 26 12.1999512 27.5 0.199951172 20.5 0.199951172 19"></polygon>
                        <polygon id="Rectangle-6-Copy-14" fill="#FFFFFF" opacity="0.200000018" points="12.1999512 22 12.1999512 23.5 0.199951172 16.5 0.199951172 15"></polygon>
                        <polygon id="Rectangle-6-Copy-15" fill="#FFFFFF" opacity="0.200000018" points="12.1999512 30 12.1999512 31.5 0.199951172 24.5 0.199951172 23"></polygon>
                        <polygon id="Rectangle-6-Copy-16" fill="#FFFFFF" opacity="0.200000018" points="12.1999512 34 12.1999512 35.5 0.199951172 28.5 0.199951172 27"></polygon>
                        <polygon id="Rectangle-6-Copy-17" fill="#FFFFFF" opacity="0.200000018" points="12.1999512 42 12.1999512 43.5 0.199951172 36.5 0.199951172 35"></polygon>
                        <polygon id="Rectangle-6-Copy-18" fill="#FFFFFF" opacity="0.200000018" points="12.1999512 38 12.1999512 39.5 0.199951172 32.5 0.199951172 31"></polygon>
                        <polygon id="Rectangle-6-Copy-19" fill="#FFFFFF" opacity="0.200000018" points="12.1999512 46 12.1999512 47.5 0.199951172 40.5 0.199951172 39"></polygon>
                        <polygon id="Rectangle-6-Copy-20" fill="#FFFFFF" opacity="0.200000018" points="12.1999512 50 12.1999512 51.5 0.199951172 44.5 0.199951172 43"></polygon>
                        <polygon id="Rectangle-6-Copy" fill="#70CAED" transform="translate(18.199951, 30.500000) scale(-1, 1) translate(-18.199951, -30.500000) " points="12.1999512 8 24.1999512 15 24.1999512 53 12.1999512 46"></polygon>
                        <polygon id="Rectangle-6-Copy-3" fill="#FFFFFF" opacity="0.200000003" transform="translate(18.199951, 15.250000) scale(-1, 1) translate(-18.199951, -15.250000) " points="24.1999512 18 24.1999512 19.5 12.1999512 12.5 12.1999512 11"></polygon>
                        <polygon id="Rectangle-6-Copy-4" fill="#FFFFFF" opacity="0.200000003" transform="translate(18.199951, 23.250000) scale(-1, 1) translate(-18.199951, -23.250000) " points="24.1999512 26 24.1999512 27.5 12.1999512 20.5 12.1999512 19"></polygon>
                        <polygon id="Rectangle-6-Copy-9" fill="#FFFFFF" opacity="0.200000003" transform="translate(18.199951, 19.250000) scale(-1, 1) translate(-18.199951, -19.250000) " points="24.1999512 22 24.1999512 23.5 12.1999512 16.5 12.1999512 15"></polygon>
                        <polygon id="Rectangle-6-Copy-5" fill="#FFFFFF" opacity="0.200000003" transform="translate(18.199951, 31.250000) scale(-1, 1) translate(-18.199951, -31.250000) " points="24.1999512 34 24.1999512 35.5 12.1999512 28.5 12.1999512 27"></polygon>
                        <polygon id="Rectangle-6-Copy-8" fill="#FFFFFF" opacity="0.200000003" transform="translate(18.199951, 27.250000) scale(-1, 1) translate(-18.199951, -27.250000) " points="24.1999512 30 24.1999512 31.5 12.1999512 24.5 12.1999512 23"></polygon>
                        <polygon id="Rectangle-6-Copy-6" fill="#FFFFFF" opacity="0.200000003" transform="translate(18.199951, 39.250000) scale(-1, 1) translate(-18.199951, -39.250000) " points="24.1999512 42 24.1999512 43.5 12.1999512 36.5 12.1999512 35"></polygon>
                        <polygon id="Rectangle-6-Copy-10" fill="#FFFFFF" opacity="0.200000003" transform="translate(18.199951, 43.250000) scale(-1, 1) translate(-18.199951, -43.250000) " points="24.1999512 46 24.1999512 47.5 12.1999512 40.5 12.1999512 39"></polygon>
                        <polygon id="Rectangle-6-Copy-11" fill="#FFFFFF" opacity="0.200000003" transform="translate(18.199951, 47.250000) scale(-1, 1) translate(-18.199951, -47.250000) " points="24.1999512 50 24.1999512 51.5 12.1999512 44.5 12.1999512 43"></polygon>
                        <polygon id="Rectangle-6-Copy-7" fill="#FFFFFF" opacity="0.200000003" transform="translate(18.199951, 35.250000) scale(-1, 1) translate(-18.199951, -35.250000) " points="24.1999512 38 24.1999512 39.5 12.1999512 32.5 12.1999512 31"></polygon>
                        <polygon id="Rectangle-6-Copy-2" fill="#4099BD" transform="translate(12.199951, 7.700012) scale(-1, 1) translate(-12.199951, -7.700012) " points="0.199951172 8 12.1999512 15 24.1999512 8 12.1999512 0.400024414"></polygon>
                    </g>
                    <g id="top" transform="translate(45.000000, 0.000000)">
                        <polygon id="Rectangle-6-Copy-22" fill="#EBEBEB" points="1.19995117 46.5 7.19995117 50 7.19995117 61 1.19995117 57.5"></polygon>
                        <polygon id="Rectangle-6-Copy-23" fill="#FCFCFC" transform="translate(10.199951, 53.750000) scale(-1, 1) translate(-10.199951, -53.750000) " points="7.19995117 46.5 13.1999512 50 13.1999512 61 7.19995117 57.5"></polygon>
                        <g id="Oval">
                            <use fill="black" fill-opacity="1" filter="url(#filter-4)" xlink:href="#path-3"></use>
                            <use fill="#FFFFFF" fill-rule="evenodd" xlink:href="#path-3"></use>
                        </g>
                        <ellipse id="Oval-Copy-2" fill="#FFFFFF" cx="7" cy="47.5" rx="7" ry="4.5"></ellipse>
                        <path d="M7,52 C10.8659932,52 14,50.0605549 14,47.6681282 C12.1333333,51.1336256 8.4,51.1336256 4.66666667,50.2672513 C0.933333333,49.4008769 0,47.6681282 0.923247095,45.5164058 C0.335835373,46.1503439 0,46.8849656 0,47.6681282 C0,50.0605549 3.13400675,52 7,52 Z" id="Oval-Copy" fill="#F5F5F5"></path>
                        <polygon id="XMLID_4593_" fill="#FCFCFC" fill-rule="nonzero" points="7 0 7 0 9.5 43.4 7.6 44.3"></polygon>
                        <polygon id="XMLID_3468_" fill="#EBEBEB" fill-rule="nonzero" points="7.1 0 7.7 44.3 5 43"></polygon>
                    </g>
                    <g id="Ｏ" transform="translate(69.000000, 335.000000)">
                        <ellipse id="Oval-2" fill="#E3E3E3" cx="5" cy="6.5" rx="5" ry="6.5"></ellipse>
                        <ellipse id="Oval-2-Copy" fill="#FAFAFA" cx="5.20499992" cy="6.68055556" rx="4.79500008" ry="6.31944444"></ellipse>
                    </g>
                    <g id="Ｏ" transform="translate(30.000000, 340.500000) scale(-1, 1) translate(-30.000000, -340.500000) translate(25.000000, 334.000000)">
                        <ellipse id="Oval-2" fill="#E3E3E3" cx="5" cy="6.5" rx="5" ry="6.5"></ellipse>
                        <ellipse id="Oval-2-Copy" fill="#FAFAFA" cx="5.20499992" cy="6.68055556" rx="4.79500008" ry="6.31944444"></ellipse>
                    </g>
                </g>
                <g id="tree-md" transform="translate(166.000000, 400.000000)" fill-rule="nonzero">
                    <g id="XMLID_3491_" opacity="0.11" transform="translate(4.000000, 20.000000)" fill="#060606">
                        <path d="M23.7,2.6 C29.1,5.7 29.2,10.8 23.8,14 C18.4,17.1 9.6,17.1 4.1,14 C-1.3,10.9 -1.4,5.8 4,2.6 C9.4,-0.6 18.2,-0.6 23.7,2.6 Z" id="XMLID_3492_"></path>
                    </g>
                    <g id="XMLID_3484_">
                        <path d="M14.5,27.9 L13.2,26.5 C12.8,26.1 12.3,25.6 12.3,24.1 L12.3,18.1 L12.1,18.1 L12.1,24.3 C12.1,25.7 12.5,26.2 13.1,26.8 C14,27.7 14.2,28 14.6,28.4 L14.6,28 L14.5,27.9 Z" id="XMLID_3490_" fill="#775A20"></path>
                        <path d="M14.9,28.5 L16.2,27.2 C16.6,26.8 17.1,26.3 17.1,24.8 L17.1,18.8 L17.3,18.8 L17.3,25 C17.3,26.4 16.9,26.9 16.3,27.5 C15.4,28.4 15.2,28.7 14.8,29.1 L14.8,28.6 L14.9,28.5 Z" id="XMLID_3489_" fill="#775A20"></path>
                        <path d="M14.3,16.7 L15,16.7 L15.4,29.4 C15.4,29.4 15.3,30 14.7,30 C14,30 14,29.4 14,29.4 L14.3,16.7 Z" id="XMLID_3488_" fill="#775A20"></path>
                        <path d="M33,13 C33,11.3 31.7,9.8 30.1,9.5 C30,6.3 27.3,3.8 24.1,3.8 C23.6,3.8 23.2,3.9 22.8,3.9 C22.3,2.1 20.7,0.9 18.8,0.9 C17.9,0.9 17,1.2 16.3,1.8 C15.3,0.7 14,0 12.4,0 C9.6,0 7.3,2.3 7.2,5.1 C7.1,5.1 7.1,5.1 7,5.1 C4.4,5.1 2.3,7.2 2.3,9.8 C2.3,9.9 2.3,10 2.3,10.1 C1,10.8 0.1,12.1 0.1,13.7 C0.1,15.5 1.3,17 2.9,17.5 C2.9,17.6 2.9,17.7 2.9,17.8 C2.9,21.9 6.2,25.1 10.2,25.1 C11,25.1 11.9,24.9 12.6,24.7 C13.7,26 15.3,26.9 17.1,26.9 C19.4,26.9 21.4,25.5 22.4,23.5 C23,23.7 23.7,23.8 24.4,23.8 C27.7,23.8 30.4,21.1 30.4,17.8 C30.4,17.3 30.3,16.9 30.2,16.5 C31.8,16.1 33,14.7 33,13 Z" id="XMLID_3487_" fill="#4B6D0F"></path>
                        <path d="M9.6,9.8 C9.6,9.7 9.6,9.7 9.6,9.6 C9.6,7.6 11.2,5.9 13.3,5.9 C14.8,5.9 16.1,6.8 16.6,8.1 C17.1,7.7 17.9,7.1 18.5,7 C23.5,6 23.5,11.7 23.6,11.5 C23.8,11.3 24.5,8.2 22.3,6.4 C19.1,3.9 16.9,5.6 16.4,5.8 C15.8,4.5 14.3,3.4 12.8,3.4 C10.8,3.4 9.2,4.7 9.2,6.7 C9.2,6.8 9.1,7.9 9.1,8 C8,8.2 5.9,9.4 5.9,11.6 C5.9,12.3 6.1,13 6.3,13.6 C6.7,11.8 7.9,10.4 9.6,9.8 Z" id="XMLID_3486_" fill="#71991C"></path>
                        <path d="M18.1,11.9 C19.5,12.4 20.4,13.6 20.5,15 C21.2,14.7 22.5,15.1 23,15.3 C25.3,16.1 26,18.3 25.3,20.6 C25.7,20.2 26,19.7 26.2,19.1 C26.9,17 25.8,14.6 23.7,13.9 C23.3,13.7 22.8,13.7 22.4,13.7 C22.3,12.5 21.6,11.5 20.4,11.1 C19.3,10.7 18.2,11 17.4,11.7 C17.6,11.8 17.9,11.8 18.1,11.9 Z" id="XMLID_3485_" fill="#71991C"></path>
                    </g>
                </g>
                <g id="tree-sm" transform="translate(140.000000, 433.000000)" fill-rule="nonzero">
                    <g id="XMLID_3481_" opacity="0.11" transform="translate(3.000000, 14.000000)" fill="#060606">
                        <path d="M16.5,1.8 C20.1,3.9 20.2,7.3 16.5,9.4 C12.9,11.5 7,11.5 3.4,9.4 C-0.2,7.3 -0.3,3.9 3.4,1.8 C6.9,-0.4 12.8,-0.4 16.5,1.8 Z" id="XMLID_3482_"></path>
                    </g>
                    <g id="XMLID_3474_">
                        <path d="M10.6,19.3 L9.7,18.4 C9.4,18.1 9.1,17.8 9.1,16.8 L9.1,12.8 L9,12.8 L9,17 C9,17.9 9.2,18.3 9.6,18.7 C10.2,19.3 10.4,19.5 10.6,19.8 L10.6,19.5 L10.6,19.3 Z" id="XMLID_3480_" fill="#775A20"></path>
                        <path d="M10.9,19.7 L11.8,18.8 C12.1,18.5 12.4,18.2 12.4,17.2 L12.4,13.2 L12.5,13.2 L12.5,17.4 C12.5,18.3 12.3,18.7 11.9,19.1 C11.3,19.7 11.1,19.9 10.9,20.2 L10.9,19.9 L10.9,19.7 Z" id="XMLID_3479_" fill="#775A20"></path>
                        <path d="M10.5,11.8 L10.9,11.8 L11.2,20.3 C11.2,20.3 11.1,20.7 10.7,20.7 C10.2,20.7 10.2,20.3 10.2,20.3 L10.5,11.8 Z" id="XMLID_3478_" fill="#775A20"></path>
                        <path d="M23,9.3 C23,8.1 22.2,7.2 21,7 C20.9,4.9 19.2,3.2 17,3.2 C16.7,3.2 16.4,3.2 16.1,3.3 C15.8,2.1 14.7,1.3 13.4,1.3 C12.8,1.3 12.2,1.5 11.7,1.9 C11.1,1.2 10.1,0.7 9.1,0.7 C7.2,0.7 5.7,2.2 5.6,4.1 C5.5,4.1 5.5,4.1 5.4,4.1 C3.6,4.1 2.2,5.5 2.2,7.3 C2.2,7.4 2.2,7.5 2.2,7.5 C1.3,7.9 0.7,8.8 0.7,9.9 C0.7,11.1 1.5,12.1 2.6,12.4 C2.6,12.5 2.6,12.5 2.6,12.6 C2.6,15.3 4.8,17.5 7.5,17.5 C8.1,17.5 8.6,17.4 9.1,17.2 C9.8,18.1 10.9,18.7 12.1,18.7 C13.7,18.7 15,17.8 15.6,16.4 C16,16.5 16.5,16.6 16.9,16.6 C19.1,16.6 20.9,14.8 20.9,12.6 C20.9,12.3 20.9,12 20.8,11.7 C22.2,11.4 23,10.5 23,9.3 Z" id="XMLID_3477_" fill="#4B6D0F"></path>
                        <path d="M7.4,7.2 C7.4,7.2 7.4,7.1 7.4,7.1 C7.4,5.8 8.5,4.7 9.8,4.7 C10.8,4.7 11.7,5.3 12,6.2 C12.3,5.9 12.9,5.5 13.3,5.5 C16.6,4.8 16.6,8.6 16.7,8.5 C16.9,8.4 17.3,6.3 15.8,5.1 C13.7,3.4 12.2,4.6 11.8,4.7 C11.4,3.8 10.4,3.1 9.4,3.1 C8,3.1 7,4 7,5.3 C7,5.3 6.9,6.1 6.9,6.1 C6.2,6.3 4.8,7.1 4.8,8.5 C4.8,9 4.9,9.4 5.1,9.9 C5.4,8.5 6.3,7.6 7.4,7.2 Z" id="XMLID_3476_" fill="#71991C"></path>
                        <path d="M13.1,8.6 C14,8.9 14.6,9.8 14.7,10.7 C15.1,10.5 16,10.8 16.4,10.9 C17.9,11.4 18.4,12.9 18,14.5 C18.3,14.2 18.5,13.9 18.6,13.5 C19.1,12.1 18.3,10.5 16.9,10 C16.6,9.9 16.3,9.8 16,9.8 C15.9,9 15.4,8.3 14.7,8.1 C14,7.8 13.2,8 12.7,8.5 C12.7,8.5 12.9,8.6 13.1,8.6 Z" id="XMLID_3475_" fill="#71991C"></path>
                    </g>
                </g>
            </g>
        </g>
    </g>
</svg>