<?xml version="1.0" encoding="UTF-8"?>
<svg width="38px" height="40px" viewBox="0 0 38 40" version="1.1" xmlns="http://www.w3.org/2000/svg" xmlns:xlink="http://www.w3.org/1999/xlink">
    <!-- Generator: Sketch 50.2 (55047) - http://www.bohemiancoding.com/sketch -->
    <title>svg/Logo</title>
    <desc>Created with Sketch.</desc>
    <defs>
        <polygon id="path-1" points="0.0142057872 6.43922721 17.953976 0.0468834945 36.3766957 6.32559255 33.3938483 30.0626217 17.953976 38.6141816 2.75559687 30.1762564"></polygon>
        <polygon id="path-3" points="9.2438655 3.18623802 18.4552253 6.32559255 15.4723779 30.0626217 0.0325056581 38.6141816 0.0325056581 0.0468834945"></polygon>
        <polygon id="path-5" points="4.31987261 1.43409046e-13 5.09826415 0.265286237 5.09826415 3.31695467 5.40687081 3.31695467 5.89469219 3.31695467 5.40687081 3.8992666 5.40687081 4.2511556 5.60442743 4.2511556 5.60442743 5.40931457 6.14606577 5.40931457 5.71227159 6.56642234 6.01504458 6.56642234 6.01504458 6.89860136 5.71721182 6.89860136 5.71721182 8.29995532 7.30386633 8.29995532 6.97886231 9.51487905 9.44845143 9.51487905 8.10949161 14.7786551 9.44845143 14.7786551 8.16162679 19.3824355 9.44845143 19.3824355 8.10949161 24.1724885 9.44845143 24.1724885 8.23309064 28.520373 1.0021684 32.5253066 0.00616477558 28.9623838 1.34520869 28.9623838 0.00616477558 24.1723308 1.34520869 24.1723308 0.00616477558 19.3822778 1.29301044 19.3822778 0.00616477558 14.7784974 1.34520869 14.7784974 0.00616477558 9.51487905 2.32506114 9.51487905 1.95133804 8.29990276 3.53116558 8.29990276 3.53116558 6.89860136 3.2211294 6.89860136 3.2211294 6.56642234 3.56071236 6.56642234 3.05178464 5.40931457 3.64391318 5.40931457 3.64391318 4.2511556 3.84834407 4.2511556 3.84834407 3.8992666 3.36040182 3.31695467 3.84834407 3.31695467 4.11305628 3.31695467 4.11305628 0 4.31987261 0"></polygon>
        <linearGradient x1="58.7301587%" y1="7.89115646%" x2="58.7301587%" y2="147.210884%" id="linearGradient-7">
            <stop stop-color="#E23237" offset="0%"></stop>
            <stop stop-color="#B52E31" offset="100%"></stop>
        </linearGradient>
        <polygon id="path-8" points="4.31987261 1.43409046e-13 5.09826415 0.265286237 5.09826415 3.31695467 5.40687081 3.31695467 5.89469219 3.31695467 5.40687081 3.8992666 5.40687081 4.2511556 5.60442743 4.2511556 5.60442743 5.40931457 6.14606577 5.40931457 5.71227159 6.56642234 6.01504458 6.56642234 6.01504458 6.89860136 5.71721182 6.89860136 5.71721182 8.29995532 7.30386633 8.29995532 6.97886231 9.51487905 9.44845143 9.51487905 8.10949161 14.7786551 9.44845143 14.7786551 8.16162679 19.3824355 9.44845143 19.3824355 8.10949161 24.1724885 9.44845143 24.1724885 8.23309064 28.520373 1.0021684 32.5253066 0.00616477558 28.9623838 1.34520869 28.9623838 0.00616477558 24.1723308 1.34520869 24.1723308 0.00616477558 19.3822778 1.29301044 19.3822778 0.00616477558 14.7784974 1.34520869 14.7784974 0.00616477558 9.51487905 2.32506114 9.51487905 1.95133804 8.29990276 3.53116558 8.29990276 3.53116558 6.89860136 3.2211294 6.89860136 3.2211294 6.56642234 3.56071236 6.56642234 3.05178464 5.40931457 3.64391318 5.40931457 3.64391318 4.2511556 3.84834407 4.2511556 3.84834407 3.8992666 3.36040182 3.31695467 3.84834407 3.31695467 4.11305628 3.31695467 4.11305628 0 4.31987261 0"></polygon>
        <linearGradient x1="74.59557%" y1="7.89115646%" x2="74.59557%" y2="107.363946%" id="linearGradient-10">
            <stop stop-color="#E23237" offset="0%"></stop>
            <stop stop-color="#B52E31" offset="100%"></stop>
        </linearGradient>
        <path d="M0.0324425913,24.8321687 L11.1501502,0.0298015038 L22.8685319,24.9742383 L18.8771787,24.9032298 L16.3589599,19.245254 L11.2031263,19.245254 L11.0892382,19.245254 L6.33086714,19.245254 L4.14753277,24.8321687 L0.0324425913,24.8321687 Z M14.9568492,15.1086791 L11.1785618,7.21054479 L7.85480176,15.1086791 L11.1216283,13.6426764 L11.1216283,15.1086791 L14.9568492,15.1086791 Z" id="path-11"></path>
        <path d="M1.78196175,0 L1.78196175,0.377801074 L1.10859798,0.377801074 L1.10859798,2.3488 L0.673369029,2.3488 L0.673369029,0.377801074 L0,0.377801074 L0,0 L1.78196175,0 Z M2.02339181,2.3488 L1.57666895,2.3488 L2.57358621,0 L3.04165717,0 L4.05992253,2.3488 L3.59185157,2.3488 L3.32414369,1.70819907 L2.54401841,1.70819907 L2.69347611,1.33039799 L3.1664768,1.33039799 L2.79694764,0.448389116 L2.02339181,2.3488 Z M4.78256247,0 L4.78256247,2.3488 L4.34733877,2.3488 L4.34733877,0 L4.78256247,0 Z M5.08639708,0 L5.52819549,0 L5.77947973,1.68685972 L6.39043895,0 L6.80923901,0 L7.3807815,1.62115976 L7.64684438,0 L8.07549863,0 L7.63370548,2.3488 L7.21982988,2.3488 L6.57438366,0.505889724 L5.88130101,2.3488 L5.47235513,2.3488 L5.08639708,0 Z M8.6207633,2.3488 L8.17404043,2.3488 L9.1709577,0 L9.63902866,0 L10.657294,2.3488 L10.1892231,2.3488 L9.92151518,1.70819907 L9.14139515,1.70819907 L9.2908476,1.33039799 L9.76384829,1.33039799 L9.39431913,0.448389116 L8.6207633,2.3488 Z M10.9447103,2.3488 L10.9447103,0 L11.379934,0 L12.619921,1.71145779 L12.619921,0 L13.0387263,0 L13.0387263,2.3488 L12.6034974,2.3488 L11.3635156,0.601180952 L11.3635156,2.3488 L10.9447103,2.3488 Z" id="path-13"></path>
    </defs>
    <g id="Page-1" stroke="none" stroke-width="1" fill="none" fill-rule="evenodd">
        <g id="spec---intro+speaker" transform="translate(-86.000000, -16.000000)">
            <g id="Header">
                <g id="title" transform="translate(85.000000, 16.000000)">
                    <g id="svg/Logo">
                        <rect id="base" fill-opacity="0" fill="#FFFFFF" x="0" y="0" width="40" height="40"></rect>
                        <g id="Left" transform="translate(1.789474, 0.684211)">
                            <mask id="mask-2" fill="white">
                                <use xlink:href="#path-1"></use>
                            </mask>
                            <g id="Clip-6"></g>
                            <polygon id="Fill-5" fill="#E23237" mask="url(#mask-2)" points="-0.24857237 38.8769815 36.6394686 38.8769815 36.6394686 -0.215921618 -0.24857237 -0.215921618"></polygon>
                        </g>
                        <g id="Right" transform="translate(19.710944, 0.684211)">
                            <g id="Group-13">
                                <mask id="mask-4" fill="white">
                                    <use xlink:href="#path-3"></use>
                                </mask>
                                <g id="Clip-12"></g>
                                <polygon id="Fill-11" fill="#B52E31" mask="url(#mask-4)" points="-0.230272499 38.8769815 18.717993 38.8769815 18.717993 -0.215921618 -0.230272499 -0.215921618"></polygon>
                            </g>
                            <g id="Group-20" transform="translate(4.519784, 3.048478)">
                                <g id="Group-16">
                                    <mask id="mask-6" fill="white">
                                        <use xlink:href="#path-5"></use>
                                    </mask>
                                    <g id="Clip-15"></g>
                                    <polygon id="Fill-14" fill="url(#linearGradient-7)" mask="url(#mask-6)" points="-22.4412547 35.5831006 13.979798 35.5831006 13.979798 -3.04847834 -22.4412547 -3.04847834"></polygon>
                                </g>
                                <g id="Group-19">
                                    <mask id="mask-9" fill="white">
                                        <use xlink:href="#path-8"></use>
                                    </mask>
                                    <g id="Clip-18"></g>
                                    <polygon id="Fill-17" fill="url(#linearGradient-10)" mask="url(#mask-9)" points="-22.4412547 35.5831006 13.979798 35.5831006 13.979798 -3.04847834 -22.4412547 -3.04847834"></polygon>
                                </g>
                            </g>
                        </g>
                        <g id="Center" transform="translate(8.621706, 5.992768)">
                            <mask id="mask-12" fill="white">
                                <use xlink:href="#path-11"></use>
                            </mask>
                            <g id="Clip-23"></g>
                            <polygon id="Fill-22" fill="#FFFFFF" mask="url(#mask-12)" points="-0.230335566 25.2370382 23.1313101 25.2370382 23.1313101 -0.233008865 -0.230335566 -0.233008865"></polygon>
                        </g>
                        <g id="Taiwan" transform="translate(13.456824, 22.076119)">
                            <mask id="mask-14" fill="white">
                                <use xlink:href="#path-13"></use>
                            </mask>
                            <g id="Clip-26"></g>
                            <polygon id="Fill-25" fill="#E23237" mask="url(#mask-14)" points="-0.262778158 2.61159986 13.3015045 2.61159986 13.3015045 -0.262773577 -0.262778158 -0.262773577"></polygon>
                        </g>
                    </g>
                </g>
            </g>
        </g>
    </g>
</svg>