<svg xmlns="http://www.w3.org/2000/svg" xmlns:xlink="http://www.w3.org/1999/xlink" width="160" height="170" viewBox="0 0 160 170">
  <defs>
    <polygon id="slogan_left-a" points="0 28.146 78.948 0 160 27.644 146.852 132.235 78.948 169.931 12.013 132.75"/>
    <filter id="slogan_left-b" width="102.5%" height="102.4%" x="-1.2%" y="-1.2%" filterUnits="objectBoundingBox">
      <feGaussianBlur in="SourceAlpha" result="shadowBlurInner1" stdDeviation="2"/>
      <feOffset in="shadowBlurInner1" result="shadowOffsetInner1"/>
      <feComposite in="shadowOffsetInner1" in2="SourceAlpha" k2="-1" k3="1" operator="arithmetic" result="shadowInnerInner1"/>
      <feColorMatrix in="shadowInnerInner1" values="0 0 0 0 0   0 0 0 0 0   0 0 0 0 0  0 0 0 0.06 0"/>
    </filter>
  </defs>
  <g fill="none" fill-rule="evenodd">
    <mask id="slogan_left-c" fill="#fff">
      <use xlink:href="#slogan_left-a"/>
    </mask>
    <g fill-rule="nonzero">
      <use fill="#303F9F" fill-rule="evenodd" xlink:href="#slogan_left-a"/>
      <use fill="#000" filter="url(#slogan_left-b)" xlink:href="#slogan_left-a"/>
    </g>
    <polygon fill="#2B3A99" fill-rule="nonzero" points="78.948 0 160 27.644 146.852 132.235 78.948 169.931" mask="url(#slogan_left-c)"/>
    <path fill="#EFC75E" fill-rule="nonzero" d="M47.9538415,28.6830553 C47.2625691,34.9022563 43.8062073,38.3597433 37.5847561,39.0521407 C43.8062073,39.7434131 47.2625691,43.2009 47.9538415,49.4212262 C48.6451139,43.2009 52.1026008,39.7434131 58.324052,39.0521407 C52.1026008,38.3597433 48.6451139,34.9022563 47.9538415,28.6830553 Z" mask="url(#slogan_left-c)"/>
    <path fill="#5B717C" fill-rule="nonzero" d="M124.209641,63.6146337 C123.827101,67.0698704 121.9054,68.9915715 118.449038,69.3763618 C121.9054,69.7589018 123.827101,71.680603 124.209641,75.1358397 C124.594431,71.680603 126.513882,69.7589018 129.970244,69.3763618 C126.513882,68.9915715 124.594431,67.0698704 124.209641,63.6146337 Z M35.5611988,77.3092674 C35.2535916,80.0732317 33.7178058,81.6112677 30.9527164,81.9177498 C33.7178058,82.225357 35.2535916,83.7622678 35.5611988,86.5262322 C35.868806,83.763393 37.4045918,82.2264821 40.1696812,81.9177498 C37.4057169,81.6112677 35.868806,80.0732317 35.5611988,77.3092674 Z" mask="url(#slogan_left-c)"/>
    <g mask="url(#slogan_left-c)">
      <g transform="translate(21 99)">
        <path fill="#A3C4D4" d="M111.272066,80.8983466 C98.6259046,110.319796 64.5229652,123.918642 35.1014368,111.272515 C5.67990844,98.6256405 -7.91897395,64.5227925 4.72793436,35.1013428 C17.3740954,5.67989323 51.4770348,-7.91895275 80.8985632,4.7279217 C110.320092,17.3740489 123.918974,51.476897 111.272066,80.8983466"/>
        <path fill="#005C88" d="M102.618526,20.8528824 C102.335257,21.0774982 102.050502,21.3028578 101.764259,21.529705 C101.600692,21.0856796 101.435637,20.642398 101.26984,20.2006039 C100.977649,19.8227733 100.684715,19.4456864 100.391037,19.0700871 C100.391037,19.0700871 100.310741,19.1303317 100.223009,19.1905764 C100.108512,19.269415 99.9806322,19.34751 99.9999629,19.2932154 C100.032676,19.1965265 100.283975,18.5732547 100.283232,18.5732547 C100.06762,18.4334276 99.8520089,18.2936005 99.635654,18.1537734 C99.5315657,17.9566767 99.4274775,17.75958 99.3226457,17.5624834 C99.1746917,17.4925698 99.0267376,17.4226563 98.8795271,17.3527427 C98.8468136,17.485876 98.8148437,17.6182654 98.7828737,17.7506549 C98.4973745,17.541658 98.2111317,17.3334049 97.9241455,17.1251518 C97.8572317,17.2047343 97.7903178,17.2843167 97.7226604,17.3631554 C97.5590931,17.2991919 97.3947824,17.2344847 97.2312151,17.1705213 C97.267646,17.3720805 97.3040769,17.5743835 97.3405078,17.7766865 C97.2817723,18.0221277 97.2230367,18.2675689 97.1635577,18.5137538 C96.9843772,18.4921847 96.8051967,18.4706156 96.6252727,18.4490466 C96.5903288,18.3583077 96.5553849,18.2675689 96.5196975,18.1760862 C96.4364269,18.1864989 96.3516693,18.1976553 96.2676552,18.208068 C96.2118936,18.3687204 96.1546451,18.5301165 96.09814,18.6907689 C95.9784385,18.460203 95.8579935,18.229637 95.7375485,17.9990711 C95.8981418,17.8495751 96.0579917,17.7000792 96.217098,17.5505832 C95.826767,17.5186015 95.4356926,17.4866197 95.0438746,17.454638 C94.9479647,17.5342204 94.8520548,17.6145466 94.7561449,17.6948728 C94.6557741,17.5989276 94.5554032,17.5029825 94.4542889,17.4070373 C94.477337,17.305142 94.4996417,17.2039905 94.5219463,17.102839 C94.301874,17.0016875 94.0818016,16.900536 93.8609858,16.8001282 C93.548721,16.7681465 93.2349693,16.7369086 92.9212175,16.7056706 C92.9680572,16.8388038 93.0141535,16.9719371 93.0617367,17.1050703 C92.9531875,17.1058141 92.8446383,17.1058141 92.7353456,17.1058141 C92.7197324,16.9622682 92.7041191,16.8179785 92.6877624,16.6744326 C92.5524477,16.7116207 92.4163894,16.7495525 92.2803312,16.7874843 C92.0706677,16.6543511 91.8602607,16.5219616 91.6498537,16.3895721 L91.7896294,16.2296635 C91.9569141,16.2928832 92.1241988,16.3561029 92.2914835,16.4193226 C92.2833051,16.2549514 92.2751268,16.0898364 92.2669484,15.9254652 C92.1814473,15.8622455 92.0959463,15.7990258 92.0097017,15.7358061 C92.083307,15.6450673 92.1569123,15.5550722 92.229774,15.4650771 C92.0476196,15.4814398 91.8654651,15.4978026 91.6825672,15.5141653 C91.5353566,15.5833351 91.3881461,15.6525049 91.240192,15.7216747 C91.0565506,15.6644051 90.8736527,15.6063917 90.6900112,15.5491221 C90.4788607,15.5654848 90.2677103,15.5825914 90.0565598,15.5996979 C89.6104672,15.5855664 89.1628877,15.5729225 88.7145647,15.5595348 C88.5495104,15.4866462 88.3844562,15.4137576 88.2194019,15.3401252 C88.2580633,15.4197077 88.2974681,15.4992901 88.3361295,15.5788725 C88.064013,15.5327594 87.7926401,15.4866462 87.5197801,15.4412767 C87.4090005,15.5543284 87.2967338,15.6673801 87.1852107,15.7804318 C87.164393,15.9455468 87.1428319,16.1114055 87.1212708,16.278008 C86.6617954,16.2504888 86.2008331,16.2229696 85.7383838,16.196938 C85.7101313,15.944803 85.6811353,15.6941555 85.6521393,15.4442518 C85.6454479,15.3163249 85.6387565,15.188398 85.6328086,15.0612148 C85.8038107,15.0113828 85.9748129,14.9615508 86.1465585,14.9124626 C86.4588233,14.9994827 86.7710881,15.0865027 87.0833529,15.1742665 C86.9978518,14.9251066 86.9123507,14.6774341 86.8268497,14.4297617 C86.745066,14.1716766 86.6640259,13.9143352 86.5822423,13.6577377 C86.4045487,13.5803865 86.2275987,13.5030354 86.0499051,13.4256842 C85.7822496,13.1869369 85.5145941,12.9481896 85.2469385,12.710186 C85.2967522,12.9400082 85.3473094,13.1690866 85.397123,13.3996526 C85.2885738,13.5736927 85.1800247,13.7484765 85.0714755,13.9232604 C84.8989863,14.0467247 84.7272407,14.1694453 84.5547516,14.2936534 C84.6164611,14.4565371 84.6781705,14.6201645 84.73988,14.7837919 C84.6826314,14.8960999 84.6253829,15.0084078 84.5681344,15.1207157 C84.4484329,15.1437723 84.3279879,15.1668289 84.2075429,15.1891417 C84.04918,15.4204514 83.8893302,15.6525049 83.7287369,15.8853021 C83.6454663,15.8488578 83.5614522,15.8131573 83.4774381,15.776713 C83.5324561,15.6361421 83.5867307,15.4970588 83.6410053,15.3572317 C83.4521595,15.1623663 83.2625701,14.9675009 83.0737243,14.7733793 C82.8692652,14.7971796 82.6640626,14.8217238 82.45886,14.8462679 C82.310906,14.7949484 82.162952,14.7436288 82.0157414,14.6930531 C81.9570059,14.805361 81.8982704,14.9184127 81.8402784,15.0314644 C81.5413964,15.0790651 81.2417709,15.1266658 80.9421454,15.1742665 C80.9585021,15.3453316 80.9748588,15.5163966 80.9912155,15.6882054 C81.0930733,15.8205949 81.1949311,15.9529844 81.2975324,16.0853738 C81.3019934,16.2147883 81.3071978,16.3442027 81.3124022,16.4736171 C81.0328508,16.3270962 80.752556,16.181319 80.4730047,16.0362856 C80.3629685,15.8875334 80.2536758,15.7387812 80.1436397,15.5907727 C79.8685493,15.2575678 79.5934589,14.9258503 79.3183684,14.5948766 C79.2380718,14.7242911 79.1577751,14.8544493 79.076735,14.9838637 C78.9778511,15.0560085 78.8782238,15.1274096 78.7793399,15.1988106 C78.8157708,15.3535129 78.8514582,15.5082152 78.8878891,15.6636613 C79.0588913,15.7997696 79.2298934,15.9366216 79.4008956,16.0734737 C79.3540558,16.2951145 79.3072161,16.517499 79.2596329,16.7406274 C79.1220877,16.7331897 78.9830555,16.7250084 78.8447668,16.7175708 C78.4975581,16.4922112 78.1496059,16.2668515 77.8016537,16.0422357 C77.8261888,15.9120775 77.8499804,15.7819193 77.8745155,15.6525049 C77.7971928,15.5305281 77.7191266,15.4085513 77.6410604,15.2865744 C77.5384591,15.3319439 77.4351144,15.3773133 77.3310261,15.4226827 C77.3942225,14.9913013 77.455932,14.5621511 77.516898,14.1352323 C77.5912468,13.9530108 77.6655955,13.7707894 77.7392008,13.5893116 C77.6507258,13.426428 77.5615073,13.2642881 77.4730322,13.1028919 C77.2492425,12.959346 77.0261962,12.8165439 76.8031499,12.6737418 C76.8388373,12.5517649 76.8745247,12.4305319 76.9102121,12.3092988 C76.7867932,12.2326914 76.6633742,12.1568278 76.5399553,12.0802204 C76.6314043,11.9946879 76.7228532,11.9091554 76.8143022,11.8243666 C76.6737831,11.4822365 76.5325204,11.1415939 76.3920013,10.8024389 C76.3912578,10.8016951 77.094597,11.7551968 77.2031462,11.80131 C77.3116954,11.8451919 77.6113209,12.452101 77.6113209,12.4528447 C77.6990525,12.3412806 77.786784,12.2297164 77.8745155,12.1181522 C77.9146639,12.2951674 77.9548122,12.4729263 77.9949605,12.6506852 C78.206111,12.7518367 78.418005,12.8529882 78.6298989,12.9541397 C78.8187448,13.1832181 79.0075906,13.4115527 79.195693,13.6413749 C79.5681803,13.7983085 79.9399241,13.9559859 80.3116679,14.114407 C80.6246762,14.1731641 80.9376844,14.2311775 81.2506927,14.2906783 C81.6648153,14.130026 82.0774509,13.9701173 82.4878561,13.8116962 C82.5361828,13.5469173 82.583766,13.2828821 82.6313492,13.0203344 C82.1867436,12.4848264 81.7428815,11.953781 81.2982759,11.4257107 C80.5964236,10.7399629 79.8945713,10.0601653 79.1934625,9.38706153 C78.6395643,9.03749382 78.0849225,8.69015739 77.5310243,8.34505225 C77.6916176,8.29224521 77.8522109,8.23943818 78.0135477,8.18663114 C77.8603893,8.01779737 77.7072308,7.84896361 77.5540724,7.68012984 C77.3473828,7.64294179 77.1399498,7.60575373 76.9325167,7.56856568 C76.6953442,7.47187674 76.4566847,7.37593156 76.2187687,7.27924262 C76.0343837,7.28742399 75.8499988,7.2948616 75.6656139,7.30304297 C75.658179,7.08809602 75.6500006,6.87389283 75.6425658,6.6604334 C76.077506,6.71844676 76.5117028,6.77646012 76.945156,6.83521725 C76.8009194,6.64778946 76.6559394,6.46184919 76.5117028,6.27590892 C76.3325223,6.04088041 76.1525983,5.80733943 75.9734177,5.57454221 C75.8351291,5.54181673 75.6960969,5.509835 75.5570647,5.47710951 C75.5563212,5.28150035 75.5555777,5.08589118 75.5548342,4.89102578 C75.4046497,4.85458148 75.2544652,4.81739343 75.1035373,4.78094914 C75.0083708,5.00630875 74.912461,5.23166835 74.8158076,5.45925925 C74.6150659,5.54107296 74.4135808,5.62288668 74.2113521,5.7047004 C74.2113521,5.7047004 74.012841,5.48677841 74.0864462,5.4124023 C74.160795,5.33653867 74.5637653,4.87615056 74.5645088,4.87689432 C74.2834704,4.98325215 74.0016886,5.09035375 73.7199068,5.19819911 C73.681989,5.28670667 73.6433276,5.37521424 73.6054098,5.46446557 C73.3020668,5.58792991 72.9987239,5.71139425 72.693894,5.83560235 C72.7608078,5.6169366 72.8262348,5.39975836 72.8924052,5.18332388 C73.0730726,5.1505984 73.2537401,5.11787291 73.4344076,5.08514742 C73.2715838,4.88284441 73.10876,4.68128515 72.9459363,4.48046966 C72.8225173,4.63814701 72.6983549,4.79582436 72.5741925,4.95424547 C72.4879479,4.86350662 72.4031903,4.772024 72.3176892,4.68128515 C72.1823745,4.63963453 72.0478032,4.59872767 71.9124885,4.55782081 C71.6701115,4.63517197 71.4277346,4.71326688 71.1846141,4.79136179 C71.0128685,4.64335334 70.8411229,4.49608864 70.6693772,4.34956771 C70.4567398,4.23279722 70.2441023,4.11602673 70.0314649,4 C70.0827655,4.133877 70.1348097,4.26849775 70.1861103,4.40311851 C70.26492,4.57195227 70.3429862,4.74078604 70.4217959,4.9096198 C70.206928,4.73334843 69.99206,4.55856457 69.7771921,4.38303696 C69.7325829,4.51542643 69.6879736,4.6478159 69.6426209,4.78094914 C69.5385326,4.76384263 69.4344443,4.74673613 69.3303561,4.72962962 C69.3801697,4.58682749 69.4299834,4.44476913 69.4790536,4.30271076 C69.3519172,4.36816174 69.2255243,4.43510023 69.0976445,4.50055121 C69.0812877,4.41353116 69.0641875,4.32651112 69.0478308,4.23949107 C68.7861232,4.35700532 68.523672,4.47526333 68.2612209,4.59426511 C68.2203291,4.40460603 68.1801808,4.21643448 68.139289,4.02900668 C68.04784,4.10858912 67.956391,4.18817155 67.8641985,4.26849775 C67.954904,4.40683731 68.0456095,4.54592064 68.136315,4.68500396 C67.9638259,4.66492241 67.7913368,4.64484086 67.6188476,4.62475931 C67.4582543,4.60988409 67.297661,4.59426511 67.1370677,4.57864612 C66.9415304,4.79359308 66.7452497,5.01002755 66.548969,5.22646203 C66.2025038,5.28075659 65.8552951,5.33505114 65.5080863,5.3893457 C65.5683088,5.47115942 65.6292748,5.5537169 65.6902408,5.63553062 C65.8679343,5.64519952 66.0456279,5.65486841 66.2240649,5.6645373 C66.0240667,5.76420129 65.8240686,5.86386527 65.6240704,5.96427302 C65.5452607,6.07583718 65.466451,6.18740135 65.3868979,6.29970927 C65.2694268,6.06393701 65.1519558,5.82965227 65.0344847,5.59611128 C64.9460097,5.72701324 64.8582782,5.85865895 64.7690597,5.99030466 C64.7118111,6.14575073 64.6545626,6.30194055 64.597314,6.45813038 C64.0791032,6.54440667 63.5601488,6.63142671 63.0397075,6.71919052 C62.8999319,6.80918561 62.7594127,6.8991807 62.6188935,6.98917579 C62.6649898,7.103715 62.711086,7.21751045 62.7571822,7.33204965 C62.2330235,7.39526935 61.7088647,7.4592328 61.1839625,7.52468377 C61.1720667,7.64145426 61.1594274,7.75822475 61.1475316,7.87499524 C60.9601727,7.79095024 60.7735573,7.70690524 60.5861985,7.62286024 C59.9520035,7.88912671 59.3155782,8.15836822 58.6776658,8.42984101 C58.6917921,8.52057986 58.7051748,8.61206248 58.7193011,8.70354509 C59.0085178,8.63065651 59.2984779,8.55702416 59.5876946,8.48487933 C59.3772876,8.66115071 59.1668806,8.83890961 58.9557302,9.01666851 C58.6851007,8.98691806 58.4152147,8.95716762 58.1453287,8.92741718 C58.1832466,8.75635213 58.2211644,8.58603084 58.2583388,8.41645331 C58.0903106,8.3517461 57.9222824,8.28778265 57.7542542,8.22307543 C57.5981218,8.16357454 57.4427329,8.10407366 57.2866005,8.04457277 C57.2709873,8.13679915 57.255374,8.22902552 57.2397608,8.32125189 C57.2925484,8.39042168 57.3438491,8.45959146 57.3966367,8.52876124 C57.1624381,8.57487442 56.927496,8.62098761 56.6925539,8.6671008 C56.4910688,8.61429376 56.2888402,8.56148672 56.0866115,8.50942345 C56.1089162,8.64106916 56.1312208,8.77345863 56.1527819,8.90584811 C55.9542707,8.96609275 55.7550161,9.0263374 55.5557614,9.08658205 C55.4501861,9.0092309 55.3453544,8.93187974 55.2405226,8.85452859 C55.1423823,8.94154864 55.0442419,9.02782492 54.9453581,9.11484497 C55.0918251,9.19517117 55.2375487,9.27624113 55.3840158,9.35656732 C55.1171037,9.37962392 54.8501917,9.40193675 54.5840231,9.42499334 C54.4048426,9.29409139 54.2264056,9.1639332 54.0472251,9.03377501 C53.9609805,9.12451386 53.8739924,9.21599648 53.7877479,9.30822285 C53.9624675,9.38706153 54.1371871,9.46664396 54.3126501,9.54548264 C54.0918343,9.56110162 53.8710185,9.57746436 53.6502027,9.59308335 C53.6502027,9.59308335 53.4977877,9.91066933 53.6055934,9.95157619 C53.7133991,9.99322681 54.1884877,10.2505681 54.1884877,10.2505681 C54.3416461,10.2587495 54.4940611,10.2676746 54.6464761,10.275856 C54.6940593,10.356926 54.740899,10.4372522 54.7877387,10.5190659 C54.4487084,10.4513836 54.1104215,10.3844451 53.7721346,10.3175066 C53.6107978,10.2676746 53.449461,10.2185864 53.2873807,10.1694982 C53.2011362,10.3502321 53.1141481,10.5317098 53.0271601,10.7131875 C53.1922143,10.814339 53.3572686,10.9162343 53.5230663,11.0181296 C53.5230663,11.0173858 53.4338478,11.1192811 53.3587555,11.2204326 C53.2792024,11.3275342 53.2152624,11.433892 53.2873807,11.4227356 C53.4271564,11.399679 54.4836523,11.1594442 54.4829088,11.1601879 C54.2977804,11.278446 54.112652,11.3981915 53.9275236,11.5171933 C53.7959262,11.6443764 53.6635855,11.7723033 53.5319882,11.9002302 C53.3178637,11.8682485 53.1037393,11.8370105 52.8903584,11.8050288 C52.7684264,11.8221353 52.6457509,11.8384981 52.5230755,11.8548608 C52.5669413,11.9746063 52.6100635,12.0936081 52.6531858,12.2126099 C52.9193544,12.2259976 53.1847794,12.2393853 53.4502045,12.252773 C53.3565251,12.420863 53.2621022,12.5896968 53.1669357,12.7592743 C53.1669357,12.7592743 52.5661978,12.7577868 52.6286507,12.8983576 C52.6911037,13.0381847 52.6658251,13.4554347 52.6658251,13.4561784 C52.8665668,13.5469173 53.0680519,13.6383999 53.2687935,13.7298825 C53.3297595,13.8451655 53.3907255,13.9597047 53.4516915,14.0749876 C53.4516915,14.0742439 55.4144987,13.7529391 55.5074347,13.8295465 C55.6018576,13.9054101 55.9572447,14.1620077 55.9572447,14.1627514 C56.2851227,14.0452372 56.6130007,13.9277229 56.9401353,13.8109525 C56.8263817,14.0251556 56.7133716,14.2401026 56.599618,14.4550495 C56.6970148,14.649915 56.7944117,14.8455241 56.8918086,15.0403895 C56.7743376,15.2032732 56.656123,15.3654131 56.5379085,15.5290406 C56.65761,16.0228979 56.778055,16.5189866 56.8977565,17.018794 C56.8048205,17.1273831 56.7118846,17.2359722 56.6189487,17.3453051 C56.5118864,17.6747913 56.4048242,18.005765 56.2985055,18.3374824 C56.5208083,18.4542529 56.7438546,18.5710234 56.9676443,18.6877939 C57.1802818,18.6662248 57.3936627,18.6453995 57.6063002,18.6238304 C57.5787911,18.4921847 57.5512821,18.360539 57.5237731,18.2288933 C57.7564847,18.1626985 57.9899398,18.0965038 58.2226514,18.0303091 C58.4932809,18.139642 58.7631669,18.2489748 59.0330529,18.3583077 C59.2033115,18.4007021 59.3728267,18.4430965 59.5430854,18.4854909 C59.7475445,18.2876504 59.9520035,18.0905537 60.1557191,17.893457 C59.9705907,17.9514704 59.7847188,18.0094838 59.5995904,18.0674971 C59.6895524,17.9306451 59.7795144,17.7945368 59.8694764,17.6584285 C60.0992141,17.4055498 60.3274648,17.1541585 60.5557155,16.9027673 C60.6635212,16.629807 60.7713269,16.3568466 60.8783891,16.0853738 C61.1021789,16.0712424 61.3252251,16.0563672 61.5482714,16.0414919 C61.6583076,16.1508248 61.7683437,16.2609015 61.8776364,16.3709781 C62.1534703,16.2720579 62.4278172,16.1738814 62.7029076,16.0757049 C62.6099717,15.9596782 62.5170357,15.8436515 62.4240998,15.7283685 C62.6397112,15.6978743 62.8553226,15.6673801 63.070934,15.6368859 C63.1125693,15.4457393 63.1542046,15.253849 63.1958399,15.0634461 C63.1326435,14.9474194 63.0687035,14.8306489 63.0055071,14.7146222 C63.0055071,14.5852077 63.0062506,14.4557933 63.0062506,14.3271226 C62.893984,14.2564653 62.7817173,14.185808 62.6694507,14.114407 C62.503653,14.0995318 62.3378552,14.0846565 62.1720575,14.0697813 C62.3341378,13.6450937 62.4954746,13.2226374 62.6560679,12.8024124 C62.7921262,12.6908483 62.9281844,12.5800279 63.0634991,12.4692075 C63.1311565,12.2550043 63.1988139,12.0408011 63.2657278,11.8280854 C63.2657278,11.8280854 63.3014152,11.6533015 63.6069886,11.7366028 C63.9133055,11.819904 63.9133055,11.8206478 63.912562,11.819904 C63.9846803,11.6599954 64.0567986,11.5000868 64.1281734,11.3401781 C64.3214801,11.3543096 64.5147869,11.3684411 64.7080937,11.3825725 C64.8017731,11.2695208 64.8954526,11.1564691 64.9883885,11.0434175 C65.3051142,11.131925 65.62184,11.2204326 65.9385657,11.3089402 C66.2753655,11.1936572 66.6106785,11.0776305 66.9459914,10.9630913 C67.0285185,10.8091327 67.1103021,10.6559179 67.1920858,10.5027032 C67.2545387,10.3294068 67.3169917,10.1568542 67.3787011,9.98430168 C67.6173607,9.89430659 67.8552767,9.80431149 68.0924492,9.71506016 C68.3043432,9.65258423 68.5162372,9.5901083 68.7273876,9.52763237 C68.91549,9.61465242 69.1035924,9.70167247 69.2916947,9.78943627 C69.5370456,9.87571256 69.78314,9.96198884 70.0284909,10.0482651 C70.1608317,10.1992486 70.2931725,10.3509759 70.4262568,10.5027032 C70.3444732,10.593442 70.2626895,10.6834371 70.1809059,10.7741759 C70.1928017,10.8783025 70.2046975,10.9816853 70.2165933,11.0858118 C70.0641783,11.110356 69.9117634,11.1356438 69.7586049,11.1609317 C69.6560036,11.1691131 69.5526589,11.1772945 69.4500576,11.1854758 C69.3050775,11.3877788 69.1600974,11.5908256 69.0151173,11.7946162 C68.7407704,11.9336995 68.4664235,12.0735266 68.1913331,12.2140974 C68.1913331,12.2133536 67.058258,12.3606183 66.905843,12.4134254 C66.754915,12.4654887 66.6248047,12.5651526 66.6248047,12.5651526 C66.5682997,12.6938233 66.5117946,12.8232377 66.4545461,12.9526522 C66.4158847,13.2032996 66.3772233,13.4546909 66.3378185,13.7068259 C66.2032473,13.8823535 66.0694195,14.0586249 65.9341047,14.2348963 C65.8917259,14.4617434 65.8500906,14.6893343 65.8069684,14.9169252 C65.9928403,15.0180767 66.1779687,15.119972 66.3638406,15.2211235 C66.4768507,15.4226827 66.5906043,15.624242 66.7036144,15.826545 C66.5043597,15.8228262 66.3043616,15.8191074 66.1043634,15.8153886 C66.0634716,15.941828 66.0225798,16.0682673 65.9816879,16.1947067 C66.1013894,16.2832143 66.2218344,16.3717219 66.3415359,16.4594857 C66.3415359,16.4594857 66.4084498,16.3821345 66.4835421,16.3047834 C66.579452,16.2051194 66.6872577,16.1054554 66.6842837,16.1694188 C66.6775923,16.2839581 66.7906025,16.7220333 66.789859,16.7220333 C67.1608593,16.7309585 67.5318596,16.7391398 67.9021164,16.748065 C68.1571327,16.6580699 68.4121489,16.567331 68.6664217,16.4765922 C68.9719951,16.6030316 69.2775685,16.7294709 69.5823984,16.8559103 C69.8522844,16.8633479 70.1221704,16.8707855 70.3913129,16.8782232 C70.3496776,16.9778871 70.3065553,17.0775511 70.2641765,17.1779589 C70.4329482,17.3914183 70.6002329,17.6048777 70.7690046,17.8190809 C70.9400067,17.890482 71.1110089,17.9626268 71.282011,18.0340279 C71.4440913,18.1939365 71.6069151,18.3538451 71.7697389,18.5137538 C71.4061734,18.3880582 71.0418645,18.2616188 70.6775556,18.1359232 C70.4597137,18.1760862 70.2411284,18.2162493 70.0217995,18.2564124 C69.8708716,18.2727752 69.7199436,18.2891379 69.5690156,18.3047569 C69.4047048,18.1835239 69.2396506,18.0622908 69.0753398,17.9418015 C68.9192074,17.9031259 68.763075,17.8644504 68.6061992,17.8257748 C68.584638,17.909076 68.5638204,17.9923773 68.5422592,18.0756785 C68.2426337,17.8986634 67.9437517,17.722392 67.6448697,17.5461206 C67.32517,17.5193452 67.0039834,17.4918261 66.6842837,17.4657944 C66.4835421,17.4620756 66.2828004,17.4583568 66.0820588,17.454638 C65.9735096,17.7387547 65.8634734,18.024359 65.7541807,18.3099632 C65.8738822,18.3330198 65.9943272,18.3560764 66.1147722,18.379133 C65.9973012,18.5159851 65.8798301,18.6535809 65.7623591,18.7911767 C65.6590143,18.8953032 65.556413,18.998686 65.4530683,19.1028126 C65.4805773,19.2738776 65.5073429,19.4456864 65.5348519,19.6167515 C65.2173827,19.6465019 64.8999135,19.6755086 64.5817008,19.705259 C64.5601397,19.52155 64.537835,19.3393286 64.5162739,19.1563634 C64.5333741,19.0165363 64.5512178,18.877453 64.568318,18.7383696 C64.238953,18.76217 63.9088445,18.7867141 63.5794795,18.8112582 C63.3594072,19.0804997 63.1393349,19.3512288 62.9185191,19.6227016 C62.709599,19.8993807 62.500679,20.1768036 62.2910155,20.4549702 C62.2724283,20.5962848 62.2545846,20.7368557 62.2359974,20.878914 C62.0627648,20.9421337 61.8887887,21.0060972 61.7148126,21.0700606 C61.7601654,20.8989956 61.8070051,20.7286743 61.8523578,20.558353 C61.6389769,20.6461168 61.425596,20.7338806 61.2114715,20.8223882 C61.1809885,20.9584965 61.1497621,21.0953485 61.1185356,21.2314568 C60.8962328,21.3712839 60.6746735,21.5111109 60.4516272,21.650938 C60.4159398,21.5676368 60.3795089,21.4850793 60.343078,21.4017781 C60.1096229,21.4010343 59.8769113,21.4002905 59.6427127,21.4002905 C59.6129732,21.2381506 59.5824902,21.0760107 59.5520072,20.9138708 C59.6902959,20.9979158 59.8285846,21.081217 59.9661298,21.165262 C59.957208,21.0529541 59.9490296,20.9406462 59.9401077,20.829082 C59.7393661,20.7874314 59.5393679,20.7457808 59.3386263,20.7048739 C59.1349107,20.7703249 58.9304516,20.8357759 58.7259925,20.9019706 C58.0152184,20.760656 57.3051877,20.6200852 56.595157,20.4810018 C56.1959042,20.169366 55.7973949,19.8584738 55.3988855,19.5490692 C55.2717491,19.6055951 55.1438693,19.6628647 55.0159894,19.7193905 C54.8531656,19.6941026 54.6895983,19.6688147 54.5267746,19.6435269 C54.4234298,19.7097216 54.320085,19.7766601 54.2167402,19.8435986 C54.1654396,19.7007965 54.1141389,19.5579943 54.0628383,19.415936 C53.9290105,19.2947029 53.7951828,19.1727261 53.6620985,19.0522368 C53.6368199,18.7584512 53.6107978,18.4654093 53.5855193,18.173855 C53.7126556,18.1173291 53.8405355,18.0608033 53.9676719,18.0050212 C53.8747359,17.9544454 53.7825435,17.9038697 53.6896075,17.8532939 C53.8665576,17.6561973 54.0442511,17.4605881 54.2212012,17.2642352 C54.4353256,17.0835012 54.6487065,16.9020235 54.8620875,16.7220333 C54.9461016,16.8216973 55.0308591,16.9221051 55.1148732,17.021769 C55.2204485,16.9183863 55.3260237,16.8142597 55.431599,16.7108769 C55.2962842,16.5636122 55.1609695,16.4170913 55.0263982,16.2713141 C55.1275125,16.112893 55.2293703,15.9559594 55.3312281,15.7982821 C55.2412661,15.7105183 55.1520476,15.6220107 55.0628291,15.5342469 C55.1929394,15.5335031 55.3237933,15.5327594 55.4539036,15.5312718 L55.6189578,15.3609505 C55.6754629,15.2389737 55.7319679,15.1169969 55.788473,14.9950201 C55.576579,15.0158454 55.3646851,15.0374145 55.1535346,15.0582398 C55.0553942,15.1764978 54.9572539,15.2954996 54.85837,15.4137576 C54.6152496,15.3170686 54.3713856,15.2211235 54.1275217,15.1244345 C53.928267,15.2426925 53.7290124,15.3616943 53.5297577,15.4799523 C53.5832888,15.5238342 53.810796,15.4680521 53.9951809,15.4130138 C54.1334696,15.3713632 54.2487102,15.3297126 54.2487102,15.3304563 C54.3654377,15.3892135 54.4821653,15.4487144 54.5988929,15.5082152 C54.5840231,15.6339109 54.5691533,15.7596065 54.5542836,15.8853021 C54.3765901,15.8942272 54.1988965,15.9031524 54.0219465,15.9120775 C53.8881187,15.9514968 53.7542909,15.9909162 53.6204632,16.0303355 C53.511914,15.9210026 53.4033648,15.8124135 53.2955591,15.7038244 C53.1914708,15.926209 53.0881261,16.1500811 52.9840378,16.3739531 C53.1022523,16.4602294 53.2212103,16.5472495 53.3401684,16.6342695 C53.1974187,16.7235209 53.0546691,16.8135159 52.9119195,16.9027673 C52.8754886,17.0745761 52.8390577,17.2471287 52.8026268,17.4196812 C52.8948193,17.4695132 52.9877552,17.520089 53.0806912,17.5706647 C53.0405429,17.688179 53.0003945,17.8056932 52.9609897,17.9239512 C52.8784626,17.9447766 52.7966789,17.9656019 52.7141518,17.9864272 C52.7706569,18.1158416 52.8264184,18.2459998 52.8829235,18.376158 L52.8777191,18.5762297 C52.7401739,18.6550684 52.6011417,18.7346508 52.4635965,18.8142333 C52.5141536,18.9555479 52.5654543,19.0976062 52.6160114,19.2404084 C52.4896185,19.2299957 52.1736363,19.0626495 52.1743798,19.0626495 C52.1550491,19.2307395 52.1357184,19.3988295 52.1163878,19.5676632 C52.0011472,19.4397363 51.8851631,19.3118094 51.7699225,19.1846263 C51.6100727,19.2151205 51.4502229,19.2463584 51.2911165,19.2775964 C51.2561726,19.384698 51.2204852,19.4925434 51.1855413,19.6011325 C51.1082186,19.6108014 51.0308959,19.6204703 50.9535732,19.6301392 C50.9505992,19.4798994 50.9476253,19.3289159 50.9439078,19.17942 C50.7669578,19.1221503 50.5907512,19.0648807 50.4138012,19.0076111 C50.3089694,18.9525728 50.2041377,18.8967907 50.0993059,18.8417524 C49.8152937,18.8908407 49.5312814,18.9399289 49.2472691,18.9890171 C48.9788701,19.09835 48.7097276,19.2084266 48.4413286,19.3185033 C48.3134487,19.4984935 48.1863123,19.6792274 48.0584325,19.8592176 C47.8837129,19.9536752 47.7089933,20.0473891 47.5350172,20.1418468 C47.2777705,20.038464 47.0212673,19.9365687 46.7647641,19.8339297 C46.2911625,19.8227733 45.8183043,19.8123606 45.3454462,19.801948 C45.3090153,20.0325139 45.2725844,20.2645674 45.2361536,20.4966208 C44.8852274,20.5345526 44.5335578,20.5732282 44.1826316,20.61116 C44.0198078,20.710824 43.8569841,20.8112318 43.6941603,20.9108958 C43.4376571,20.8090005 43.1818973,20.7071052 42.9261376,20.6059537 C42.931342,20.44307 42.9358029,20.2801864 42.9402639,20.1180464 C42.8019752,20.103915 42.66443,20.0905273 42.5261413,20.0771396 C42.42354,20.4467888 42.3201952,20.8171819 42.2168504,21.1898062 C41.8674113,21.1332803 41.5179721,21.0767545 41.1692764,21.0209724 C41.1239237,20.9339523 41.0785709,20.8476761 41.0332182,20.760656 C40.6049693,20.6595045 40.177464,20.5590968 39.7507021,20.458689 C39.6733794,20.6200852 39.5960567,20.7822251 39.5187339,20.944365 C39.7157582,21.1050174 39.9135259,21.2664136 40.1112936,21.4278097 C40.1685421,21.6717633 40.2265341,21.915717 40.2837827,22.1604144 C40.4198409,22.11802 40.5558991,22.0748818 40.6919574,22.0324875 C40.7514364,22.3054478 40.8101719,22.5784081 40.8696509,22.8528559 C40.8703944,22.8528559 40.3335963,23.3482008 40.442889,23.3920827 C40.5521817,23.4352209 41.1722504,24.4400421 41.1722504,24.4407859 C41.0183484,24.8967114 40.863703,25.3548682 40.7090576,25.8145126 C40.5090594,26.0584662 40.3083178,26.3024198 40.1083196,26.5463735 C39.7343453,26.5367046 39.3603711,26.5262919 38.9871403,26.516623 C38.82506,26.3656395 38.6622362,26.214656 38.5001559,26.0644163 C38.0845464,25.8963263 37.6696803,25.7282363 37.2555577,25.56089 C36.8042607,25.3504057 36.3537072,25.1414088 35.9038972,24.9316682 C35.8347529,24.8334917 35.7648651,24.736059 35.6964642,24.6378825 C35.4377305,24.6044133 35.1804838,24.570944 34.9224936,24.5382186 C34.8890367,24.6088759 34.8555797,24.6795332 34.8221228,24.7509342 C34.6949864,24.6854833 34.5671066,24.6200323 34.4399702,24.5553251 C34.1730581,24.6029258 33.9068896,24.6505265 33.6399775,24.6981272 C33.7314265,24.7762221 33.8533585,25.7981498 33.8541019,25.7988936 C33.7314265,25.8762447 33.608751,25.9543397 33.4860756,26.0324346 C33.4600535,26.3329141 33.4340315,26.6341373 33.4080094,26.9361043 C33.2355203,27.1503075 33.0637746,27.3652544 32.8912855,27.5794576 C32.6013253,27.8605993 32.3121087,28.1424848 32.022892,28.425114 C31.9091384,28.6073354 31.7961283,28.7895569 31.6823747,28.9725221 C31.8199199,28.9859098 31.9582086,28.9985538 32.0957538,29.0119415 C32.0622968,29.0848301 32.0288399,29.1569749 31.995383,29.2291197 C31.8935252,29.2306072 31.7924108,29.2320948 31.690553,29.2335823 C31.7299579,29.3354775 31.7693627,29.4373728 31.8080241,29.5400118 C31.7492886,29.7304147 31.6898096,29.9215613 31.6303305,30.1127079 C31.4570979,30.3008794 31.2838653,30.489051 31.1106327,30.6772225 C31.2615607,30.7248232 31.4132322,30.772424 31.5641602,30.8200247 C31.6504047,30.8839881 31.7366493,30.9486953 31.8221503,31.0126588 C31.8511464,31.1398419 31.8793989,31.2670251 31.9076514,31.3942082 C32.201329,31.3845393 32.4942631,31.3756142 32.7886842,31.3666891 C32.8704679,31.631468 32.9522515,31.8969907 33.0340351,32.1625134 C33.0771574,32.35366 33.1202797,32.5455504 33.1641455,32.7374407 C33.6265947,32.7114091 34.089044,32.6853775 34.5522368,32.6593458 C34.9514896,32.839336 35.3507425,33.0193262 35.7514823,33.1993164 C36.069695,33.0118886 36.3886512,32.8244608 36.7076073,32.6377768 C37.0406898,32.6452144 37.3737722,32.652652 37.7068547,32.6600896 C37.8377085,32.4674555 37.9685623,32.2755651 38.1001596,32.0836747 C38.43919,31.949054 38.7789638,31.8144332 39.1179941,31.6798125 C39.0592586,31.4537091 39.0012666,31.2276057 38.9425311,31.0015024 C39.4220806,30.7523424 39.9016301,30.5031824 40.3804361,30.2547662 C41.1053365,30.0784949 41.8309804,29.9029673 42.5558808,29.7281834 C42.7328308,29.3711781 42.9097809,29.0141728 43.0867309,28.658655 C43.3818955,28.6222107 43.6763166,28.5865101 43.9722246,28.5508096 C44.3238943,28.8096385 44.6770509,29.0684673 45.0302075,29.3287837 C45.4926568,29.3481215 45.9551061,29.3667155 46.4175553,29.3860533 C46.8472912,29.2484575 47.2777705,29.1116055 47.7075063,28.9754972 C48.024232,29.3198586 48.3409578,29.6657075 48.658427,30.0123001 C48.6212526,30.7560612 48.5833347,31.5027973 48.5461603,32.2532523 C48.6985753,32.5767883 48.8509902,32.9010682 49.0041487,33.225348 C49.3000568,33.4945895 49.5959648,33.763831 49.8933599,34.0330725 C50.1602719,34.6392378 50.4279274,35.2468906 50.695583,35.8567747 C50.6435388,36.21378 50.5900077,36.5722729 50.5379636,36.9307657 C50.2851778,37.2342202 50.0331355,37.5384185 49.7803497,37.8433606 C49.884438,37.9459996 49.9885263,38.0486386 50.0926145,38.1512777 C50.60116,37.80766 51.1082186,37.4647862 51.6160206,37.1226561 C51.6004074,36.749288 51.5840506,36.3766637 51.5684374,36.0055269 C51.744644,35.874625 51.9208505,35.7444668 52.0963136,35.6150524 C52.2673158,35.905863 52.4375744,36.1966735 52.6085766,36.4882279 C52.7751178,36.4123643 52.9424025,36.3365006 53.1089437,36.2613808 C52.8918453,35.9066067 52.6740035,35.5518327 52.4576486,35.1985462 C52.2331153,34.9293047 52.0093256,34.6600631 51.7855358,34.3915654 C51.8948285,34.2777699 52.0041211,34.1639745 52.1134138,34.0509228 C51.7676921,33.7891189 51.4219704,33.5280588 51.0769921,33.2677424 C50.9550601,32.5358815 50.8331282,31.8062519 50.7111962,31.080341 C50.511198,30.7962243 50.3119434,30.5121076 50.1134322,30.2287346 C50.3186348,29.9989124 50.5245808,29.769834 50.7305269,29.5407556 C50.7483706,29.33399 50.7662143,29.1272244 50.7848015,28.9212026 C51.1610062,29.0059914 51.5364674,29.0907801 51.9126722,29.1748252 C51.775127,29.3176273 51.6375818,29.4604294 51.5000366,29.6032315 C51.4479924,29.8531353 51.3959483,30.103039 51.3439042,30.3536865 C51.5364674,30.3194735 51.7297742,30.2852604 51.9223375,30.2510474 C52.1186182,30.0747761 52.314899,29.8992484 52.5111797,29.7237208 C52.5178711,29.9408991 52.5253059,30.1580773 52.5327408,30.3759993 C52.4420353,30.7820929 52.3505864,31.1889302 52.2591374,31.597255 C53.0903565,32.7359532 53.9245496,33.882089 54.7609731,35.0356625 C54.6442456,35.2335029 54.5282615,35.4320871 54.4122775,35.6299276 C54.2739888,35.7757048 54.1364436,35.9222257 53.9981549,36.0680029 C54.0814255,36.4235207 54.1639526,36.780526 54.2472232,37.1382751 C54.3364417,37.5852755 54.4249168,38.0337634 54.5133918,38.4822513 C54.4650651,38.6971983 54.4167384,38.9114015 54.3684117,39.1263484 C54.6249149,39.2944385 54.8806747,39.4617847 55.1364344,39.6298747 C55.2174745,39.8559781 55.2992582,40.0820814 55.3810418,40.3089286 C55.2130136,40.0753876 55.0449854,39.8411028 54.8769572,39.6075619 C54.6858809,39.6001243 54.4955481,39.5926866 54.3044718,39.585249 C54.2420188,39.971261 54.1788224,40.357273 54.1163694,40.7440288 C54.4033556,40.9106313 54.6895983,41.0772338 54.9765846,41.2438363 C55.2055787,41.1642538 55.4345729,41.0846714 55.6628236,41.0050889 C55.7505551,40.8355114 55.8390302,40.6666776 55.9267617,40.4978439 C56.1237859,40.5960203 56.3200666,40.6949406 56.5163474,40.7938608 C56.7044497,40.8459241 56.8918086,40.8987311 57.079911,40.9515381 C57.015971,40.9046812 56.8747084,40.6756028 56.7022193,39.635081 C56.4657902,38.2107786 56.4657902,38.2122661 56.4657902,38.2122661 C56.5587262,37.9288931 56.6509186,37.6462639 56.7438546,37.3636347 C56.805564,37.667833 56.868017,37.972775 56.9297265,38.277717 C57.2211736,38.2256538 57.5118773,38.1735905 57.8025809,38.1215272 C57.7765588,37.9058365 57.7505368,37.689402 57.7245147,37.4737113 C58.2598258,37.7161774 58.7966238,37.9601311 59.3326784,38.2033409 C59.3326784,38.2033409 59.6144602,38.5878654 59.566877,38.6994296 C59.5185503,38.8109937 59.0895579,38.9790838 59.0888144,38.9790838 C59.4836064,38.9277642 59.8783983,38.8764447 60.2731902,38.8251252 C60.7252306,38.8139688 61.1765276,38.8020686 61.6285681,38.7909122 C61.4865619,38.495639 61.3445558,38.2011097 61.2025497,37.9065803 C61.2099846,37.6462639 61.2166759,37.3866913 61.2233673,37.1271187 C61.5259668,36.9069654 61.8285662,36.6868121 62.1304222,36.4666588 C62.4233563,36.1996486 62.7148034,35.9326384 63.0069941,35.6663719 C63.3779944,35.3175479 63.7489947,34.9702115 64.118508,34.6236188 C64.1192515,34.6228751 65.2396873,33.763831 65.230022,33.8895267 C65.2211001,34.0152223 66.1459987,34.2398381 66.1459987,34.2398381 C66.2582653,34.53288 66.370532,34.8259219 66.4827986,35.1197075 C66.7013839,35.1271451 66.9199693,35.1345827 67.1385546,35.1420203 C67.2173643,35.3056478 67.296174,35.470019 67.3749837,35.6336464 C66.9705264,35.6462903 66.5653257,35.659678 66.160125,35.6738095 C66.3534317,35.9155318 66.5467385,36.1587417 66.7407888,36.4012078 C66.609935,36.6057421 66.4790811,36.8102764 66.3482273,37.0148107 C66.90733,37.0237359 67.4656892,37.032661 68.0233049,37.0423299 C68.3563873,37.1286062 68.6894698,37.2148825 69.0225522,37.3011587 C69.1035924,37.1769506 69.185376,37.0527425 69.2671596,36.9292782 C68.8998768,36.7842448 68.5318504,36.6392114 68.1645675,36.4949217 C68.195794,36.3498883 68.227764,36.2041111 68.2589905,36.0590777 C68.2597339,36.058334 67.7430101,34.9702115 67.8240502,35.0921883 C67.9065773,35.2134214 68.7876101,35.8537997 68.7876101,35.8545434 C69.4634404,35.7571107 70.1370401,35.6604218 70.8091529,35.5637329 C70.8098964,35.5637329 72.4247515,35.9214819 72.2812583,35.9460261 C72.1399957,35.9698264 70.6723512,36.108166 70.6708642,36.1089097 C70.6991167,36.3231129 70.7273693,36.5373161 70.7556218,36.7515193 C70.3147337,36.8920902 69.8723585,37.032661 69.4299834,37.1732318 C69.4693883,37.2922336 69.5080496,37.4104916 69.546711,37.5287496 C69.7660398,37.957156 69.9846252,38.3863062 70.203954,38.8162001 C70.4322047,39.2936947 70.6604554,39.7719331 70.8879626,40.2509152 C71.1258786,40.5298256 71.3630512,40.808736 71.6009672,41.0876464 C71.5645363,41.4223389 71.5273619,41.7577752 71.490931,42.0932114 C71.0374036,42.2620452 70.5831327,42.4301352 70.1281183,42.5989689 C69.9541422,42.449473 69.7801661,42.299977 69.60619,42.1512248 C69.1600974,42.0151165 68.7132614,41.879752 68.2671688,41.7443875 C67.8418939,41.310031 67.416619,40.8764183 66.9913441,40.4428056 C66.9244302,40.1795141 66.8575163,39.9169665 66.7906025,39.6536751 C66.4456242,39.5919429 66.100646,39.5309545 65.7556677,39.4692223 C65.4671945,39.3450142 65.1779779,39.2200623 64.8895047,39.0958542 C64.3571675,39.1590739 63.8255739,39.2222936 63.2924933,39.2862571 C62.8687054,39.162049 62.4456609,39.0385846 62.021873,38.9158641 C62.0441776,39.0720539 62.0664823,39.2282437 62.0895304,39.3844335 C61.8345141,39.3189826 61.5794979,39.2535316 61.3244816,39.1880806 C60.9780164,39.1270922 60.6315512,39.0668476 60.285086,39.0066029 C59.9869475,39.0400722 59.6888089,39.0742852 59.3914139,39.1084982 C59.2122334,39.2810508 59.0337964,39.4543471 58.8546159,39.6276434 C59.0025699,39.7354888 59.1505239,39.8425904 59.2984779,39.949692 C59.2657645,40.2003395 59.2323076,40.4517307 59.1995941,40.7023782 C58.9854697,40.7142784 58.7713452,40.7254348 58.5579643,40.737335 C58.5549904,40.9864949 58.5520164,41.2363986 58.5497859,41.4863024 C58.6226477,41.7689316 58.6955095,42.050817 58.7691148,42.33419 C58.9178123,42.6495447 59.0665098,42.9648994 59.2152073,43.2809979 C59.4442015,43.4089248 59.6739392,43.5368517 59.9029334,43.6647786 C59.9401077,43.9630268 59.9772821,44.2605312 60.0144565,44.5587794 C60.2233765,44.5595232 60.4322965,44.5602669 60.6412165,44.5610107 C60.7973489,44.4055646 60.9534813,44.2501185 61.1088702,44.0954162 C61.3259686,44.3222634 61.543067,44.5491105 61.7601654,44.7759576 C61.9155543,45.0065236 62.0716867,45.2370895 62.2270756,45.4676554 C62.8240961,45.5026122 63.4218602,45.537569 64.0181372,45.5732695 C64.1333778,45.652852 64.2486184,45.7324344 64.3638589,45.8120168 C64.5021476,45.8715177 64.6411798,45.9317624 64.7794685,45.992007 C64.4136726,46.7833688 64.0471332,47.5769619 63.6791069,48.3720425 C62.9891504,49.1172911 62.2969634,49.8640272 61.604033,50.6122509 C61.1549665,50.5081243 60.7051565,50.4039978 60.2553465,50.2991274 C59.9631559,50.2478079 59.6702217,50.1964884 59.3780311,50.1459127 C59.3356523,49.9629474 59.294017,49.7799822 59.2523817,49.5977607 C58.8784075,49.5263597 58.5044332,49.4549586 58.1297154,49.3835575 C58.0509058,49.4988405 57.9706091,49.6141235 57.8917994,49.7301502 C57.6077872,49.5174345 57.3237749,49.3054626 57.0390191,49.0934907 C56.5527783,48.7944988 56.0657939,48.4955068 55.5788095,48.1965149 C55.4182162,47.9778491 55.2568794,47.7591833 55.0962861,47.5405176 C54.9074402,47.4899418 54.7193378,47.4386223 54.5312355,47.3880466 C54.5550271,47.2638385 54.5788187,47.1388866 54.6018668,47.0146785 C54.1550308,46.7632873 53.7081947,46.511896 53.2613587,46.2612485 C53.2108015,46.0306826 53.1609878,45.8001166 53.1096872,45.5695507 C52.7914745,45.2988217 52.4740053,45.0288364 52.1557926,44.7588511 C51.8070969,44.8034768 51.4584012,44.8481025 51.1089621,44.8927281 C50.846511,45.048918 50.5840598,45.2051078 50.3223522,45.3612976 C50.3736528,45.6223577 50.4264405,45.8834179 50.4777411,46.144478 C50.1922419,46.3207494 49.9059991,46.4970208 49.6197564,46.6732922 C48.8591686,46.1087775 48.0993243,45.5457504 47.3409669,44.9827232 C47.188552,44.4710156 47.037624,43.959308 46.8859525,43.4483441 C46.4487818,43.0095251 46.0130981,42.5714498 45.5774144,42.1341183 C45.3342939,41.9719784 45.0926604,41.8098384 44.8502835,41.6476985 C44.5848584,41.1642538 44.3194333,40.6808091 44.0547518,40.1995957 C44.3313292,39.9764674 44.6079065,39.753339 44.8844839,39.5309545 C45.0606905,39.2654318 45.2361536,39.0006528 45.4123601,38.7358739 C45.4026948,38.5543962 45.3930294,38.3736622 45.3833641,38.1929283 C45.6777852,37.9638499 45.9722063,37.7347715 46.2658839,37.5064368 C46.0829859,37.4142104 45.9008315,37.3234716 45.7179335,37.231989 C45.5900537,37.0162983 45.4621738,36.8013513 45.3350374,36.5864043 C45.0368989,36.6221049 44.7387604,36.6585492 44.4406218,36.6942497 C44.0859782,36.4577337 43.7313347,36.2204739 43.3774346,35.9847016 C43.2525286,36.0642841 43.1283662,36.1438665 43.0042038,36.2234489 C42.9700034,36.0337899 42.9358029,35.843387 42.902346,35.6537279 C42.7335743,35.7005849 42.5648026,35.7466981 42.3960309,35.793555 C41.7588621,35.4967944 41.1224367,35.2015212 40.4874983,34.9077356 C40.2889871,34.9560801 40.0904759,35.0044245 39.8919647,35.052769 C39.5841609,34.8512097 39.276357,34.6503942 38.9692966,34.4495788 C38.4094504,34.551474 37.8488608,34.6533693 37.2890146,34.7560083 C37.0131807,34.685351 36.7373468,34.61395 36.4615129,34.5425489 C36.2659757,34.651138 36.071182,34.7597271 35.8756447,34.8675725 C35.6578029,34.8645974 35.4392175,34.8616224 35.2213756,34.8579036 C35.1730489,34.7061763 35.1247222,34.5544491 35.0756521,34.4034656 C34.8771409,34.4228034 34.6786297,34.4421411 34.4801185,34.4614789 C34.3247296,34.3536336 34.1693407,34.2450445 34.0139518,34.1364553 C33.8920198,34.11563 33.7708313,34.094061 33.6488994,34.0724919 C33.5589374,33.9185333 33.4682319,33.7645748 33.3782699,33.6106163 C33.3842178,33.4678141 33.3909092,33.325012 33.3976006,33.1829536 C33.3061516,33.1591533 33.2154461,33.1360967 33.1239971,33.1130401 C32.9292034,33.2208854 32.7351531,33.3294746 32.5403594,33.4373199 C32.1693591,33.8069692 31.7983587,34.1773622 31.4281019,34.5477552 C30.8727167,34.6518818 30.3180749,34.7567521 29.7641767,34.8608786 C29.473473,34.9293047 29.1820259,34.9977307 28.8913222,35.0661567 C28.6147449,35.3591986 28.337424,35.6522404 28.0608466,35.9460261 C27.9047142,36.2613808 27.7485818,36.5759917 27.5924494,36.8913464 C27.5485836,37.150919 27.5039744,37.4112354 27.4593651,37.6715518 C27.0340902,37.9772376 26.6088153,38.2821796 26.1850274,38.5878654 C25.4065959,38.847438 24.6296513,39.1070107 23.8556808,39.367327 C23.330035,39.6149995 22.8051328,39.8626719 22.2817175,40.1103444 C21.5255906,40.8184049 20.7716942,41.5272092 20.0207717,42.2360135 C19.5858315,42.5803749 19.1516347,42.9239925 18.718925,43.2683539 C18.5583316,43.5383392 18.3984818,43.8083245 18.238632,44.0783097 C18.2847282,44.3631702 18.3308244,44.6487745 18.3769207,44.9351225 C18.2549887,45.1180877 18.1338002,45.3017967 18.0118683,45.4855057 C17.9300846,45.9369687 17.8490445,46.3891754 17.7680043,46.8413822 C17.3412424,47.5717555 16.916711,48.3021289 16.4936666,49.0317586 C16.1130009,49.3962015 15.7330788,49.7606444 15.3546436,50.1243436 C15.2341986,50.9424808 15.1167276,51.7613617 15,52.5802427 C15.1531584,52.8546905 15.3063169,53.1298821 15.4594753,53.4050737 C15.6096598,54.0618148 15.7605878,54.7192996 15.9122593,55.3775281 C15.9063114,56.3488801 15.9025939,57.3202321 15.9018505,58.291584 C16.0996182,58.77726 16.2973859,59.2636798 16.4966405,59.7500995 C16.7345566,60.2104876 16.9739596,60.6708757 17.2133626,61.1312639 C17.5092706,61.7344541 17.8051787,62.3376443 18.1033172,62.9408346 C18.7806344,62.8932339 19.4601821,62.8448894 20.1412167,62.7965449 C20.5345217,63.0308297 20.9285701,63.2658582 21.3226185,63.5001429 C21.4705725,63.6689767 21.6177831,63.8378104 21.7657371,64.0066442 C21.7649936,64.0066442 21.8661079,64.0051567 22.0237273,64.0036692 C22.553834,63.9992066 23.721853,63.994744 23.8370936,64.044576 C23.9828171,64.110027 25.5909808,64.5562836 25.5917243,64.5562836 C26.1642097,64.514633 26.7374387,64.4722386 27.3114111,64.4298443 C27.646724,64.6804917 27.9820369,64.931883 28.3180933,65.1832742 C28.3180933,65.1832742 28.7827731,66.1851204 28.698759,66.2810656 C28.6154883,66.376267 28.3783158,66.6261707 28.3790593,66.6261707 C28.5017347,66.9311128 28.6251537,67.2353111 28.7485726,67.5402531 C29.3805371,67.715037 30.014732,67.8898208 30.6489269,68.0653484 C30.7768068,68.6068065 30.9046867,69.1482646 31.03331,69.6889789 C30.526995,70.4795969 30.0229104,71.2679837 29.5210562,72.0533954 C29.2184568,72.4304822 28.9166008,72.8068253 28.6147449,73.1816809 C28.9864887,74.056344 29.3597194,74.928032 29.7329502,75.7974887 C29.7329502,75.7982324 30.0020927,77.1674966 29.9797881,77.328149 C29.9545095,77.4947515 29.9113872,80.4675645 29.9128742,80.4631019 C29.7790464,80.5746661 29.6452187,80.6862303 29.5113909,80.7977944 C29.4221724,81.0142289 29.3336974,81.2291759 29.2444789,81.4441228 C29.2110219,81.8807106 29.1768215,82.3158108 29.144108,82.7494235 C28.9968975,82.965858 28.8496869,83.1815487 28.7032199,83.3972394 C28.3247847,83.6099551 27.9478365,83.8211832 27.5708883,84.0331551 C27.0519339,84.5575067 26.5359535,85.0788832 26.0222036,85.5972847 C25.8645842,86.0926296 25.7077084,86.5857432 25.551576,87.0766255 C25.7344739,87.4425559 25.9166284,87.8077426 26.0995263,88.1721856 C26.0727608,88.485309 26.0467387,88.7984324 26.0199731,89.1108121 C26.120344,89.7474715 26.2214583,90.381156 26.3233161,91.0118654 C26.0036164,92.1133755 25.6883777,93.2037293 25.3798303,94.2806953 C25.3850347,94.7254645 25.3894957,95.1672586 25.3954436,95.6075651 C25.5292713,95.7674738 25.6630991,95.9273824 25.7969269,96.0865473 C25.8497145,96.5841234 25.9032456,97.0787245 25.9567767,97.5710944 C26.0065904,98.1757721 26.057891,98.7759873 26.1099351,99.37174 L25.3798303,99.813534 L25.2549244,100.947026 C25.5835459,101.206599 25.9121674,101.465427 26.240789,101.723513 C26.7322343,101.791939 27.2236796,101.860365 27.7158684,101.928047 C28.2824059,102.087212 28.8489435,102.246377 29.4162245,102.404054 C29.7835074,102.601894 30.1500467,102.799735 30.5165861,102.996831 C31.304683,102.999063 32.0942668,103.00055 32.8860811,102.999807 C34.0987094,102.485124 35.3217465,101.961516 36.5537054,101.430471 C36.7529601,101.397745 36.9529582,101.36502 37.1522129,101.332294 C37.5856662,100.742492 38.0213499,100.146739 38.4607511,99.5465238 C38.4280376,99.4572725 38.3960677,99.3680212 38.3648412,99.2787698 C38.733611,99.222244 39.1023809,99.1664619 39.4718942,99.1091923 C39.9707744,99.1173737 40.4696546,99.1248113 40.9692782,99.1315051 C41.1871201,98.5521152 41.4064489,97.9682628 41.6272648,97.3799478 C41.671874,96.7336194 41.7179703,96.0828285 41.7640665,95.4275749 C42.18265,95.3331173 42.6012335,95.2379159 43.021304,95.1419707 C43.199741,95.0021436 43.3789215,94.8623165 43.5573586,94.7217457 C43.8302185,94.792403 44.1030785,94.8623165 44.3766819,94.9329738 C45.1684962,94.8801668 45.9617974,94.826616 46.7558422,94.7715777 C47.1164337,94.4889484 47.4777687,94.2055755 47.8398471,93.9214587 C48.3803626,92.7678853 48.925339,91.6001804 49.4740329,90.4198316 C49.3342572,90.1156333 49.193738,89.8099475 49.0532189,89.5042617 C49.1335155,89.0669302 49.2130687,88.6273674 49.2933654,88.1870608 C49.5335119,87.9795514 49.7736584,87.7712983 50.0145483,87.5623015 C49.9045122,87.2514093 49.7937325,86.9397735 49.6836964,86.6281376 C50.0621315,86.2086563 50.4420537,85.7876875 50.8219759,85.3652312 C51.143906,85.0736769 51.4658361,84.7821225 51.7885097,84.4898244 C52.2457546,84.4228859 52.7029995,84.3566912 53.1609878,84.2897527 C53.7029903,83.9022532 54.2464797,83.5132661 54.7899692,83.1235353 C56.3260145,82.6579409 57.8650339,82.1886277 59.4033097,81.7155956 C59.4992196,81.5683309 59.5951295,81.4203225 59.6910394,81.2730578 C59.8910376,81.2544637 60.0902922,81.2358697 60.2902904,81.2180194 C60.7973489,80.7784566 61.305151,80.3374063 61.812953,79.896356 C62.2345105,79.4181176 62.6553244,78.9391355 63.0768819,78.4594096 C63.6530848,77.89787 64.2292877,77.3348428 64.8054906,76.7710719 C65.1207293,76.2296139 65.4367115,75.6866683 65.7526938,75.1429789 C65.2731443,75.1623167 64.7928513,75.1816545 64.3125583,75.2002485 C64.0627465,75.0656278 63.8121911,74.931007 63.5616358,74.7963862 C62.9594109,74.8231616 62.3564424,74.8491933 61.7527305,74.8744812 C61.660538,74.7480418 61.5683456,74.6208586 61.4768966,74.4936755 C61.0709524,74.4401247 60.6642647,74.3873176 60.2575769,74.3337669 C60.0278393,73.7804086 59.7966146,73.2255628 59.56539,72.6692295 C59.7334182,72.5926222 59.9007029,72.515271 60.0679876,72.4386636 C60.1073925,72.2482608 60.1467973,72.0571142 60.1854586,71.8667113 C60.0449395,71.5104498 59.9029334,71.1541882 59.7616707,70.7971829 C59.6955003,70.2348995 59.6285864,69.6718724 59.5616726,69.1073577 C59.2516382,68.5882125 58.9408604,68.0690672 58.6293391,67.5476907 C58.7936499,66.7228597 58.9579606,65.8965411 59.1215279,65.0694788 C58.9460648,64.4402569 58.7691148,63.8102913 58.5921647,63.1795819 C58.8308242,62.6976247 59.0687403,62.2149238 59.3073998,61.7322228 C59.3557265,61.2725785 59.4033097,60.8129341 59.4516364,60.3532898 C59.2917866,59.9241396 59.1319367,59.4949895 58.9720869,59.0658393 C59.0635359,58.7140403 59.1542414,58.3629851 59.2449468,58.0111861 C59.2241292,57.4317962 59.2033115,56.8516626 59.1824939,56.2722727 C59.178033,55.6542072 59.1728285,55.0361418 59.1676241,54.4180763 C59.1854678,54.0960278 59.204055,53.7732355 59.2218987,53.4511869 C59.2226422,53.4511869 59.3200391,52.0075466 59.3297044,51.8416879 C59.3282174,52.0253969 59.5795163,53.8751307 59.5802597,53.8758745 C59.8129714,53.8557929 60.0464265,53.8364552 60.2791381,53.8171174 C60.4672404,53.9725634 60.6553428,54.1287533 60.8427017,54.2849431 C60.9512509,55.1871253 61.0583131,56.0893075 61.1653753,56.9914897 C61.1415837,57.4317962 61.1177921,57.871359 61.093257,58.3116656 C61.2263413,58.8040354 61.3579386,59.2964053 61.4902794,59.7887751 C61.2850768,60.3012265 61.0798742,60.8129341 60.8739282,61.3246417 C60.7966055,61.9211381 60.7185393,62.5176345 60.6404731,63.1141309 C60.8605454,63.642945 61.0798742,64.1710154 61.2992031,64.6990858 C61.271694,65.2107934 61.2434415,65.722501 61.215189,66.2334649 C61.2977161,66.6269145 61.3802432,67.0203641 61.4627703,67.4138137 C61.4627703,67.4145575 60.9847078,69.5350203 60.8977198,69.6309655 C60.8107317,69.7283982 60.4419619,71.4873932 60.4419619,71.4859057 C60.5051583,71.6465581 60.5690982,71.8064667 60.6322947,71.9671191 C60.9817339,72.0853771 61.3304295,72.2028913 61.6798687,72.3211494 C61.8508709,72.2014038 62.0226165,72.0816583 62.1943621,71.961169 C62.4813483,72.0831458 62.769078,72.2043789 63.0568077,72.3263557 C63.3973251,72.2928864 63.7378424,72.2586734 64.0783597,72.2252042 C64.3497327,72.2809863 64.6211056,72.3360246 64.8924786,72.3918067 C65.3385712,72.2847051 65.7846637,72.1776035 66.2307563,72.0697581 C66.9043561,72.0147198 67.5772123,71.9589377 68.2493251,71.9024119 C68.3913312,71.6815148 68.5325939,71.4606178 68.6746,71.238977 C69.4589794,71.2605461 70.2426154,71.2813714 71.0240208,71.3021967 C71.1861011,71.1341067 71.3481814,70.9660167 71.5102617,70.7971829 C71.8046828,70.8931281 72.0991039,70.9883295 72.3927815,71.0835309 C72.5176874,70.8998219 72.6425933,70.7161129 72.7674992,70.5316602 C73.1622911,70.5963674 73.5570831,70.6603309 73.9511315,70.7242943 C74.0641416,70.4022458 74.1764082,70.0794535 74.2886749,69.7574049 C74.5935048,69.561052 74.8975912,69.3646991 75.2016776,69.1683461 C75.6983273,68.6990329 76.1942336,68.2282321 76.6893963,67.7581751 C76.6470175,67.6213231 76.6053822,67.484471 76.5630034,67.347619 C76.557799,67.0932527 76.5525946,66.8381427 76.5466467,66.5830326 C76.5473902,66.5830326 76.2076163,65.8571218 76.0812235,65.8474529 C75.9540871,65.8370402 75.5481428,65.2606254 75.5481428,65.2606254 C75.4314153,64.8225501 75.3139443,64.3852186 75.1964732,63.9463996 C75.3355054,63.5893942 75.4745376,63.2323889 75.6135698,62.8753836 C75.5109685,62.8753836 75.4091107,62.8761274 75.3065094,62.8761274 C75.1801165,63.0003355 75.0537236,63.1245436 74.9273307,63.2487517 C74.5860699,63.4294856 74.2455526,63.6102195 73.9035483,63.7909535 C73.5563396,63.8497106 73.2083874,63.9084677 72.8604352,63.9672249 C72.632928,63.7797971 72.4054208,63.5916255 72.1779136,63.4041977 C71.9846068,63.4101478 71.7905565,63.4160979 71.5965063,63.422048 C71.4537567,63.2413141 71.311007,63.0598363 71.1682574,62.8791024 C71.3169549,62.7043186 71.4656525,62.5287909 71.61435,62.3547508 C71.7132338,62.0230334 71.8113742,61.6920597 71.9087711,61.361086 C71.7340515,61.4942193 71.5585884,61.6273525 71.3838688,61.7612295 C71.2128667,61.747098 71.0418645,61.7329666 70.8708624,61.7188351 C71.0374036,61.2978663 71.2032013,60.8761538 71.3689991,60.4544413 C71.2017144,60.1576806 71.0336862,59.8601762 70.865658,59.5626717 C70.9191891,59.4369761 70.9734637,59.3105367 71.0269948,59.1840973 C70.9548765,58.973613 70.8827582,58.7623848 70.8098964,58.5519004 C70.7690046,58.0253176 70.7273693,57.4987347 70.685734,56.9721519 C70.801718,56.7683613 70.9177021,56.5645708 71.0336862,56.3607803 C71.1370309,56.4649068 71.2403757,56.5697771 71.3437205,56.6746474 C71.3794079,56.4515191 71.4150953,56.227647 71.4515262,56.003775 C71.5325663,56.159221 71.61435,56.3146671 71.6961336,56.4693694 C71.7994784,56.4693694 71.9028232,56.4693694 72.0061679,56.4701131 C72.1303304,56.6285343 72.2544928,56.7869554 72.3786552,56.9461202 C72.4998437,56.9386826 72.6210322,56.931245 72.7414772,56.9245512 C72.7942648,57.2161055 72.8470524,57.5084036 72.89984,57.799958 C72.8373871,57.9821794 72.7741906,58.1636571 72.7117377,58.3458786 C72.9147098,59.2859926 73.1169384,60.2253629 73.3169366,61.1632456 C73.650019,61.5172759 73.9831015,61.8698186 74.3146969,62.2231051 C74.8031683,62.2104612 75.2908961,62.198561 75.7778805,62.1859171 C75.926578,62.145754 76.0745321,62.1063346 76.2232296,62.0661715 C76.3020393,62.3242566 76.3815924,62.581598 76.4596586,62.8396831 C76.4247147,63.0925618 76.3890273,63.3454406 76.3525964,63.5975756 C76.4507368,63.8787173 76.5481337,64.1591152 76.6455305,64.4387694 C76.9154165,64.5555399 77.184559,64.6723104 77.4537016,64.7883371 C77.7659663,64.9385768 78.0782311,65.0888166 78.3904959,65.2383126 C78.5310151,65.4480532 78.6722777,65.6577938 78.8127969,65.8667907 C79.1168833,65.8645594 79.4209697,65.8623281 79.7243127,65.8600968 C79.8782146,65.971661 80.0321165,66.0824814 80.185275,66.1933018 C81.0343378,66.4268428 81.8796832,66.65964 82.7213112,66.8909497 C82.672241,67.1363908 82.6231708,67.381832 82.5741006,67.6265294 C82.6863673,67.7931319 82.7993774,67.9604781 82.9123875,68.1270806 C82.9324616,68.3435151 82.9525358,68.558462 82.97261,68.7741528 C83.2038346,68.9623243 83.4343158,69.1504959 83.6647969,69.3379237 C83.5436085,69.5513831 83.4216765,69.7640988 83.300488,69.9775582 C83.4053198,70.1255666 83.510895,70.2743189 83.6164702,70.4223273 C83.8655386,70.5004222 84.1146069,70.5777734 84.3636753,70.6551245 C84.6015913,70.5956236 84.8395073,70.5361228 85.0766799,70.4766219 C85.1145977,70.5517417 85.1525156,70.6268616 85.18969,70.7012377 C84.9421086,70.8157769 84.6945273,70.9303161 84.4469459,71.0441116 C83.9711138,71.0017172 83.4945383,70.9593228 83.0164757,70.9161847 C83.1674037,71.3490536 83.3168447,71.7811788 83.4662857,72.2118165 C83.509408,72.465439 83.5532738,72.7190615 83.5963961,72.9719403 C83.8149814,73.0210285 84.0328233,73.0701168 84.2514086,73.119205 C84.527986,73.0024345 84.8053069,72.8864078 85.0818843,72.7696373 C85.2707301,72.4691578 85.459576,72.1686783 85.6484218,71.8681989 C85.8075282,71.8919992 85.4714718,72.9362398 85.4714718,72.9362398 C85.4707283,73.0968922 85.4692413,73.2575446 85.4684978,73.418197 C85.1755637,73.7618146 84.8826296,74.1054322 84.588952,74.4483061 C84.591926,74.7569669 84.5941564,75.064884 84.5971304,75.3720573 C84.3577274,76.0005354 84.1168374,76.6282698 83.8759474,77.2537729 C83.7376587,78.48916 83.5956526,79.7185971 83.4506725,80.9398528 C83.362941,81.2209945 83.2759529,81.5006486 83.1874779,81.7803028 C83.1926823,82.6728161 83.1956563,83.5601231 83.1963997,84.4429675 C83.0990029,84.5314751 83.001606,84.6199826 82.9042091,84.7084902 C82.969636,85.2469732 83.0343194,85.783225 83.0982594,86.3172454 C83.2952836,86.3678212 83.4923078,86.4191407 83.6885885,86.4704602 C83.8424905,86.3202205 83.9971359,86.1707245 84.1510378,86.0212285 C84.500477,85.751987 84.8491727,85.4820017 85.1971249,85.2127602 C85.3354136,85.2402794 85.4737023,85.2677985 85.6119909,85.2953177 C85.6900571,85.0439265 85.7681233,84.7917914 85.8461895,84.5396564 C86.1755545,84.1625696 86.5049195,83.7839952 86.8327976,83.4054208 C87.0060302,82.9777582 87.1792628,82.548608 87.3517519,82.1187141 C87.5487761,81.8137721 87.7450569,81.5080863 87.9413376,81.2024005 C88.007508,80.9710908 88.0729349,80.7397811 88.1383618,80.5084714 C88.3324121,80.4452517 88.5257188,80.382032 88.7190256,80.3188123 C89.0156772,80.2697241 89.3123287,80.2206358 89.6074933,80.1708038 C89.8350005,80.1224594 90.0625077,80.0733711 90.2892714,80.0242829 C90.4119469,79.8740432 90.5353658,79.7245472 90.6580413,79.5750512 C90.9368491,79.5906702 91.2149135,79.6062892 91.4922343,79.6219082 C92.0714112,79.3325851 92.649101,79.043262 93.2245604,78.753939 C93.3747449,78.6304746 93.5256729,78.5070103 93.6758574,78.3835459 C93.8394247,78.4668472 94.002992,78.5501484 94.1658157,78.6334497 C94.4944373,78.470566 94.8230588,78.3076823 95.1501933,78.1440549 C95.3256564,77.9030763 95.5011195,77.6606102 95.6765825,77.4188878 C95.9546469,77.3935999 96.2319678,77.3683121 96.5092886,77.3422804 C96.5107756,77.4865701 96.5122626,77.6308597 96.5137496,77.7751494 C96.8899543,77.7342425 97.2654155,77.6933357 97.6393898,77.6524288 C97.6951514,77.7334988 97.7509129,77.8145687 97.8066745,77.8956387 C97.9650374,77.7193673 98.1234002,77.5430959 98.2810196,77.3668245 C98.2810196,77.3668245 98.3568553,77.2165848 98.4364085,77.0663451 C98.5300879,76.8908175 98.6304588,76.7145461 98.6215369,76.7807408 C98.6059237,76.9034614 99.0207897,77.3831873 99.0207897,77.3824435 C98.9315712,77.8748134 98.8416092,78.3656957 98.7509037,78.8558342 C98.736034,79.2641591 98.7211642,79.6717401 98.705551,80.0778337 C98.9352887,80.1179968 99.1642828,80.1581599 99.3925335,80.1975792 C99.3003411,80.6282169 99.2066616,81.0581108 99.1137257,81.4865172 C99.0371465,81.6531197 98.9605672,81.8197222 98.8832445,81.9855809 C98.9048057,82.0800385 98.9263668,82.1737524 98.947928,82.2674663 C98.8542485,82.4972885 98.7605691,82.7271107 98.6668896,82.9569329 C98.5077833,83.1592359 98.348677,83.3615389 98.1895706,83.5630981 C98.1286046,83.6932563 98.0676386,83.8234145 98.0066727,83.9535727 C98.0877128,84.1134813 98.1680095,84.27339 98.2483061,84.4332986 C98.4378955,84.4689991 98.6282283,84.5046997 98.8178176,84.541144 C99.095882,84.4161921 99.3732029,84.291984 99.6497802,84.1670321 C99.6497802,84.1670321 100.011859,83.641193 99.994015,83.7609386 C99.9769148,83.8814279 100.356837,84.628164 100.356093,84.6274202 C100.272823,84.8594737 100.188809,85.0907834 100.104795,85.3220931 C99.9791452,85.8583448 99.8520089,86.3923653 99.7248725,86.925642 C99.7486641,87.0877819 99.7724557,87.2506656 99.7962473,87.4128055 C99.6929025,87.7326228 99.5895577,88.0516963 99.4869565,88.3692823 C99.4044293,88.4607649 99.3211587,88.5522475 99.2386316,88.6437301 C99.1940223,88.970985 99.1486696,89.2982398 99.1033169,89.6240072 C98.9925372,89.7727594 98.8810141,89.9207679 98.7702344,90.0695201 C98.6929117,90.1483588 98.615589,90.2279412 98.5382663,90.3067799 C98.5471881,90.3930562 98.5553665,90.4785887 98.5642884,90.5641212 C98.4587131,90.6734541 98.3538814,90.782787 98.2490496,90.8921198 C98.0497949,91.087729 97.8512838,91.2825944 97.6512856,91.4782036 C97.6966383,91.7965333 97.7412476,92.1133755 97.7858568,92.4302178 C97.8780493,92.7515226 97.9694983,93.0720836 98.0609473,93.3911571 C97.9226586,93.8381575 97.7836264,94.2829266 97.6438507,94.7262082 C97.5486843,94.9857809 97.4527744,95.2438659 97.357608,95.5012073 C97.298129,95.7860678 97.23865,96.0701845 97.179171,96.3535575 C97.1769405,96.5261101 97.17471,96.6979189 97.1724796,96.8697277 C97.1122571,97.0326114 97.0520346,97.195495 96.9910686,97.3576349 C97.1888363,97.8410797 97.3836301,98.3208056 97.5761933,98.7975564 C97.5761933,98.7975564 97.9531416,98.5833532 98.0460775,98.6175662 C98.1390134,98.652523 98.3665207,98.8540822 98.3665207,98.8540822 C98.4059255,98.4108006 98.4445869,97.9660315 98.4817612,97.5182873 C98.4825047,97.5197749 99.2416056,96.2167054 99.2624232,96.1036538 C99.2832409,95.9935771 99.2520144,94.8995046 99.2512709,94.8987608 C99.1605654,94.5157238 99.0698599,94.1311994 98.9776675,93.7451874 C98.8542485,93.4685082 98.7308296,93.1910854 98.6066671,92.912175 C98.6304588,92.6637587 98.6549938,92.4153425 98.6787854,92.1661826 C98.6661462,91.8895035 98.6527634,91.6113368 98.6393806,91.3331702 C98.8720922,91.069135 99.1048038,90.8050998 99.336772,90.5403209 C99.7568425,89.8709359 100.174682,89.1978321 100.591036,88.522497 C100.711481,88.3782074 100.832669,88.233174 100.953114,88.0881406 C101.062407,88.1736731 101.172443,88.2592056 101.281736,88.3447381 C101.212591,88.5656352 101.143447,88.7865322 101.073559,89.0059417 C101.237126,89.058005 101.39995,89.1093245 101.562774,89.160644 C101.53006,89.3815411 101.497347,89.6024381 101.464633,89.8225914 C101.53006,89.9445682 101.594744,90.0658013 101.660171,90.1877781 C101.634149,90.5194955 101.607383,90.8504692 101.580618,91.1806991 C101.683962,91.2483814 101.786564,91.3168074 101.889165,91.3844897 C101.86463,91.4834099 101.840095,91.5823301 101.81556,91.6819941 C101.935261,91.7154634 102.054963,91.7481889 102.174664,91.7816581 C102.145668,91.9876799 102.117416,92.1937017 102.08842,92.3989798 C101.956822,92.5373194 101.825968,92.6749152 101.694371,92.8132547 C101.645301,92.983576 101.596974,93.1531535 101.547904,93.3234748 C101.547161,93.3234748 101.183595,93.7481624 101.297349,93.6708113 C101.411102,93.5934601 102.262396,93.1553848 102.261652,93.1553848 L102.41258,93.2952119 C102.498081,93.0044013 102.583582,92.7143345 102.66834,92.4227802 C102.708488,92.5871514 102.748637,92.7515226 102.788785,92.91515 C102.878003,92.9091999 102.966478,92.9039936 103.055697,92.8980435 C103.036366,92.7418537 103.016292,92.5856638 102.996961,92.429474 C102.966478,92.2688216 102.936739,92.1081692 102.906256,91.9467731 C103.046032,92.1104005 103.185807,92.2732842 103.324839,92.4354241 C103.629669,92.4227802 103.933756,92.4101362 104.237099,92.3974923 C105.107723,91.2483814 105.935224,90.0583637 106.726295,88.8333892 C106.717373,88.5619164 106.708451,88.2896998 106.698786,88.0167395 C106.724065,87.8620372 106.749343,87.7080787 106.775365,87.5533763 C106.738191,87.4276807 106.701017,87.3027289 106.663099,87.1770332 C106.653433,86.994068 106.643768,86.810359 106.633359,86.62665 C106.527041,86.390134 106.419978,86.1521305 106.312173,85.9141269 C106.341169,85.7735561 106.370908,85.6329852 106.399904,85.4931581 C106.354551,85.2521796 106.308455,85.0104572 106.261615,84.7687348 C106.379086,84.6229577 106.495814,84.4771805 106.612542,84.3306596 C106.683173,84.1789323 106.753061,84.0279488 106.823692,83.8754778 C106.98949,83.8338272 107.155288,83.7921765 107.321085,83.7505259 C107.598406,83.5459916 107.87424,83.3422011 108.150074,83.1384106 C108.323307,83.1562608 108.496539,83.1733673 108.669772,83.1912176 C108.881666,83.0722158 109.092816,82.9524703 109.303223,82.8334685 C109.46456,82.9018945 109.625153,82.9703206 109.785747,83.0380028 L109.935188,83.2068366 C110.412507,82.2458973 110.870495,81.2700827 111.299487,80.2719553 C119.454059,61.2941475 116.631037,40.3669419 105.67426,24.5560688 C105.593964,24.5902818 105.513667,24.6244948 105.43337,24.6594516 C105.334486,24.7249026 105.235603,24.7903536 105.135975,24.8558045 C104.78951,24.8119226 104.442301,24.7680407 104.093606,24.7241588 C104.205129,24.8558045 104.316652,24.9874503 104.428175,25.119096 C104.380592,25.3779248 104.332265,25.6367537 104.283938,25.8963263 C104.187285,25.8360816 104.090632,25.7750932 103.993978,25.7148486 C103.946395,25.4723825 103.898068,25.2299164 103.848998,24.9874503 C103.681713,24.866961 103.514429,24.7464717 103.346401,24.6252386 C103.204394,24.6200323 103.063132,24.6148259 102.921126,24.6096196 C102.707745,24.3515345 102.494364,24.0934494 102.280983,23.8361081 C102.318157,23.7267752 102.355332,23.6166986 102.392506,23.5073657 C102.594735,23.6055422 102.79622,23.7044624 102.997705,23.8026388 C103.080232,23.9067654 103.162759,24.0108919 103.244543,24.1150185 C103.404393,24.1425377 103.564986,24.1700568 103.724836,24.197576 C103.84305,24.1150185 103.961265,24.0332048 104.079479,23.9513911 C104.150111,24.0503113 104.221485,24.1484877 104.292117,24.2466642 C104.487654,24.1655943 104.683191,24.0837805 104.877985,24.0019668 C104.993969,23.96701 105.10921,23.9320533 105.225194,23.8970965 C104.311447,22.6163399 103.333761,21.3779777 102.312953,20.1708535 C102.295109,20.3277871 102.277265,20.4839769 102.259422,20.6409105 C102.379123,20.7115678 102.498825,20.7822251 102.618526,20.8528824"/>
        <path fill="#004A75" d="M32.389391,104 C31.6840774,104 30.9795092,103.999245 30.2764323,103.996979 C29.908864,103.796831 29.5412956,103.595928 29.1729817,103.395025 C28.6041082,103.234907 28.0359803,103.073278 27.4678523,102.911649 C26.9742819,102.84292 26.481457,102.773434 25.9886321,102.703949 C25.6590881,102.441869 25.329544,102.179033 25,101.915442 L25.1252566,100.764404 L25.8574109,100.315771 C25.8052207,99.7107963 25.753776,99.1012898 25.7038225,98.4872516 C25.6501412,97.9872599 25.5964598,97.4850024 25.543524,96.9797238 C25.4093205,96.818095 25.2751171,96.655711 25.1409136,96.493327 C25.140168,96.4563186 25.140168,96.4185549 25.1394225,96.3815464 C25.443617,96.5205169 25.7493026,96.6572216 26.057225,96.7916604 C30.0400851,98.5257706 34.1191244,99.7198596 38.211584,100.406404 C38.2220221,100.435104 38.2324601,100.46456 38.2428982,100.493261 C37.8022635,101.102767 37.3653567,101.707742 36.9306867,102.306675 C36.7308726,102.339907 36.530313,102.373139 36.330499,102.406371 C35.0950817,102.945637 33.8686113,103.47735 32.6525789,104 C32.5646011,104 32.4773689,104 32.389391,104 M98.3168356,99.7901001 C98.3168356,99.7901001 98.0886897,99.5854207 97.9954929,99.5499228 C97.9887827,99.547657 97.9798358,99.5461464 97.9701433,99.5461464 C97.8478691,99.5461464 97.5242897,99.7326992 97.5242897,99.7326992 C97.3311858,99.2485683 97.1358452,98.7614163 96.9375224,98.2704879 C96.9986595,98.105838 97.059051,97.9404329 97.1194426,97.7750278 C97.1216793,97.6005594 97.123916,97.426091 97.1261528,97.2508673 C97.1857987,96.9631077 97.2454447,96.6745929 97.3050907,96.3853228 C97.4005243,96.1239978 97.4967034,95.8619176 97.592137,95.5983268 C97.732305,95.1481832 97.8717275,94.6965291 98.0104044,94.2426091 C97.9186987,93.9185964 97.826993,93.5930731 97.7345417,93.2667945 C97.6898072,92.9450476 97.6450728,92.6233006 97.5995927,92.3000432 C97.8001523,92.101406 97.9992208,91.9035241 98.1990348,91.7048869 C98.3041608,91.5938615 98.4092869,91.4828362 98.5151585,91.3718108 C98.5062116,91.2849543 98.4980102,91.1980977 98.4890633,91.1104859 C98.5666031,91.0304268 98.6441429,90.9496124 98.7216827,90.8695533 C98.8327733,90.7184984 98.9446095,90.5681988 99.0557001,90.4171439 C99.1011802,90.0863337 99.1466602,89.7540129 99.1913947,89.4216921 C99.2741535,89.3287934 99.3576579,89.2358946 99.4404167,89.1429959 C99.543306,88.8204937 99.6469409,88.4964809 99.7505758,88.1717129 C99.7267174,88.0070631 99.702859,87.841658 99.6790006,87.6770081 C99.8064939,87.1354763 99.9339872,86.5931893 100.059989,86.0486364 C100.144239,85.813746 100.228489,85.5788556 100.311994,85.34321 C100.311994,85.34321 99.9317504,84.5856697 99.9488986,84.4633152 C99.9503898,84.4512308 99.9481531,84.4451887 99.942934,84.4451887 C99.8959628,84.4451887 99.6036976,84.8756951 99.6036976,84.8756951 C99.3263438,85.0025812 99.0482444,85.128712 98.7693994,85.2555982 C98.5792779,85.2185897 98.3884108,85.1823365 98.1982892,85.1460834 C98.1177671,84.9836994 98.0372451,84.8213153 97.9559774,84.6589313 C98.0171145,84.5267583 98.0782517,84.3945853 98.1393888,84.2624122 C98.2989418,84.0577328 98.4584948,83.8522982 98.6180478,83.6468635 C98.7119902,83.4134837 98.8059326,83.1801039 98.899875,82.9467241 C98.8782533,82.8515595 98.8566317,82.7563949 98.83501,82.6604751 C98.9125498,82.4920489 98.989344,82.3228674 99.0661382,82.1536859 C99.159335,81.7186478 99.2532774,81.2820992 99.3457287,80.8447952 C99.1168373,80.8047657 98.8872002,80.7639809 98.6568177,80.7231961 C98.6724747,80.3108162 98.6873862,79.8969258 98.7022977,79.4822801 C98.7932578,78.9845542 98.8834724,78.4860731 98.9729413,77.9860814 C98.9729413,77.9868366 98.5569106,77.4996846 98.5725677,77.3750643 C98.5740589,77.3652458 98.5725677,77.3607141 98.5695854,77.3607141 C98.5516916,77.3607141 98.4674417,77.5132796 98.3869196,77.6650897 C98.3071431,77.8176552 98.2310945,77.9702206 98.2310945,77.9702206 C98.0730327,78.1492207 97.9142252,78.3282207 97.7554178,78.5072208 C97.6994997,78.4248958 97.6435816,78.3425709 97.5876635,78.260246 C97.2126394,78.3017861 96.8361242,78.3433262 96.4588634,78.3848663 C96.4573722,78.238343 96.4558811,78.0918198 96.4543899,77.9452965 C96.1762906,77.9717312 95.8981912,77.9974105 95.6193463,78.0230898 C95.4433906,78.268554 95.267435,78.5147735 95.0914794,78.7594824 C94.7634265,78.9256428 94.4338824,79.0910479 94.1043384,79.256453 C93.9410576,79.1718623 93.7770311,79.0872716 93.6130047,79.0026808 C93.4623986,79.1280564 93.3110469,79.2534319 93.1604408,79.3788075 C92.583366,79.6726093 92.0040544,79.966411 91.4232517,80.2602128 C91.1451524,80.244352 90.8663074,80.2284913 90.5867169,80.2126305 C90.4636971,80.3644407 90.3399317,80.5162509 90.2169118,80.6688163 C89.9895115,80.7186644 89.7613657,80.7685125 89.5332198,80.8176054 C89.2372267,80.8682088 88.9397423,80.9180569 88.642258,80.967905 C88.4484086,81.0321033 88.2545592,81.0963016 88.0599642,81.1605 C87.9943536,81.3953903 87.928743,81.6302807 87.8623869,81.8651711 C87.6655551,82.1755889 87.4687234,82.4860067 87.2711461,82.7956692 C87.0981728,83.2322179 86.9244539,83.6680112 86.750735,84.102294 C86.4219365,84.4867287 86.0916469,84.8711635 85.7613573,85.2540876 C85.683072,85.5101257 85.6047866,85.7661637 85.5265013,86.0214465 C85.3878244,85.9935013 85.2491475,85.9655562 85.1104706,85.937611 C84.7615416,86.2110204 84.4118671,86.485185 84.061447,86.7585944 C83.907113,86.9104045 83.7520334,87.0622147 83.5976995,87.2147801 C83.4008678,87.1626662 83.2032905,87.1105523 83.0057132,87.0591936 C82.9788725,86.8311007 82.9512862,86.6030078 82.9244455,86.3741597 C87.8444931,81.6015803 91.9205501,75.7701061 94.7798291,69.0315472 C102.64937,50.4857826 99.2525319,29.9053085 87.6797211,15.1268529 C87.8728249,15.160085 88.0651832,15.1925618 88.258287,15.2257939 C88.2195172,15.1449795 88.1800017,15.0641651 88.1412318,14.9833508 C88.3067494,15.0581229 88.472267,15.1321398 88.6377846,15.2061567 C89.0873661,15.2197517 89.5362021,15.2325913 89.9835469,15.2469416 C90.1952902,15.2295702 90.4070334,15.2121989 90.6187766,15.1955829 C90.8029336,15.253739 90.9863449,15.3126504 91.1705019,15.3708066 C91.3188713,15.300566 91.4664951,15.2303255 91.6141189,15.160085 C91.7975302,15.143469 91.980196,15.1268529 92.1628619,15.1102369 C92.0897955,15.2016251 92.0159836,15.2930133 91.9421717,15.3851568 C92.0286584,15.4493551 92.1143995,15.5135534 92.2001406,15.5777518 C92.2083419,15.7446674 92.2165432,15.9123384 92.2247446,16.079254 C92.0569902,16.0150557 91.8892359,15.9508574 91.7214816,15.886659 L91.5813136,16.049043 C91.7923112,16.1834819 92.0033089,16.3179208 92.2135609,16.4531149 C92.3500011,16.4145959 92.4864413,16.3760769 92.6221359,16.3383132 C92.6385385,16.4840811 92.6541956,16.6306044 92.6698527,16.7763724 C92.7794521,16.7763724 92.8883061,16.7763724 92.99716,16.7756171 C92.9494432,16.640423 92.9032175,16.5052288 92.8562463,16.3700347 C93.1708789,16.4017562 93.4855114,16.4334777 93.7986528,16.4659546 C94.0200885,16.5679166 94.2407786,16.6706339 94.4614687,16.7733513 C94.4391015,16.8760686 94.4167342,16.9787859 94.3936214,17.0822585 C94.4950196,17.1796889 94.5956722,17.2771193 94.6963247,17.3745497 C94.7925039,17.2929801 94.888683,17.2114105 94.9848622,17.1305961 C95.37778,17.1630729 95.7699523,17.1955497 96.1613791,17.2280265 C96.0018261,17.3798367 95.8415275,17.5316468 95.6804834,17.683457 C95.8012665,17.9175921 95.9220496,18.1517272 96.0420871,18.3858623 C96.0987508,18.222723 96.15616,18.0588284 96.2120782,17.8956891 C96.2963281,17.8851153 96.3813236,17.8737862 96.464828,17.8632123 C96.5006156,17.9561111 96.5356576,18.0482546 96.5706996,18.1403981 C96.7511287,18.162301 96.9308122,18.184204 97.1104957,18.2061069 C97.1701417,17.9561111 97.2290421,17.7068705 97.2879425,17.4576299 C97.2514093,17.2521953 97.2148762,17.0467606 97.178343,16.8420812 C97.3423694,16.9070348 97.5071414,16.9727437 97.6711679,17.0376973 C97.7390152,16.9576382 97.8061169,16.8768239 97.8732186,16.7960095 C98.1610105,17.0074863 98.4480567,17.2189632 98.7343574,17.4311953 C98.7664171,17.2967565 98.7984769,17.1623176 98.8312821,17.0271235 C98.9789059,17.0981193 99.1272753,17.1691151 99.2756447,17.2401109 C99.3807707,17.4402586 99.4851512,17.6404064 99.5895316,17.8405541 C99.8064939,17.9825457 100.022711,18.1245373 100.238927,18.2665289 C100.239673,18.2665289 99.9876685,18.8994489 99.9548632,18.9976346 C99.9503898,19.0104742 99.9541177,19.0157612 99.9630646,19.0157612 C99.9943787,19.0157612 100.090558,18.9545839 100.178536,18.8934067 C100.266513,18.8322295 100.347036,18.7710522 100.347036,18.7710522 C100.641538,19.1524658 100.935294,19.53539 101.228305,19.9190694 C101.394568,20.3677025 101.560086,20.8178461 101.724112,21.2687449 C102.011158,21.0383862 102.296713,20.809538 102.580777,20.5814451 C102.46074,20.5096941 102.340702,20.437943 102.220665,20.3661919 C102.238559,20.206829 102.256452,20.0482214 102.274346,19.8888585 C103.29802,21.1146689 104.278451,22.3722009 105.194762,23.6727836 C105.078453,23.7082815 104.962889,23.7437794 104.846579,23.7792773 C104.651238,23.8623575 104.455152,23.9454376 104.259066,24.0277626 C104.188236,23.9280663 104.116661,23.8283701 104.045832,23.7279186 C103.927285,23.8109988 103.808739,23.894079 103.690193,23.9779144 C103.529894,23.9499693 103.36885,23.9220241 103.208551,23.894079 C103.126538,23.7883406 103.043779,23.6826021 102.961021,23.5768637 C102.75897,23.4771675 102.556919,23.376716 102.354123,23.2770197 C102.316844,23.3880451 102.279565,23.4998257 102.242286,23.6108511 C102.456266,23.872176 102.670246,24.1342563 102.884226,24.3963365 C103.026631,24.4016234 103.16829,24.4069103 103.310695,24.4121973 C103.479195,24.535307 103.646949,24.6576615 103.814704,24.7800159 C103.863911,25.0262354 103.912374,25.2724549 103.960091,25.5186744 C104.057015,25.5798516 104.15394,25.6417841 104.250865,25.7029613 C104.299327,25.4393705 104.347789,25.176535 104.395506,24.9136995 C104.28367,24.7800159 104.171834,24.6463324 104.059998,24.5126488 C104.409672,24.55721 104.757856,24.6017712 105.105293,24.6463324 C105.2052,24.5798682 105.304362,24.513404 105.403523,24.4469399 C105.484045,24.411442 105.564567,24.3766994 105.64509,24.3419567 C116.50364,40.2095181 119.39647,61.1510134 111.569426,80.2420862 L111.569426,80.2428415 C111.546313,80.2979765 111.523201,80.3538668 111.500088,80.4097572 C111.498597,80.4135335 111.498597,80.4127782 111.497105,80.4165546 C111.491141,80.4316601 111.485922,80.4452551 111.479212,80.4603605 C111.477721,80.4641369 111.475484,80.4701791 111.473993,80.4739555 C111.466537,80.4913268 111.459827,80.5071876 111.452371,80.5253141 C111.444915,80.5426855 111.437459,80.560812 111.430004,80.5789386 C111.428513,80.582715 111.427021,80.5857361 111.42553,80.5895125 C111.419566,80.6031074 111.414347,80.6159471 111.408382,80.6302973 C111.406145,80.6355842 111.404654,80.6401159 111.402417,80.6454028 C111.396453,80.6582425 111.391234,80.6718374 111.386015,80.6846771 C111.384524,80.6884534 111.381541,80.6944956 111.38005,80.698272 C111.37334,80.714888 111.365884,80.7330146 111.358429,80.7488754 C111.357683,80.7511412 111.355446,80.7571834 111.354701,80.758694 C111.348736,80.7730442 111.343517,80.7858838 111.337552,80.8002341 C111.335316,80.805521 111.332333,80.8123184 111.330097,80.8176054 C111.324878,80.8289345 111.319659,80.8417741 111.31444,80.8538585 C111.312203,80.8591455 111.309966,80.8644324 111.307729,80.8697193 C111.301019,80.8863353 111.293564,80.9037067 111.286108,80.9203227 C111.279398,80.9369387 111.271942,80.9550653 111.264486,80.9709261 L111.264486,80.9716814 C110.841,81.9671331 110.388436,82.9414372 109.917978,83.9006358 L109.768118,83.7291885 C109.607074,83.6604585 109.446029,83.5909732 109.28424,83.521488 C109.073242,83.6423319 108.861499,83.7639311 108.64901,83.884775 C108.475291,83.8666484 108.301572,83.8492771 108.127853,83.8311505 C107.851245,84.0380957 107.574637,84.2450409 107.296538,84.4527414 C107.130274,84.4950368 106.964011,84.5373321 106.797748,84.5796275 C106.726918,84.7344588 106.656834,84.8877795 106.586005,85.0418555 C106.46895,85.1906446 106.351894,85.3386784 106.234094,85.4867121 C106.281065,85.7321764 106.32729,85.9776406 106.37277,86.2223495 C106.343693,86.3643411 106.31387,86.507088 106.284793,86.6498348 C106.392901,86.8915227 106.500264,87.1332105 106.606881,87.3733878 C106.617319,87.5599406 106.627011,87.7464934 106.636704,87.9322909 C106.674728,88.0599323 106.712007,88.1868184 106.749286,88.3144598 C106.723191,88.4715569 106.697841,88.6278987 106.672491,88.7849958 C106.682184,89.0621815 106.691131,89.338612 106.700078,89.6142871 C105.906786,90.8582242 105.076962,92.0666633 104.203894,93.2335624 C103.899699,93.2464021 103.594759,93.2592417 103.289073,93.2720814 C103.149651,93.1074316 103.009483,92.9420265 102.869315,92.7758661 C102.899883,92.9397606 102.929706,93.1028999 102.960275,93.2660392 C102.97966,93.4246468 102.99979,93.5832545 103.019175,93.7418621 C102.929706,93.7479043 102.840983,93.7531912 102.751514,93.7592334 C102.711253,93.5930731 102.670992,93.4261574 102.630731,93.2592417 C102.545735,93.5553093 102.459994,93.8498664 102.374253,94.1451787 L102.222902,94.0031871 C102.222902,94.0031871 101.369964,94.4480438 101.255891,94.5265923 C101.246199,94.5326345 101.240234,94.5356556 101.236506,94.5356556 C101.199973,94.5356556 101.506404,94.1738791 101.50715,94.1738791 C101.556358,94.0009213 101.60482,93.8287187 101.654028,93.6557608 C101.785995,93.5152798 101.917216,93.375554 102.049183,93.235073 C102.07826,93.0266172 102.106592,92.8174062 102.135669,92.6081951 C102.015632,92.5742078 101.895594,92.5409757 101.775557,92.5069884 C101.800161,92.4057816 101.824765,92.3053301 101.849369,92.2048786 C101.746479,92.1361486 101.64359,92.0666633 101.539955,91.9979334 C101.566796,91.6625915 101.593636,91.3264944 101.619732,90.989642 C101.554121,90.8657769 101.489256,90.7426672 101.423645,90.6188022 C101.456451,90.3952409 101.489256,90.1709244 101.522061,89.9466079 C101.35878,89.894494 101.1955,89.84238 101.031473,89.7895108 C101.101557,89.5667048 101.170896,89.3423883 101.240234,89.1180718 C101.130635,89.0312152 101.02029,88.9443587 100.91069,88.8575021 C100.789907,89.0047806 100.668378,89.1520592 100.547595,89.2985824 C100.130073,89.9843716 99.7110603,90.667895 99.2898106,91.347642 C99.0571913,91.6165198 98.8238264,91.8846422 98.5904615,92.1527646 C98.6038819,92.4352373 98.6173022,92.7177099 98.629977,92.998672 C98.6061186,93.251689 98.5815146,93.5039507 98.5576562,93.7562123 C98.6821672,94.0394403 98.8059326,94.3211576 98.929698,94.6021197 C99.0221493,94.9941072 99.1131094,95.3845841 99.2040695,95.7735505 C99.2048151,95.7743057 99.2361292,96.8853145 99.2152531,96.9970951 C99.194377,97.1118968 98.4338908,98.4336271 98.4323997,98.4336271 C98.3951209,98.8883024 98.356351,99.3399565 98.3168356,99.7901001 M86.6992903,13.9123716 C86.4443038,13.6057301 86.1840982,13.3005992 85.9224015,13 C85.9365674,13.0135949 85.9514789,13.0264346 85.9656448,13.0392743 C86.1438371,13.1178228 86.3212839,13.1963714 86.4994763,13.2749199 C86.5658324,13.487152 86.6321886,13.6993842 86.6992903,13.9123716"/>
      </g>
    </g>
    <g mask="url(#slogan_left-c)">
      <g transform="translate(66.3 24)">
        <path fill="#F6BD36" d="M13.7198292,60.5 C5.03494337,47.5421545 10.4926385,41.5 10.4926385,41.5 L17.2824489,41.5 C17.2824489,41.5 22.4354995,47.1780646 13.7503089,60.1359101 L13.7503089,60.1827594 L13.7352214,60.1594899 L13.7198292,60.1827594 L13.7198292,60.5"/>
        <path fill="#FAE79A" d="M13.9587714,54.5 C7.26924776,44.1662356 12.342897,41.6799248 12.342897,41.6799248 L14.1654583,41.6799248 C14.1654583,41.6799248 15.618461,41.275094 15.9710978,41.6799248 C20.3393223,46.7000215 13.9587714,54.5 13.9587714,54.5"/>
        <polyline fill="#BD2A22" points="17.964 42 10 41.88 10.036 39 18 39.119 17.964 42"/>
        <path fill="#C72C24" d="M14.6977425,29.0013247 C22.7045693,29.1060203 29.1074461,35.3700711 28.9986334,42.9942093 C28.9727864,44.7655896 28.5941757,46.4529903 27.9331625,48 C25.8974718,42.8318274 20.7004694,39.1201514 14.5536694,39.0399963 C8.40655032,38.9603193 3.10488348,42.5347914 0.922885959,47.6478274 C0.306227548,46.0847229 -0.0237206004,44.3885578 0.00132865459,42.61654 C0.11061999,34.9925612 6.69043703,28.8967884 14.6977425,29.0013247"/>
        <path fill="#D33D36" d="M10.8553122,39.4154208 C6.34204221,40.4712099 2.65346091,43.5059939 0.923754706,47.5 C0.306515812,45.9572867 -0.0237429295,44.2832484 0.0013299053,42.5343472 C0.0937959648,36.2125095 4.75878053,30.9571556 11,29.5 L10.8553122,39.4154208"/>
        <path fill="#D33D36" d="M22.995708,23.896498 C22.9070258,30.4322636 21.4549685,36.3943429 19.1192673,41 C17.5956286,40.4897009 15.9690822,40.1993363 14.2774619,40.1764465 C12.585993,40.1529164 10.9527879,40.3978215 9.41462103,40.8661826 C7.20634374,36.1979386 5.91560929,30.1985633 6.00429148,23.6627977 C6.14503283,13.2812212 9.72092265,4.33930273 14.8219645,0 C19.8034519,4.47872257 23.1364494,13.5147615 22.995708,23.896498"/>
        <path fill="#C72C24" d="M19.1192673,41 C17.5956286,40.4897009 15.9690822,40.1993363 14.2774619,40.1764465 C14.2774619,36 14.8219645,7 14.8219645,0 C19.8034519,4.47872257 23.1364494,13.5147615 22.995708,23.896498 C22.9070258,30.4322636 21.4549685,36.3943429 19.1192673,41 Z"/>
        <path fill="#C72C24" d="M15.9961785,39.0251645 C15.9320445,43.3906722 15.0653253,47.1593533 13.8534098,49 C12.6965136,47.1294149 11.9395015,43.3400196 12.0038011,38.9745119 C12.0677693,34.609166 12.9356486,30.840323 14.1467355,29 C15.3039631,30.8707469 16.0606438,34.6601422 15.9961785,39.0251645"/>
        <path fill="#D33D36" d="M13.7353815,48.9093756 C13.717901,48.9385049 13.7020782,48.9711944 13.6853511,49 C12.633357,47.1294149 11.9449872,43.3400196 12.0034565,38.9745119 C12.0616243,34.609166 12.8508083,30.840323 13.9520793,29 C13.9679022,29.0291293 13.983273,29.0632753 14,29.0912717 L13.7353815,48.9093756"/>
        <path fill="#EFA43A" d="M21.5499878,12 C21.5499878,12 14.2024609,10.9345815 7.72999573,11.9451609 L8.21000671,10.420855 C8.08675765,10.420855 11.5415484,9.99548937 15.1909868,10.0000362 C17.3222222,10.0026915 19.5198411,10.151966 21.1099854,10.6182023 L21.5499878,12 Z"/>
      </g>
    </g>
    <polygon fill="#FFF" points="76.756 50 75.256 50 79.999 38.828 81.6 38.828 86.366 50 84.764 50 83.319 46.484 79.624 46.484 80.022 45.313 82.835 45.313 80.749 40.25" mask="url(#slogan_left-c)"/>
  </g>
</svg>
