<svg xmlns="http://www.w3.org/2000/svg" xmlns:xlink="http://www.w3.org/1999/xlink" width="160" height="170" viewBox="0 0 160 170">
  <defs>
    <polygon id="slogan_right-a" points="0 28.146 78.948 0 160 27.644 146.852 132.235 78.948 169.931 12.013 132.75"/>
    <filter id="slogan_right-b" width="102.5%" height="102.4%" x="-1.2%" y="-1.2%" filterUnits="objectBoundingBox">
      <feGaussianBlur in="SourceAlpha" result="shadowBlurInner1" stdDeviation="2"/>
      <feOffset in="shadowBlurInner1" result="shadowOffsetInner1"/>
      <feComposite in="shadowOffsetInner1" in2="SourceAlpha" k2="-1" k3="1" operator="arithmetic" result="shadowInnerInner1"/>
      <feColorMatrix in="shadowInnerInner1" values="0 0 0 0 0   0 0 0 0 0   0 0 0 0 0  0 0 0 0.06 0"/>
    </filter>
  </defs>
  <g fill="none" fill-rule="evenodd">
    <mask id="slogan_right-c" fill="#fff">
      <use xlink:href="#slogan_right-a"/>
    </mask>
    <g fill-rule="nonzero">
      <use fill="#303F9F" fill-rule="evenodd" xlink:href="#slogan_right-a"/>
      <use fill="#000" filter="url(#slogan_right-b)" xlink:href="#slogan_right-a"/>
    </g>
    <polygon fill="#2B3A99" fill-rule="nonzero" points="78.948 0 160 27.644 146.852 132.235 78.948 169.931" mask="url(#slogan_right-c)"/>
    <path fill="#EFC75E" fill-rule="nonzero" d="M51.0011251,34 C50.3098528,40.219201 46.853491,43.6766879 40.6320397,44.3690854 C46.853491,45.0603578 50.3098528,48.5178447 51.0011251,54.7381708 C51.6923975,48.5178447 55.1498844,45.0603578 61.3713357,44.3690854 C55.1498844,43.6766879 51.6923975,40.219201 51.0011251,34 Z" mask="url(#slogan_right-c)"/>
    <path fill="#5B717C" fill-rule="nonzero" d="M127.256925,68.9315783 C126.874384,72.386815 124.952683,74.3085162 121.496322,74.6933065 C124.952683,75.0758465 126.874384,76.9975477 127.256925,80.4527844 C127.641715,76.9975477 129.561166,75.0758465 133.017528,74.6933065 C129.561166,74.3085162 127.641715,72.386815 127.256925,68.9315783 Z M38.6084824,82.626212 C38.3008752,85.3901764 36.7650894,86.9282124 34,87.2346944 C36.7650894,87.5423016 38.3008752,89.0792125 38.6084824,91.8431768 C38.9160896,89.0803376 40.4518754,87.5434268 43.2169648,87.2346944 C40.4530005,86.9282124 38.9160896,85.3901764 38.6084824,82.626212 Z" mask="url(#slogan_right-c)"/>
    <g mask="url(#slogan_right-c)">
      <g transform="translate(-38 8)">
        <path fill="#F5CAA6" d="M147.834203,106.917156 L152,123.128667 L138.440167,131.121702 C131.22213,135.3794 124.460469,139.659093 119.184767,137.353374 C114.47497,135.291424 103.866975,121.149194 109.71406,117.463344 L127.15126,105 L147.834203,106.917156"/>
        <path fill="#FFD8B8" d="M90,127.188632 L104.151242,133.76026 C111.683791,137.25833 118.771128,140.832406 123.709914,137.940519 C128.116969,135.354505 137.046437,119.986722 130.919819,116.911311 C126.616127,113.075444 122.642854,110.105007 119,108 C118.170033,107.520407 116,106 112.037077,106 C109.395128,106 102.84613,107.478693 92.3900837,110.43608 L90,127.188632 Z"/>
        <polyline fill="#FFF" points="85.264 105 78 132.267 90.734 135 98 107.733 85.264 105"/>
        <path fill="#005C88" d="M0.0776230083,18.3430092 C-0.388748953,15.2465218 1.29567684,12.8320641 3.80676979,10 C18.5294925,12.8685363 32.2518016,33.7415598 33.1735721,45.8375554 L36.5095033,83.929091 L89.9612167,104.665344 C89.9795058,104.672638 90.0032816,104.710934 89.9996238,104.732817 L82.0841029,134.959129 C82.0822739,134.979189 82.0365512,135.00472 82.0219199,134.999249 L21.6331522,112.712928 C11.5869514,109.003709 8.62594672,99.9239617 7.72063644,95.7150731 C6.09107794,88.1580392 0.59520444,21.7932766 0.0776230083,18.3430092"/>
        <g transform="translate(99 105)">
          <path fill="#D1A886" d="M32.5806632,2.9470741 L33,5.57888429 L8.42465681,16.3880836 C5.87001292,17.4730672 3.95724859,17.0104919 2.45278588,15.8202066 C1.17822273,14.8141993 -0.837536599,11.7623305 0.372654677,11.2508651 L26.1673851,0.333335536 C28.4204008,-0.623781679 31.3079393,2.55146048 32.5806632,4.9470741" opacity=".448"/>
          <path fill="#F5CAA6" d="M32.6278818,2.39899289 L34,4.89398621 L31.1673586,6.05504072 L8.43992361,15.4071711 C5.87986407,16.4572157 3.96258208,16.0113562 2.45601467,14.8594008 C1.18151021,13.8839694 -0.838910872,10.9303778 0.372973425,10.4353828 L26.498473,0.419012774 C28.7527988,-0.507283069 31.3515355,0.0805235269 32.6278818,2.39899289"/>
          <path fill="#FFE7D4" d="M1.08761379,10.9390828 C0.859396639,10.4423364 1.12940003,10.2372404 1.30297363,10.1506861 L5.84160203,8 C6.60982595,10.370835 4.44658452,11.7876912 2.30584336,11.9984321 C1.99083941,12.0304196 1.38011746,11.5694239 1.08761379,10.9390828" transform="rotate(5 3.5 10)"/>
        </g>
        <polyline fill="#FFF" points="153.432 100 163 126.931 151.568 131 142 104.065 153.432 100"/>
        <path fill="#004A75" d="M234.483955,18.6540363 C234.610928,15.5185356 236.109218,2.55261913 233.32668,0 C219.114695,4.42368712 213.482504,4.43099598 211.976959,11.8677604 L199.54442,73.2749694 L149.032468,99.6270618 C149.012515,99.638025 148.994376,99.6782238 149.001631,99.6983231 L160.012065,128.970305 C160.019321,128.98675 160.068296,129.006849 160.07918,128.997713 L217.266321,100.363429 C226.780279,95.5998803 228.737488,86.2354042 229.18371,81.9487582 C229.987272,74.2433932 234.34247,22.1403622 234.483955,18.6540363"/>
      </g>
    </g>
    <g mask="url(#slogan_right-c)">
      <g transform="translate(41 29)">
        <path fill="#FFF" d="M36.5,56 C40.9932714,56 45.296911,55.3771644 49.2722138,54.2378971 C50,57 58.4713288,68 71,69 C58.4713288,59 57.0740632,51.1700558 58.4713288,50.360846 C67.2962077,45.250022 73,37.1359888 73,28 C73,12.536027 56.6583934,0 36.5,0 C16.3416066,0 0,12.536027 0,28 C0,43.463973 16.3416066,56 36.5,56 Z" opacity=".12"/>
        <path fill="#D33D36" d="M9.53789067,29.1708984 L9.53789067,27.0371094 L19.6453125,22.7695312 L19.6453125,25.5771484 L13.210254,28.1489258 L19.6453125,30.6308594 L19.6453125,33.4384766 L9.53789067,29.1708984 Z M23.322168,34 L23.322168,22.2080078 L25.6244141,22.2080078 L25.9950196,23.9375 C27.1255591,22.7844994 28.4133066,22.2080078 29.8583008,22.2080078 C32.650958,22.2080078 34.0472656,23.6604672 34.0472656,26.5654297 L34.0472656,34 L31.0711914,34 L31.0711914,26.5654297 C31.0711914,25.2626888 30.4235742,24.6113281 29.1283203,24.6113281 C28.1624952,24.6113281 27.2191453,24.9969037 26.2982422,25.7680664 L26.2982422,34 L23.322168,34 Z M45.5517578,24.8808594 C45.0651017,24.701171 44.3725631,24.6113281 43.4741211,24.6113281 C41.4151915,24.6113281 40.3857422,25.7455941 40.3857422,28.0141602 C40.3857422,30.207856 41.2729403,31.3046875 43.0473633,31.3046875 C43.9008832,31.3046875 44.735673,31.1025411 45.5517578,30.6982422 L45.5517578,24.8808594 Z M48.527832,33.1015625 C48.527832,36.5455901 46.457703,38.2675781 42.3173828,38.2675781 C40.8649016,38.2675781 39.5771541,38.0804055 38.4541016,37.7060547 L38.4541016,35.3476562 C39.5996151,35.7220071 40.8948495,35.9091797 42.3398438,35.9091797 C44.4811305,35.9091797 45.5517578,35.0107512 45.5517578,33.2138672 C44.6682899,33.588218 43.717453,33.7753906 42.6992188,33.7753906 C39.195295,33.7753906 37.4433594,31.8624866 37.4433594,28.0366211 C37.4433594,24.1508595 39.4835408,22.2080078 43.5639648,22.2080078 C44.9340889,22.2080078 46.5886947,22.3689763 48.527832,22.690918 L48.527832,33.1015625 Z M52.2046875,33.4384766 L52.2046875,30.6308594 L58.6397461,28.1489258 L52.2046875,25.5771484 L52.2046875,22.7695312 L62.3121094,27.0371094 L62.3121094,29.1708984 L52.2046875,33.4384766 Z"/>
      </g>
    </g>
  </g>
</svg>
