<svg xmlns="http://www.w3.org/2000/svg" xmlns:xlink="http://www.w3.org/1999/xlink" width="160" height="170" viewBox="0 0 160 170">
  <defs>
    <polygon id="slogan_middle-a" points="0 28.146 78.948 0 160 27.644 146.852 132.235 78.948 169.931 12.013 132.75"/>
    <filter id="slogan_middle-b" width="102.5%" height="102.4%" x="-1.2%" y="-1.2%" filterUnits="objectBoundingBox">
      <feGaussianBlur in="SourceAlpha" result="shadowBlurInner1" stdDeviation="2"/>
      <feOffset in="shadowBlurInner1" result="shadowOffsetInner1"/>
      <feComposite in="shadowOffsetInner1" in2="SourceAlpha" k2="-1" k3="1" operator="arithmetic" result="shadowInnerInner1"/>
      <feColorMatrix in="shadowInnerInner1" values="0 0 0 0 0   0 0 0 0 0   0 0 0 0 0  0 0 0 0.06 0"/>
    </filter>
  </defs>
  <g fill="none" fill-rule="evenodd">
    <mask id="slogan_middle-c" fill="#fff">
      <use xlink:href="#slogan_middle-a"/>
    </mask>
    <g fill-rule="nonzero">
      <use fill="#303F9F" fill-rule="evenodd" xlink:href="#slogan_middle-a"/>
      <use fill="#000" filter="url(#slogan_middle-b)" xlink:href="#slogan_middle-a"/>
    </g>
    <polygon fill="#2B3A99" fill-rule="nonzero" points="78.948 0 160 27.644 146.852 132.235 78.948 169.931" mask="url(#slogan_middle-c)"/>
    <path fill="#EFC75E" fill-rule="nonzero" d="M54.9538415,28.6830553 C54.2625691,34.9022563 50.8062073,38.3597433 44.5847561,39.0521407 C50.8062073,39.7434131 54.2625691,43.2009 54.9538415,49.4212262 C55.6451139,43.2009 59.1026008,39.7434131 65.324052,39.0521407 C59.1026008,38.3597433 55.6451139,34.9022563 54.9538415,28.6830553 Z" mask="url(#slogan_middle-c)"/>
    <path fill="#5B717C" fill-rule="nonzero" d="M131.209641,63.6146337 C130.827101,67.0698704 128.9054,68.9915715 125.449038,69.3763618 C128.9054,69.7589018 130.827101,71.680603 131.209641,75.1358397 C131.594431,71.680603 133.513882,69.7589018 136.970244,69.3763618 C133.513882,68.9915715 131.594431,67.0698704 131.209641,63.6146337 Z M42.5611988,77.3092674 C42.2535916,80.0732317 40.7178058,81.6112677 37.9527164,81.9177498 C40.7178058,82.225357 42.2535916,83.7622678 42.5611988,86.5262322 C42.868806,83.763393 44.4045918,82.2264821 47.1696812,81.9177498 C44.4057169,81.6112677 42.868806,80.0732317 42.5611988,77.3092674 Z" mask="url(#slogan_middle-c)"/>
    <g mask="url(#slogan_middle-c)">
      <g transform="translate(12 32)">
        <path fill="#CF3D36" d="M5.36205385,56.37093 L0,65.0214939 C20.2700063,68.5922537 36,77 36,77 L36,53.9785061 C36,53.9785061 20.2700063,45.5707597 0,42 L5.36205385,56.37093 Z"/>
        <polygon fill="#B32720" points="16 57.932 36 54 35.785 77"/>
        <path fill="#CF3D36" d="M131.634941,56.37093 L137,65.0214939 C116.723982,68.5922537 101,77 101,77 L101,53.9785061 C101,53.9785061 116.723982,45.5707597 137,42 L131.634941,56.37093 Z"/>
        <polygon fill="#B32720" points="121 57.932 101 54 101.215 77"/>
        <g transform="translate(40)">
          <path fill="#005C88" d="M46.7463175,0.0308058111 C46.3910559,0.0794630673 46.0142633,0.18769736 45.6109587,0.367231394 C42.9881933,1.53532671 41.5342078,4.52879177 39.0428779,6.02287465 C36.0606732,7.81082808 32.4809028,8.82588589 29.8910765,11.2288799 C27.2838969,13.6482536 26.5934587,17.1796784 24.9746165,20.2097568 C23.0628562,23.7888754 19.2507437,25.6930924 17.285638,29.1972177 C15.1731894,32.9643813 13.2122613,36.8309471 11.1851334,40.6454833 C8.39783247,45.8903501 4.48336746,50.5775052 2.6797442,56.304127 C0.938946488,61.8316234 0.98859634,67.6961878 0.404849053,73.4088387 C0.137800336,76.0223596 -0.296676036,78.6765086 0.29815811,81.282482 C0.917576163,83.994281 2.88782368,86.2863107 4.53992651,88.4395951 C6.09272964,90.4628055 7.84252539,91.5526959 8.03453695,94.3102616 C8.13994246,95.8248994 7.94536003,96.2306977 9.23095377,97.7967227 C12.7777849,102.118386 18.5895491,104.271831 22.7659211,107.950673 C23.9689258,109.009731 25.2773359,110.055461 25.832643,111.610726 C26.3580638,113.082488 25.4229112,115.794769 26.520189,116.946484 C27.430597,117.901805 28.8871533,120.039673 29.342518,119.994227 C29.7975613,119.948942 30.2526046,118.856964 30.5257591,119.129798 C30.798753,119.402632 32.1188927,119.81389 32.3920472,119.994709 C32.6648804,120.176331 33.7574985,115.626957 34.0303317,114.853901 C34.3034862,114.081006 32.9846319,107.898483 33.2110288,106.666796 C34.0563617,102.068926 35.8273671,97.3225151 38.4551136,93.4458326 C42.0631635,88.1217973 46.8599176,83.4306276 48.5719538,77.091374 C49.5879279,73.3291885 50.5642143,69.7781723 50.8344766,65.8639129 C51.1379995,61.465329 50.989532,57.0160003 52.0223774,52.6983513 C52.6962657,49.8792816 53.6990642,47.2024901 53.8966995,44.2599305 C54.1293629,40.7884039 54.8294419,38.9159828 56.746826,35.9856276 C58.5162246,33.282982 60.5010939,30.5700589 60.8203633,27.2504457 C61.0752004,24.604326 59.2545452,22.6236706 59.0959549,20.1098729 C58.8904463,16.8612383 62.501067,15.2449503 62.9414885,12.1392363 C63.402477,8.88835346 61.0780926,6.50719902 58.1333262,5.46901697 C56.1119827,4.75666189 53.68862,4.23845408 51.9659791,2.90672265 C50.2269488,1.56198382 48.8655145,-0.259371291 46.7463175,0.0308058111"/>
          <path fill="#004A75" d="M53.9730281,18.2996353 C53.0587249,23.0442576 54.9988848,25.0632335 54.9988848,27.6810976 C54.9988848,30.2989616 49.4406555,35.0746271 47.2173637,38.5904299 C44.994072,42.1062327 40.2661842,53.8644477 38.6609155,56.9131264 C36.7651847,60.5142156 39.1611798,70.5972007 37.2125509,74.1228363 C35.1178146,77.9131249 28.8361929,85.4079079 26.8260619,89.2458598 C24.0621317,94.5229225 29.0740754,112.552463 29.6247264,114.117276 C30.1457417,115.598072 30.5271822,119.849948 30.7980464,120.124456 C31.0687513,120.398965 32.377822,120.812748 32.6486862,120.994676 C32.9192317,121.177413 34.0026886,116.600113 34.2732341,115.822312 C34.5440983,115.044671 33.2363022,108.824197 33.4608008,107.584949 C34.2990459,102.958855 36.0552019,98.1833082 38.6609155,94.2828284 C42.2387129,88.9261113 46.9952476,84.2061445 48.6929288,77.8279771 C49.7003843,74.0426972 50.6684849,70.4698829 50.9364811,66.5315956 C51.237459,62.1060108 51.0902363,57.6293696 52.1144217,53.2852165 C52.7826596,50.4488417 53.7770499,47.7556187 53.9730281,44.794996 C54.2037407,41.3021592 54.8979497,39.4182441 56.799257,36.4699008 C58.5538197,33.7506649 60.5220465,31.0210884 60.8386389,27.6810976 C61.0913393,25.0187345 59.2859497,23.0259207 59.1286892,20.496692 C58.9249037,17.2281155 62.5052504,15.6019057 62.9419791,12.4771272 C63.3991023,9.20628861 61.0942073,6.81051733 58.1741319,5.76596234 C56.1697368,5.04923443 53.7666933,4.52784558 52.0584962,3.18793924 C50.3340472,1.83494566 56.799257,8.15423807 56.799257,10.4087708 C56.799257,12.6633035 55.0950432,12.4771272 53.9730281,18.2996353 Z" opacity=".8"/>
        </g>
        <path fill="#D33D36" d="M16,58 L16,84.2920841 C16,84.2920841 41.0263604,98 68.5,98 C95.9736396,98 121,84.2920841 121,84.2920841 L121,58 C121,58 95.9736396,71.7079159 68.5,71.7079159 C41.0263604,71.7079159 16,58 16,58 Z"/>
        <g transform="translate(40 76)">
          <path fill="#FFF" d="M.703222655 10L.703222655.771484375 2.50498047.771484375 2.79501953 2.125C3.67978958 1.22265174 4.687592.771484375 5.81845703.771484375 8.00401483.771484375 9.09677734 1.90819176 9.09677734 4.18164062L9.09677734 10 6.76767578 10 6.76767578 4.18164062C6.76767578 3.16210428 6.26084491 2.65234375 5.24716797 2.65234375 4.49130481 2.65234375 3.75303095 2.95409854 3.03232422 3.55761719L3.03232422 10 .703222655 10zM19.1885742 4.86328125C18.8077129 4.72265555 18.2657262 4.65234375 17.5625977 4.65234375 15.9512615 4.65234375 15.1456055 5.54003019 15.1456055 7.31542969 15.1456055 9.03223515 15.8399345 9.890625 17.2286133 9.890625 17.8965854 9.890625 18.5498991 9.73242346 19.1885742 9.41601562L19.1885742 4.86328125zM21.5176758 11.296875C21.5176758 13.992201 19.8975748 15.3398438 16.6573242 15.3398438 15.5205998 15.3398438 14.5127974 15.1933608 13.6338867 14.9003906L13.6338867 13.0546875C14.5303756 13.3476577 15.5440373 13.4941406 16.6749023 13.4941406 18.350692 13.4941406 19.1885742 12.7910227 19.1885742 11.3847656 18.4971645 11.6777358 17.7530313 11.8242188 16.9561523 11.8242188 14.2139511 11.8242188 12.8428711 10.3271634 12.8428711 7.33300781 12.8428711 4.29197698 14.4395348 2.77148438 17.6329102 2.77148438 18.7051811 2.77148438 20.0000901 2.89745968 21.5176758 3.14941406L21.5176758 11.296875z"/>
          <polygon fill="#FFF" points="31.597 8.463 31.597 10.309 27.203 10.309 27.203 8.463"/>
          <path fill="#FFF" d="M37.4444336,3.27734375 L39.1670898,3.27734375 L39.5186523,4.77148438 L41.8389648,4.77148438 L41.8389648,6.6171875 L39.7735352,6.6171875 L39.7735352,10.8623047 C39.7735352,11.7236371 40.1456017,12.1542969 40.8897461,12.1542969 L41.8389648,12.1542969 L41.8389648,14 L39.7647461,14 C38.2178634,14 37.4444336,13.1709067 37.4444336,11.5126953 L37.4444336,3.27734375 Z"/>
          <polygon fill="#FFF" points="45.681 1.771 48.027 1.771 49.223 8.196 51.358 1.771 53.354 1.771 55.656 8.196 56.693 1.771 59.119 1.771 56.711 11 54.523 11 52.352 4.452 50.154 11 47.931 11"/>
        </g>
      </g>
    </g>
  </g>
</svg>
