<?xml version="1.0" standalone="no"?><!DOCTYPE svg PUBLIC "-//W3C//DTD SVG 1.1//EN" "http://www.w3.org/Graphics/SVG/1.1/DTD/svg11.dtd"><svg t="1530391180334" class="icon" style="" viewBox="0 0 1024 1024" version="1.1" xmlns="http://www.w3.org/2000/svg" p-id="1054" xmlns:xlink="http://www.w3.org/1999/xlink" width="200" height="200"><defs><style type="text/css"></style></defs><path d="M585.105408 258.33472l180.559872 180.559872-326.836224 326.836224-180.559872-180.559872zm-120.563712 559.392768l353.120256-353.120256q10.856448-10.856448 10.856448-25.71264t-10.856448-25.71264l-206.843904-206.843904q-10.285056-10.285056-25.71264-10.285056t-25.71264 10.285056l-353.120256 353.120256q-10.856448 10.856448-10.856448 25.71264t10.856448 25.71264l206.843904 206.843904q10.285056 10.285056 25.71264 10.285056t25.71264-10.285056zm507.967488-363.976704l-518.252544 518.823936q-21.141504 21.141504-51.710976 21.141504t-51.710976-21.141504l-71.995392-71.995392q31.997952-31.997952 31.997952-77.709312t-31.997952-77.709312-77.709312-31.997952-77.709312 31.997952l-71.424-71.995392q-21.141504-21.141504-21.141504-51.710976t21.141504-51.710976l518.252544-517.681152q21.141504-21.141504 51.710976-21.141504t51.710976 21.141504l71.424 71.424q-31.997952 31.997952-31.997952 77.709312t31.997952 77.709312 77.709312 31.997952 77.709312-31.997952l71.995392 71.424q21.141504 21.141504 21.141504 51.710976t-21.141504 51.710976z" p-id="1055"></path></svg>