<?xml version="1.0" encoding="UTF-8"?>
<svg width="24px" height="24px" viewBox="0 0 24 24" version="1.1" xmlns="http://www.w3.org/2000/svg" xmlns:xlink="http://www.w3.org/1999/xlink">
    <!-- Generator: Sketch 50.2 (55047) - http://www.bohemiancoding.com/sketch -->
    <title>icon/web</title>
    <desc>Created with Sketch.</desc>
    <defs>
        <path d="M3.05492878,13 C3.46801932,16.7368747 6.16896977,19.7842108 9.72602666,20.7102549 C8.20509608,18.4230534 7.28142738,15.7763788 7.05270625,13 L3.05492878,13 Z M3.05492878,11 L7.05009108,11 C7.27429644,8.23681286 8.19910201,5.58442252 9.72570821,3.28982801 C6.16880856,4.21597105 3.46800699,7.26323681 3.05492878,11 Z M20.9450712,11 C20.5319807,7.26312529 17.8310302,4.21578917 14.2739733,3.28974509 C15.7949039,5.57694661 16.7185726,8.2236212 16.9472937,11 L20.9450712,11 Z M20.9450712,13 L16.9499089,13 C16.7257036,15.7631871 15.800898,18.4155775 14.2742918,20.710172 C17.8311914,19.7840289 20.531993,16.7367632 20.9450712,13 Z M9.05477268,11 L14.9424085,11 C14.6912106,8.28681689 13.6696691,5.70191092 11.9999781,3.5507682 C10.3239942,5.70963618 9.30106448,8.30264362 9.05477268,11 Z M14.9452273,13 L9.05759154,13 C9.30878935,15.7131831 10.3303309,18.2980891 12.0000219,20.4492318 C13.6760058,18.2903638 14.6989355,15.6973564 14.9452273,13 Z M12,23 C5.92486775,23 1,18.0751322 1,12 C1,5.92486775 5.92486775,1 12,1 C18.0751322,1 23,5.92486775 23,12 C23,18.0751322 18.0751322,23 12,23 Z" id="path-1"></path>
    </defs>
    <g id="icon/web" stroke="none" stroke-width="1" fill="none" fill-rule="evenodd">
        <g id="icon">
            <rect id="base" fill="#FFFFFF" opacity="0" x="0" y="0" width="24" height="24"></rect>
            <mask id="mask-2" fill="white">
                <use xlink:href="#path-1"></use>
            </mask>
            <use id="Combined-Shape" fill="#000000" fill-rule="nonzero" xlink:href="#path-1"></use>
            <g id="🎨Color/primary/500" mask="url(#mask-2)" fill="#3F51B5">
                <g id="🎨Color">
                    <rect id="Rectangle" x="0" y="0" width="24" height="24"></rect>
                </g>
            </g>
        </g>
    </g>
</svg>